<svg width="256" height="133" viewBox="0 0 256 133" fill="none" xmlns="http://www.w3.org/2000/svg">
<g filter="url(#filter0_d_25_139)">
<path d="M25.8502 43L28.5243 50L89.5843 47.5L91.8127 41L93.1498 26L90.9213 21L79.3333 18.5L46.3521 17.5L28.5243 21L24.0674 26L25.8502 43Z" fill="white"/>
<path d="M26.9352 45.1076C26.9352 45.1076 41.2322 38.056 58.0338 38.3582C74.8355 38.6604 89.9676 44.604 89.9676 44.604V61.5279L86.2105 67.0685L83.9146 113.408L79.3228 118.546L56.051 121.769L36.4317 118.042L32.6748 114.718L30.2746 72.6091L29.7528 64.8523L26.7264 61.9309L26.9352 45.1076Z" fill="#660505"/>
<path d="M74.2093 62.636C75.7078 62.636 76.9226 61.4634 76.9226 60.0168C76.9226 58.5703 75.7078 57.3976 74.2093 57.3976C72.7108 57.3976 71.496 58.5703 71.496 60.0168C71.496 61.4634 72.7108 62.636 74.2093 62.636Z" fill="#8E4A4A"/>
<path d="M37.7147 61.9497C39.6454 61.9497 41.2107 60.4388 41.2107 58.575C41.2107 56.7111 39.6454 55.2002 37.7147 55.2002C35.7839 55.2002 34.2187 56.7111 34.2187 58.575C34.2187 60.4388 35.7839 61.9497 37.7147 61.9497Z" fill="#8E4A4A"/>
<path d="M66.9983 104.355C68.5257 104.355 69.7638 103.16 69.7638 101.685C69.7638 100.211 68.5257 99.0157 66.9983 99.0157C65.471 99.0157 64.2329 100.211 64.2329 101.685C64.2329 103.16 65.471 104.355 66.9983 104.355Z" fill="#8E4A4A"/>
<path d="M82.9474 83.4831C84.1775 83.4831 85.1747 82.5205 85.1747 81.3331C85.1747 80.1456 84.1775 79.183 82.9474 79.183C81.7173 79.183 80.7201 80.1456 80.7201 81.3331C80.7201 82.5205 81.7173 83.4831 82.9474 83.4831Z" fill="#8E4A4A"/>
<path d="M57.6168 85.5703C58.5389 85.5703 59.2865 84.8487 59.2865 83.9585C59.2865 83.0684 58.5389 82.3467 57.6168 82.3467C56.6946 82.3467 55.947 83.0684 55.947 83.9585C55.947 84.8487 56.6946 85.5703 57.6168 85.5703Z" fill="#8E4A4A"/>
<path d="M80.1577 59.9161C81.1952 59.9161 82.0362 59.1043 82.0362 58.1028C82.0362 57.1014 81.1952 56.2895 80.1577 56.2895C79.1203 56.2895 78.2793 57.1014 78.2793 58.1028C78.2793 59.1043 79.1203 59.9161 80.1577 59.9161Z" fill="#8E4A4A"/>
<path d="M46.192 101.556C48.8144 101.556 50.9403 99.504 50.9403 96.9726C50.9403 94.4411 48.8144 92.389 46.192 92.389C43.5696 92.389 41.4437 94.4411 41.4437 96.9726C41.4437 99.504 43.5696 101.556 46.192 101.556Z" fill="#8E4A4A"/>
<path d="M83.9145 112.955L86.8887 66.4137L90.2804 61.7798C90.2804 61.7798 88.6877 49.8894 90.6459 45.2587C92.7326 40.3226 92.8895 25.1112 92.8895 25.1112C92.8895 25.1112 95.3774 18.856 71.6003 17.858C47.598 16.8507 33.875 17.9084 27.5091 21.6861C23.6706 23.964 23.8044 25.0608 24.1696 29.9466C24.5348 34.8324 24.0136 41.8146 26.3611 45.8128C29.4232 51.0278 26.4134 62.5857 26.4134 62.5857L29.5962 66.0611L32.6748 112.753C32.6748 112.753 32.7269 115.775 35.8578 117.186C38.9885 118.596 47.1284 120.913 58.2425 120.762C69.3566 120.611 79.4272 118.042 79.4272 118.042C79.4272 118.042 83.1319 116.48 83.9145 112.955Z" stroke="black" stroke-width="3" stroke-linecap="round" stroke-linejoin="round"/>
<path d="M38.2982 44.3363L40.5119 37.2842C40.5119 37.2842 44.2754 38.4952 45.7512 38.5664C47.227 38.6377 48.7029 37.5692 48.7029 37.5692L53.1304 43.8376L45.7512 47.1856L38.2982 44.3363Z" fill="white"/>
<path d="M27.3526 48.432C27.3526 48.432 44.3629 53.7711 58.1382 53.4689C71.9134 53.1666 83.7059 50.8497 89.0281 47.7268M43.528 118.848L41.8583 70.0906C41.8583 70.0906 36.9535 62.2331 30.5877 67.1692M53.0246 120.661L52.5029 70.695C52.5029 70.695 46.2413 63.2404 42.0671 70.0906M63.6692 120.258L63.356 70.8965C63.356 70.8965 59.7036 65.3559 53.9639 69.7884M74.418 118.848L74.5224 69.3854C74.5224 69.3854 69.9306 63.6434 63.6692 70.695M86.2104 67.8744C86.2104 67.8744 81.3056 60.8227 74.6267 68.6803M38.2982 44.3363L40.512 37.2842C40.512 37.2842 44.2754 38.4952 45.7512 38.5664C47.227 38.6377 48.7029 37.5692 48.7029 37.5692L53.1304 43.8376L45.7512 47.1856L38.2982 44.3363Z" stroke="black" stroke-width="3" stroke-linecap="round" stroke-linejoin="round"/>
<path d="M64.1797 46.0375L75.2486 11.8459C75.2486 11.8459 76.872 7.21581 81.152 6.14732C85.4319 5.07884 109.769 0.249999 109.769 0.249999C109.769 0.249999 112.443 -0.749999 112.889 1.25C113.334 4.25 112.443 3.75002 110.214 4.25003C103.643 5.33912 81.152 9.70669 81.152 9.70669C81.152 9.70669 79.5354 10.1845 78.1243 14.7067C76.8992 18.6331 67.8734 46.0375 67.8734 46.0375H64.1797Z" fill="#B9B9B9"/>
<path d="M24.6392 25.8667C24.6392 25.8667 38.8319 32.3341 56.8858 32.4147C77.4978 32.5067 87.1729 29.4933 92.4723 26.2696" stroke="black" stroke-width="3" stroke-linecap="round" stroke-linejoin="round"/>
</g>
<g filter="url(#filter1_d_25_139)">
<path d="M112.562 77.4C111.945 77.4 111.457 77.24 111.1 76.92C110.744 76.5733 110.566 76.1067 110.566 75.52C110.566 75.3067 110.577 75.1333 110.601 75L113.739 54.92C114.071 52.9733 114.737 51.5067 115.736 50.52C116.758 49.5067 118.1 49 119.765 49H131.21C131.828 49 132.304 49.1467 132.636 49.44C132.969 49.7067 133.135 50.1067 133.135 50.64C133.135 51.3867 132.897 51.9867 132.422 52.44C131.947 52.8933 131.329 53.12 130.568 53.12H120.299C119.824 53.12 119.42 53.2933 119.087 53.64C118.778 53.9867 118.576 54.4667 118.481 55.08L117.518 61.04H126.611C127.228 61.04 127.704 61.1867 128.037 61.48C128.369 61.7467 128.536 62.1467 128.536 62.68C128.536 63.4267 128.298 64.0267 127.823 64.48C127.348 64.9333 126.729 65.16 125.969 65.16H116.877L115.343 75C115.225 75.72 114.904 76.3067 114.381 76.76C113.882 77.1867 113.275 77.4 112.562 77.4ZM135.916 77.4C135.298 77.4 134.81 77.24 134.454 76.92C134.097 76.5733 133.919 76.1067 133.919 75.52C133.919 75.3067 133.931 75.1333 133.955 75L137.734 51C137.829 50.2533 138.126 49.6667 138.625 49.24C139.125 48.8133 139.731 48.6 140.444 48.6C141.062 48.6 141.561 48.7733 141.941 49.12C142.322 49.4667 142.512 49.9467 142.512 50.56C142.512 50.7467 142.5 50.8933 142.476 51L138.697 75C138.578 75.7467 138.257 76.3333 137.734 76.76C137.211 77.1867 136.605 77.4 135.916 77.4ZM149.446 77C147.877 77 146.676 76.6 145.845 75.8C145.013 75 144.597 73.8533 144.597 72.36C144.597 71.9067 144.633 71.4267 144.704 70.92L147.842 51C147.96 50.2533 148.258 49.6667 148.733 49.24C149.208 48.8133 149.814 48.6 150.551 48.6C151.193 48.6 151.692 48.7733 152.049 49.12C152.429 49.4667 152.619 49.9467 152.619 50.56C152.619 50.7467 152.608 50.8933 152.584 51L149.446 70.92C149.422 71.0533 149.41 71.24 149.41 71.48C149.41 71.9333 149.517 72.28 149.731 72.52C149.945 72.76 150.255 72.88 150.658 72.88H162.068C162.686 72.88 163.162 73.0267 163.494 73.32C163.827 73.5867 163.993 73.9867 163.993 74.52C163.993 75.2667 163.755 75.8667 163.28 76.32C162.805 76.7733 162.187 77 161.426 77H149.446ZM169.145 77.4C168.526 77.4 168.039 77.24 167.683 76.92C167.326 76.5733 167.148 76.1067 167.148 75.52C167.148 75.3067 167.16 75.1333 167.184 75L169.751 58.52C170.273 55.2667 171.403 52.8 173.138 51.12C174.873 49.44 177.167 48.6 180.02 48.6C181.351 48.6 182.539 48.96 183.585 49.68C184.655 50.4 185.522 51.4533 186.188 52.84C187.234 51.48 188.399 50.44 189.682 49.72C190.966 48.9733 192.297 48.6 193.676 48.6C196.029 48.6 197.883 49.3067 199.238 50.72C200.593 52.1067 201.27 54 201.27 56.4C201.27 57.0133 201.211 57.72 201.092 58.52L198.525 75C198.405 75.72 198.084 76.3067 197.562 76.76C197.063 77.1867 196.457 77.4 195.744 77.4C195.125 77.4 194.638 77.24 194.282 76.92C193.925 76.5733 193.747 76.1067 193.747 75.52C193.747 75.3067 193.759 75.1333 193.783 75L196.35 58.52C196.468 57.8533 196.528 57.1467 196.528 56.4C196.528 55.1467 196.243 54.24 195.672 53.68C195.102 53.0933 194.211 52.8 192.998 52.8C191.619 52.8 190.478 53.2933 189.575 54.28C188.671 55.2667 188.065 56.68 187.757 58.52L185.19 75C185.07 75.7467 184.762 76.3333 184.263 76.76C183.763 77.1867 183.157 77.4 182.444 77.4C181.826 77.4 181.339 77.24 180.982 76.92C180.649 76.5733 180.483 76.1067 180.483 75.52C180.483 75.3067 180.495 75.1333 180.519 75L183.086 58.52C183.181 58.0133 183.229 57.48 183.229 56.92C183.229 55.6133 182.919 54.6 182.302 53.88C181.707 53.16 180.84 52.8 179.699 52.8C178.153 52.8 176.976 53.2533 176.169 54.16C175.36 55.04 174.801 56.4933 174.493 58.52L171.926 75C171.806 75.72 171.486 76.3067 170.963 76.76C170.464 77.1867 169.858 77.4 169.145 77.4ZM214.285 77.4C212.217 77.4 210.41 76.9867 208.865 76.16C207.319 75.3067 206.119 74.12 205.264 72.6C204.431 71.08 204.016 69.32 204.016 67.32C204.016 66.52 204.087 65.7067 204.23 64.88L206.44 51C206.559 50.2533 206.856 49.6667 207.332 49.24C207.807 48.8133 208.401 48.6 209.115 48.6C209.779 48.6 210.291 48.7733 210.648 49.12C211.027 49.4667 211.218 49.9467 211.218 50.56C211.218 50.7467 211.206 50.8933 211.183 51L208.972 65C208.829 65.9067 208.758 66.7467 208.758 67.52C208.758 71.3067 210.564 73.2 214.178 73.2C216.269 73.2 217.98 72.4933 219.312 71.08C220.667 69.64 221.546 67.6133 221.95 65L224.161 51C224.256 50.28 224.553 49.7067 225.052 49.28C225.575 48.8267 226.193 48.6 226.907 48.6C227.548 48.6 228.048 48.7733 228.404 49.12C228.761 49.44 228.939 49.9067 228.939 50.52C228.939 50.7333 228.926 50.8933 228.903 51L226.693 65.24C226.074 69.24 224.708 72.2667 222.592 74.32C220.5 76.3733 217.731 77.4 214.285 77.4ZM110.69 97.15C110.459 97.15 110.276 97.09 110.142 96.97C110.008 96.84 109.942 96.665 109.942 96.445C109.942 96.365 109.946 96.3 109.955 96.25L110.837 90.595C111.06 89.185 111.568 88.125 112.362 87.415C113.164 86.705 114.247 86.35 115.611 86.35C116.36 86.35 117.006 86.495 117.55 86.785C118.102 87.065 118.526 87.465 118.82 87.985C119.123 88.505 119.274 89.11 119.274 89.8C119.274 90.03 119.252 90.295 119.208 90.595L118.325 96.25C118.281 96.53 118.165 96.75 117.977 96.91C117.79 97.07 117.563 97.15 117.296 97.15C117.064 97.15 116.877 97.085 116.734 96.955C116.6 96.825 116.533 96.65 116.533 96.43C116.533 96.35 116.538 96.29 116.547 96.25L117.443 90.55C117.487 90.27 117.509 90.035 117.509 89.845C117.509 88.565 116.823 87.925 115.45 87.925C114.666 87.925 114.033 88.15 113.552 88.6C113.07 89.05 112.763 89.7 112.629 90.55L111.733 96.25C111.689 96.52 111.568 96.74 111.372 96.91C111.185 97.07 110.958 97.15 110.69 97.15ZM120.549 97.135C120.317 97.135 120.135 97.075 120.001 96.955C119.867 96.825 119.8 96.65 119.8 96.43C119.8 96.35 119.805 96.285 119.814 96.235L120.643 90.985C120.874 89.485 121.409 88.34 122.247 87.55C123.094 86.75 124.186 86.35 125.523 86.35C126.646 86.35 127.524 86.68 128.157 87.34C128.799 87.99 129.12 88.88 129.12 90.01C129.12 90.33 129.093 90.655 129.04 90.985L128.211 96.235C128.166 96.515 128.05 96.735 127.863 96.895C127.676 97.055 127.448 97.135 127.181 97.135C126.949 97.135 126.762 97.07 126.619 96.94C126.486 96.81 126.419 96.635 126.419 96.415C126.419 96.335 126.423 96.275 126.432 96.235L126.82 93.79H121.98L121.592 96.235C121.547 96.505 121.427 96.725 121.231 96.895C121.044 97.055 120.816 97.135 120.549 97.135ZM127.061 92.245L127.261 90.94C127.324 90.52 127.355 90.195 127.355 89.965C127.355 89.275 127.185 88.765 126.847 88.435C126.517 88.095 126.009 87.925 125.322 87.925C123.709 87.925 122.742 88.93 122.421 90.94L122.22 92.245H127.061ZM130.5 97.15C130.268 97.15 130.085 97.09 129.951 96.97C129.818 96.84 129.751 96.665 129.751 96.445C129.751 96.365 129.755 96.3 129.764 96.25L130.727 90.07C130.923 88.85 131.346 87.925 131.997 87.295C132.648 86.665 133.508 86.35 134.578 86.35C135.077 86.35 135.523 86.485 135.915 86.755C136.316 87.025 136.641 87.42 136.891 87.94C137.283 87.43 137.72 87.04 138.201 86.77C138.683 86.49 139.182 86.35 139.699 86.35C140.581 86.35 141.276 86.615 141.785 87.145C142.293 87.665 142.547 88.375 142.547 89.275C142.547 89.505 142.524 89.77 142.48 90.07L141.517 96.25C141.473 96.52 141.352 96.74 141.156 96.91C140.969 97.07 140.742 97.15 140.474 97.15C140.242 97.15 140.06 97.09 139.926 96.97C139.792 96.84 139.725 96.665 139.725 96.445C139.725 96.365 139.73 96.3 139.739 96.25L140.702 90.07C140.746 89.82 140.768 89.555 140.768 89.275C140.768 88.805 140.661 88.465 140.447 88.255C140.234 88.035 139.899 87.925 139.445 87.925C138.928 87.925 138.5 88.11 138.161 88.48C137.822 88.85 137.595 89.38 137.479 90.07L136.516 96.25C136.472 96.53 136.356 96.75 136.169 96.91C135.982 97.07 135.754 97.15 135.487 97.15C135.255 97.15 135.072 97.09 134.939 96.97C134.814 96.84 134.752 96.665 134.752 96.445C134.752 96.365 134.756 96.3 134.765 96.25L135.728 90.07C135.763 89.88 135.781 89.68 135.781 89.47C135.781 88.98 135.665 88.6 135.433 88.33C135.211 88.06 134.885 87.925 134.457 87.925C133.878 87.925 133.437 88.095 133.134 88.435C132.831 88.765 132.621 89.31 132.505 90.07L131.543 96.25C131.498 96.52 131.378 96.74 131.182 96.91C130.994 97.07 130.767 97.15 130.5 97.15ZM147.735 97.15C147.093 97.15 146.464 97.07 145.849 96.91C145.234 96.74 144.704 96.51 144.258 96.22C143.821 95.93 143.518 95.61 143.349 95.26C143.269 95.09 143.229 94.93 143.229 94.78C143.229 94.52 143.336 94.3 143.55 94.12C143.701 93.98 143.866 93.91 144.044 93.91C144.285 93.91 144.503 94.015 144.699 94.225C145.199 94.725 145.658 95.075 146.077 95.275C146.496 95.475 146.981 95.575 147.534 95.575C148.238 95.575 148.8 95.44 149.219 95.17C149.638 94.89 149.847 94.52 149.847 94.06C149.847 93.82 149.78 93.615 149.647 93.445C149.522 93.275 149.312 93.12 149.018 92.98C148.724 92.84 148.305 92.69 147.761 92.53C146.549 92.18 145.684 91.78 145.167 91.33C144.65 90.88 144.392 90.3 144.392 89.59C144.392 88.97 144.57 88.415 144.927 87.925C145.283 87.425 145.778 87.04 146.411 86.77C147.044 86.49 147.757 86.35 148.55 86.35C149.415 86.35 150.172 86.515 150.823 86.845C151.483 87.165 151.906 87.585 152.093 88.105C152.147 88.235 152.174 88.37 152.174 88.51C152.174 88.82 152.031 89.075 151.746 89.275C151.612 89.365 151.474 89.41 151.331 89.41C151.207 89.41 151.086 89.38 150.97 89.32C150.854 89.25 150.761 89.16 150.69 89.05C150.44 88.67 150.128 88.39 149.754 88.21C149.379 88.02 148.933 87.925 148.416 87.925C147.748 87.925 147.213 88.05 146.812 88.3C146.411 88.55 146.21 88.885 146.21 89.305C146.21 89.525 146.268 89.715 146.384 89.875C146.509 90.035 146.714 90.185 146.999 90.325C147.293 90.455 147.717 90.605 148.269 90.775C149.17 91.065 149.861 91.345 150.342 91.615C150.832 91.875 151.175 92.18 151.371 92.53C151.576 92.87 151.679 93.3 151.679 93.82C151.679 94.48 151.514 95.065 151.184 95.575C150.854 96.075 150.391 96.465 149.794 96.745C149.205 97.015 148.519 97.15 147.735 97.15Z" fill="white"/>
<mask id="mask0_25_139" style="mask-type:luminance" maskUnits="userSpaceOnUse" x="107" y="45" width="125" height="56">
<path d="M231.794 45H107V101H231.794V45Z" fill="white"/>
<path d="M112.562 77.4C111.945 77.4 111.457 77.24 111.1 76.92C110.744 76.5733 110.566 76.1067 110.566 75.52C110.566 75.3067 110.577 75.1333 110.601 75L113.739 54.92C114.071 52.9733 114.737 51.5067 115.736 50.52C116.758 49.5067 118.1 49 119.765 49H131.21C131.828 49 132.304 49.1467 132.636 49.44C132.969 49.7067 133.135 50.1067 133.135 50.64C133.135 51.3867 132.897 51.9867 132.422 52.44C131.947 52.8933 131.329 53.12 130.568 53.12H120.299C119.824 53.12 119.42 53.2933 119.087 53.64C118.778 53.9867 118.576 54.4667 118.481 55.08L117.518 61.04H126.611C127.228 61.04 127.704 61.1867 128.037 61.48C128.369 61.7467 128.536 62.1467 128.536 62.68C128.536 63.4267 128.298 64.0267 127.823 64.48C127.348 64.9333 126.729 65.16 125.969 65.16H116.877L115.343 75C115.225 75.72 114.904 76.3067 114.381 76.76C113.882 77.1867 113.275 77.4 112.562 77.4ZM135.916 77.4C135.298 77.4 134.81 77.24 134.454 76.92C134.097 76.5733 133.919 76.1067 133.919 75.52C133.919 75.3067 133.931 75.1333 133.955 75L137.734 51C137.829 50.2533 138.126 49.6667 138.625 49.24C139.125 48.8133 139.731 48.6 140.444 48.6C141.062 48.6 141.561 48.7733 141.941 49.12C142.322 49.4667 142.512 49.9467 142.512 50.56C142.512 50.7467 142.5 50.8933 142.476 51L138.697 75C138.578 75.7467 138.257 76.3333 137.734 76.76C137.211 77.1867 136.605 77.4 135.916 77.4ZM149.446 77C147.877 77 146.676 76.6 145.845 75.8C145.013 75 144.597 73.8533 144.597 72.36C144.597 71.9067 144.633 71.4267 144.704 70.92L147.842 51C147.96 50.2533 148.258 49.6667 148.733 49.24C149.208 48.8133 149.814 48.6 150.551 48.6C151.193 48.6 151.692 48.7733 152.049 49.12C152.429 49.4667 152.619 49.9467 152.619 50.56C152.619 50.7467 152.608 50.8933 152.584 51L149.446 70.92C149.422 71.0533 149.41 71.24 149.41 71.48C149.41 71.9333 149.517 72.28 149.731 72.52C149.945 72.76 150.255 72.88 150.658 72.88H162.068C162.686 72.88 163.162 73.0267 163.494 73.32C163.827 73.5867 163.993 73.9867 163.993 74.52C163.993 75.2667 163.755 75.8667 163.28 76.32C162.805 76.7733 162.187 77 161.426 77H149.446ZM169.145 77.4C168.526 77.4 168.039 77.24 167.683 76.92C167.326 76.5733 167.148 76.1067 167.148 75.52C167.148 75.3067 167.16 75.1333 167.184 75L169.751 58.52C170.273 55.2667 171.403 52.8 173.138 51.12C174.873 49.44 177.167 48.6 180.02 48.6C181.351 48.6 182.539 48.96 183.585 49.68C184.655 50.4 185.522 51.4533 186.188 52.84C187.234 51.48 188.399 50.44 189.682 49.72C190.966 48.9733 192.297 48.6 193.676 48.6C196.029 48.6 197.883 49.3067 199.238 50.72C200.593 52.1067 201.27 54 201.27 56.4C201.27 57.0133 201.211 57.72 201.092 58.52L198.525 75C198.405 75.72 198.084 76.3067 197.562 76.76C197.063 77.1867 196.457 77.4 195.744 77.4C195.125 77.4 194.638 77.24 194.282 76.92C193.925 76.5733 193.747 76.1067 193.747 75.52C193.747 75.3067 193.759 75.1333 193.783 75L196.35 58.52C196.468 57.8533 196.528 57.1467 196.528 56.4C196.528 55.1467 196.243 54.24 195.672 53.68C195.102 53.0933 194.211 52.8 192.998 52.8C191.619 52.8 190.478 53.2933 189.575 54.28C188.671 55.2667 188.065 56.68 187.757 58.52L185.19 75C185.07 75.7467 184.762 76.3333 184.263 76.76C183.763 77.1867 183.157 77.4 182.444 77.4C181.826 77.4 181.339 77.24 180.982 76.92C180.649 76.5733 180.483 76.1067 180.483 75.52C180.483 75.3067 180.495 75.1333 180.519 75L183.086 58.52C183.181 58.0133 183.229 57.48 183.229 56.92C183.229 55.6133 182.919 54.6 182.302 53.88C181.707 53.16 180.84 52.8 179.699 52.8C178.153 52.8 176.976 53.2533 176.169 54.16C175.36 55.04 174.801 56.4933 174.493 58.52L171.926 75C171.806 75.72 171.486 76.3067 170.963 76.76C170.464 77.1867 169.858 77.4 169.145 77.4ZM214.285 77.4C212.217 77.4 210.41 76.9867 208.865 76.16C207.319 75.3067 206.119 74.12 205.264 72.6C204.431 71.08 204.016 69.32 204.016 67.32C204.016 66.52 204.087 65.7067 204.23 64.88L206.44 51C206.559 50.2533 206.856 49.6667 207.332 49.24C207.807 48.8133 208.401 48.6 209.115 48.6C209.779 48.6 210.291 48.7733 210.648 49.12C211.027 49.4667 211.218 49.9467 211.218 50.56C211.218 50.7467 211.206 50.8933 211.183 51L208.972 65C208.829 65.9067 208.758 66.7467 208.758 67.52C208.758 71.3067 210.564 73.2 214.178 73.2C216.269 73.2 217.98 72.4933 219.312 71.08C220.667 69.64 221.546 67.6133 221.95 65L224.161 51C224.256 50.28 224.553 49.7067 225.052 49.28C225.575 48.8267 226.193 48.6 226.907 48.6C227.548 48.6 228.048 48.7733 228.404 49.12C228.761 49.44 228.939 49.9067 228.939 50.52C228.939 50.7333 228.926 50.8933 228.903 51L226.693 65.24C226.074 69.24 224.708 72.2667 222.592 74.32C220.5 76.3733 217.731 77.4 214.285 77.4ZM110.69 97.15C110.459 97.15 110.276 97.09 110.142 96.97C110.008 96.84 109.942 96.665 109.942 96.445C109.942 96.365 109.946 96.3 109.955 96.25L110.837 90.595C111.06 89.185 111.568 88.125 112.362 87.415C113.164 86.705 114.247 86.35 115.611 86.35C116.36 86.35 117.006 86.495 117.55 86.785C118.102 87.065 118.526 87.465 118.82 87.985C119.123 88.505 119.274 89.11 119.274 89.8C119.274 90.03 119.252 90.295 119.208 90.595L118.325 96.25C118.281 96.53 118.165 96.75 117.977 96.91C117.79 97.07 117.563 97.15 117.296 97.15C117.064 97.15 116.877 97.085 116.734 96.955C116.6 96.825 116.533 96.65 116.533 96.43C116.533 96.35 116.538 96.29 116.547 96.25L117.443 90.55C117.487 90.27 117.509 90.035 117.509 89.845C117.509 88.565 116.823 87.925 115.45 87.925C114.666 87.925 114.033 88.15 113.552 88.6C113.07 89.05 112.763 89.7 112.629 90.55L111.733 96.25C111.689 96.52 111.568 96.74 111.372 96.91C111.185 97.07 110.958 97.15 110.69 97.15ZM120.549 97.135C120.317 97.135 120.135 97.075 120.001 96.955C119.867 96.825 119.8 96.65 119.8 96.43C119.8 96.35 119.805 96.285 119.814 96.235L120.643 90.985C120.874 89.485 121.409 88.34 122.247 87.55C123.094 86.75 124.186 86.35 125.523 86.35C126.646 86.35 127.524 86.68 128.157 87.34C128.799 87.99 129.12 88.88 129.12 90.01C129.12 90.33 129.093 90.655 129.04 90.985L128.211 96.235C128.166 96.515 128.05 96.735 127.863 96.895C127.676 97.055 127.448 97.135 127.181 97.135C126.949 97.135 126.762 97.07 126.619 96.94C126.486 96.81 126.419 96.635 126.419 96.415C126.419 96.335 126.423 96.275 126.432 96.235L126.82 93.79H121.98L121.592 96.235C121.547 96.505 121.427 96.725 121.231 96.895C121.044 97.055 120.816 97.135 120.549 97.135ZM127.061 92.245L127.261 90.94C127.324 90.52 127.355 90.195 127.355 89.965C127.355 89.275 127.185 88.765 126.847 88.435C126.517 88.095 126.009 87.925 125.322 87.925C123.709 87.925 122.742 88.93 122.421 90.94L122.22 92.245H127.061ZM130.5 97.15C130.268 97.15 130.085 97.09 129.951 96.97C129.818 96.84 129.751 96.665 129.751 96.445C129.751 96.365 129.755 96.3 129.764 96.25L130.727 90.07C130.923 88.85 131.346 87.925 131.997 87.295C132.648 86.665 133.508 86.35 134.578 86.35C135.077 86.35 135.523 86.485 135.915 86.755C136.316 87.025 136.641 87.42 136.891 87.94C137.283 87.43 137.72 87.04 138.201 86.77C138.683 86.49 139.182 86.35 139.699 86.35C140.581 86.35 141.276 86.615 141.785 87.145C142.293 87.665 142.547 88.375 142.547 89.275C142.547 89.505 142.524 89.77 142.48 90.07L141.517 96.25C141.473 96.52 141.352 96.74 141.156 96.91C140.969 97.07 140.742 97.15 140.474 97.15C140.242 97.15 140.06 97.09 139.926 96.97C139.792 96.84 139.725 96.665 139.725 96.445C139.725 96.365 139.73 96.3 139.739 96.25L140.702 90.07C140.746 89.82 140.768 89.555 140.768 89.275C140.768 88.805 140.661 88.465 140.447 88.255C140.234 88.035 139.899 87.925 139.445 87.925C138.928 87.925 138.5 88.11 138.161 88.48C137.822 88.85 137.595 89.38 137.479 90.07L136.516 96.25C136.472 96.53 136.356 96.75 136.169 96.91C135.982 97.07 135.754 97.15 135.487 97.15C135.255 97.15 135.072 97.09 134.939 96.97C134.814 96.84 134.752 96.665 134.752 96.445C134.752 96.365 134.756 96.3 134.765 96.25L135.728 90.07C135.763 89.88 135.781 89.68 135.781 89.47C135.781 88.98 135.665 88.6 135.433 88.33C135.211 88.06 134.885 87.925 134.457 87.925C133.878 87.925 133.437 88.095 133.134 88.435C132.831 88.765 132.621 89.31 132.505 90.07L131.543 96.25C131.498 96.52 131.378 96.74 131.182 96.91C130.994 97.07 130.767 97.15 130.5 97.15ZM147.735 97.15C147.093 97.15 146.464 97.07 145.849 96.91C145.234 96.74 144.704 96.51 144.258 96.22C143.821 95.93 143.518 95.61 143.349 95.26C143.269 95.09 143.229 94.93 143.229 94.78C143.229 94.52 143.336 94.3 143.55 94.12C143.701 93.98 143.866 93.91 144.044 93.91C144.285 93.91 144.503 94.015 144.699 94.225C145.199 94.725 145.658 95.075 146.077 95.275C146.496 95.475 146.981 95.575 147.534 95.575C148.238 95.575 148.8 95.44 149.219 95.17C149.638 94.89 149.847 94.52 149.847 94.06C149.847 93.82 149.78 93.615 149.647 93.445C149.522 93.275 149.312 93.12 149.018 92.98C148.724 92.84 148.305 92.69 147.761 92.53C146.549 92.18 145.684 91.78 145.167 91.33C144.65 90.88 144.392 90.3 144.392 89.59C144.392 88.97 144.57 88.415 144.927 87.925C145.283 87.425 145.778 87.04 146.411 86.77C147.044 86.49 147.757 86.35 148.55 86.35C149.415 86.35 150.172 86.515 150.823 86.845C151.483 87.165 151.906 87.585 152.093 88.105C152.147 88.235 152.174 88.37 152.174 88.51C152.174 88.82 152.031 89.075 151.746 89.275C151.612 89.365 151.474 89.41 151.331 89.41C151.207 89.41 151.086 89.38 150.97 89.32C150.854 89.25 150.761 89.16 150.69 89.05C150.44 88.67 150.128 88.39 149.754 88.21C149.379 88.02 148.933 87.925 148.416 87.925C147.748 87.925 147.213 88.05 146.812 88.3C146.411 88.55 146.21 88.885 146.21 89.305C146.21 89.525 146.268 89.715 146.384 89.875C146.509 90.035 146.714 90.185 146.999 90.325C147.293 90.455 147.717 90.605 148.269 90.775C149.17 91.065 149.861 91.345 150.342 91.615C150.832 91.875 151.175 92.18 151.371 92.53C151.576 92.87 151.679 93.3 151.679 93.82C151.679 94.48 151.514 95.065 151.184 95.575C150.854 96.075 150.391 96.465 149.794 96.745C149.205 97.015 148.519 97.15 147.735 97.15Z" fill="black"/>
</mask>
<g mask="url(#mask0_25_139)">
<path d="M111.1 76.92L109.349 79.1871L109.389 79.2257L109.43 79.2626L111.1 76.92ZM110.601 75L113.224 75.5883L113.23 75.5533L113.235 75.518L110.601 75ZM113.739 54.92L111.113 54.355L111.108 54.3784L111.105 54.402L113.739 54.92ZM115.736 50.52L117.503 52.7711L117.507 52.768L115.736 50.52ZM132.636 49.44L130.985 51.799L131.032 51.8413L131.082 51.8812L132.636 49.44ZM119.087 53.64L117.268 51.4416L117.231 51.4794L117.197 51.5187L119.087 53.64ZM118.481 55.08L121.112 55.6149L121.114 55.6045L121.116 55.594L118.481 55.08ZM117.518 61.04L114.887 60.5051L114.317 64.04H117.518V61.04ZM128.037 61.48L126.385 63.839L126.432 63.8813L126.482 63.9212L128.037 61.48ZM116.877 65.16V62.16H114.629L114.243 64.6434L116.877 65.16ZM115.343 75L117.973 75.5463L117.976 75.5314L117.977 75.5166L115.343 75ZM114.381 76.76L116.001 79.1463L116.008 79.1401L116.015 79.1339L114.381 76.76ZM112.562 74.4C112.454 74.4 112.438 74.3855 112.485 74.4008C112.538 74.4184 112.648 74.467 112.771 74.5774L109.43 79.2626C110.404 80.137 111.551 80.4 112.562 80.4V74.4ZM112.852 74.6529C112.966 74.7638 113.08 74.9266 113.157 75.1282C113.231 75.3219 113.24 75.4697 113.24 75.52H107.891C107.891 76.8709 108.339 78.2048 109.349 79.1871L112.852 74.6529ZM113.24 75.52C113.24 75.4736 113.241 75.4554 113.241 75.4601C113.241 75.4632 113.24 75.4754 113.237 75.4955C113.235 75.5154 113.231 75.547 113.224 75.5883L107.979 74.4117C107.907 74.8156 107.891 75.207 107.891 75.52H113.24ZM113.235 75.518L116.373 55.438L111.105 54.402L107.967 74.482L113.235 75.518ZM116.365 55.485C116.623 53.9777 117.076 53.193 117.503 52.7711L113.968 48.2689C112.398 49.8203 111.52 51.9689 111.113 54.355L116.365 55.485ZM117.507 52.768C117.938 52.3401 118.603 52 119.765 52V46C117.599 46 115.578 46.6733 113.964 48.272L117.507 52.768ZM119.765 52H131.21V46H119.765V52ZM131.21 52C131.338 52 131.364 52.0159 131.321 52.0026C131.272 51.9874 131.14 51.936 130.985 51.799L134.288 47.081C133.311 46.2193 132.161 46 131.21 46V52ZM131.082 51.8812C130.889 51.7265 130.706 51.4958 130.587 51.2087C130.475 50.9374 130.461 50.722 130.461 50.64H135.81C135.81 49.3181 135.348 47.9258 134.191 46.9988L131.082 51.8812ZM130.461 50.64C130.461 50.6511 130.461 50.5644 130.514 50.4316C130.568 50.2935 130.643 50.1993 130.69 50.1542L134.154 54.7258C135.271 53.6606 135.81 52.1999 135.81 50.64H130.461ZM130.69 50.1542C130.706 50.1387 130.725 50.1247 130.742 50.1137C130.751 50.1084 130.758 50.1046 130.763 50.1021C130.769 50.0995 130.771 50.0985 130.771 50.0985C130.771 50.0986 130.756 50.1039 130.724 50.1092C130.691 50.1146 130.64 50.12 130.568 50.12V56.12C131.819 56.12 133.095 55.7354 134.154 54.7258L130.69 50.1542ZM130.568 50.12H120.299V56.12H130.568V50.12ZM120.299 50.12C119.184 50.12 118.12 50.5537 117.268 51.4416L120.907 55.8384C120.835 55.9134 120.728 55.9948 120.595 56.0522C120.464 56.1086 120.356 56.12 120.299 56.12V50.12ZM117.197 51.5187C116.404 52.4073 116.01 53.5084 115.846 54.566L121.116 55.594C121.129 55.5083 121.139 55.4997 121.122 55.541C121.103 55.5872 121.058 55.6712 120.978 55.7613L117.197 51.5187ZM115.85 54.5451L114.887 60.5051L120.15 61.5749L121.112 55.6149L115.85 54.5451ZM117.518 64.04H126.61V58.04H117.518V64.04ZM126.61 64.04C126.738 64.04 126.765 64.0559 126.722 64.0426C126.672 64.0274 126.54 63.976 126.385 63.839L129.688 59.121C128.711 58.2593 127.562 58.04 126.61 58.04V64.04ZM126.482 63.9212C126.29 63.7665 126.107 63.5358 125.987 63.2487C125.875 62.9774 125.862 62.762 125.862 62.68H131.21C131.21 61.3582 130.748 59.9658 129.591 59.0388L126.482 63.9212ZM125.862 62.68C125.862 62.6911 125.862 62.6044 125.914 62.4716C125.969 62.3335 126.044 62.2393 126.091 62.1942L129.555 66.7658C130.672 65.7006 131.21 64.2399 131.21 62.68H125.862ZM126.091 62.1942C126.107 62.1787 126.126 62.1647 126.143 62.1537C126.151 62.1484 126.159 62.1446 126.164 62.142C126.169 62.1395 126.172 62.1385 126.172 62.1385C126.172 62.1386 126.157 62.1439 126.125 62.1492C126.092 62.1546 126.041 62.16 125.969 62.16V68.16C127.219 68.16 128.496 67.7754 129.555 66.7658L126.091 62.1942ZM125.969 62.16H116.877V68.16H125.969V62.16ZM114.243 64.6434L112.709 74.4834L117.977 75.5166L119.511 65.6766L114.243 64.6434ZM112.714 74.4537C112.712 74.4671 112.711 74.4664 112.715 74.4554C112.718 74.444 112.724 74.4282 112.734 74.411C112.744 74.3938 112.752 74.3817 112.757 74.3756C112.762 74.3697 112.76 74.3738 112.746 74.3861L116.015 79.1339C117.052 78.2355 117.732 77.0019 117.973 75.5463L112.714 74.4537ZM112.76 74.3737C112.758 74.3746 112.758 74.3754 112.76 74.3737C112.761 74.3729 112.759 74.3748 112.751 74.3776C112.737 74.3827 112.68 74.4 112.562 74.4V80.4C113.777 80.4 114.974 80.0244 116.001 79.1463L112.76 74.3737ZM134.454 76.92L132.702 79.1871L132.742 79.2257L132.783 79.2626L134.454 76.92ZM133.955 75L136.577 75.5883L136.582 75.5552L136.588 75.5219L133.955 75ZM137.734 51L140.367 51.5219L140.375 51.4732L140.382 51.4243L137.734 51ZM142.476 51L139.882 50.2724L139.859 50.3745L139.843 50.4781L142.476 51ZM138.697 75L141.329 75.5274L141.33 75.5219L138.697 75ZM135.916 74.4C135.808 74.4 135.792 74.3855 135.838 74.4008C135.892 74.4184 136.001 74.467 136.124 74.5774L132.783 79.2626C133.758 80.137 134.904 80.4 135.916 80.4V74.4ZM136.205 74.6529C136.319 74.7638 136.434 74.9266 136.51 75.1282C136.584 75.3219 136.593 75.4697 136.593 75.52H131.245C131.245 76.8709 131.692 78.2048 132.702 79.1871L136.205 74.6529ZM136.593 75.52C136.593 75.4736 136.595 75.4554 136.594 75.4601C136.594 75.4632 136.593 75.4754 136.59 75.4955C136.589 75.5154 136.584 75.547 136.577 75.5883L131.332 74.4117C131.261 74.8156 131.245 75.207 131.245 75.52H136.593ZM136.588 75.5219L140.367 51.5219L135.101 50.4781L131.321 74.4781L136.588 75.5219ZM140.382 51.4243C140.387 51.3794 140.389 51.4122 140.353 51.482C140.337 51.5147 140.316 51.5462 140.295 51.5739C140.274 51.6014 140.256 51.6184 140.246 51.6263L137.005 46.8537C135.905 47.7941 135.274 49.1106 135.087 50.5757L140.382 51.4243ZM140.246 51.6263C140.248 51.6246 140.248 51.6254 140.246 51.6263C140.245 51.6271 140.247 51.6252 140.255 51.6224C140.269 51.6173 140.326 51.6 140.444 51.6V45.6C139.229 45.6 138.032 45.9756 137.005 46.8537L140.246 51.6263ZM140.444 51.6C140.532 51.6 140.539 51.6126 140.491 51.5959C140.436 51.5768 140.348 51.5324 140.255 51.4483L143.628 46.7917C142.657 45.9072 141.512 45.6 140.444 45.6V51.6ZM140.255 51.4483C140.135 51.3381 140.01 51.1704 139.926 50.9584C139.846 50.7559 139.838 50.6034 139.838 50.56H145.186C145.186 49.1617 144.711 47.7787 143.628 46.7917L140.255 51.4483ZM139.838 50.56C139.838 50.5853 139.837 50.5754 139.84 50.5384C139.842 50.506 139.851 50.4093 139.882 50.2724L145.07 51.7276C145.172 51.2746 145.186 50.8471 145.186 50.56H139.838ZM139.843 50.4781L136.064 74.4781L141.33 75.5219L145.109 51.5219L139.843 50.4781ZM136.065 74.4726C136.061 74.4959 136.058 74.4997 136.062 74.489C136.065 74.4777 136.073 74.4569 136.088 74.431C136.102 74.4049 136.118 74.3813 136.134 74.362C136.142 74.3528 136.148 74.3458 136.154 74.3409C136.158 74.336 136.162 74.3338 136.162 74.3338L139.307 79.1862C140.416 78.2814 141.096 76.9982 141.329 75.5274L136.065 74.4726ZM136.162 74.3338C136.126 74.3622 136.08 74.4 135.916 74.4V80.4C137.131 80.4 138.296 80.0111 139.307 79.1862L136.162 74.3338ZM144.704 70.92L142.071 70.398L142.066 70.425L142.063 70.4521L144.704 70.92ZM147.842 51L145.209 50.4726L145.208 50.478L147.842 51ZM152.049 49.12L150.297 51.3871L150.329 51.4183L150.362 51.4483L152.049 49.12ZM152.584 51L149.99 50.2724L149.967 50.3744L149.951 50.478L152.584 51ZM149.446 70.92L152.068 71.5083L152.074 71.4753L152.079 71.442L149.446 70.92ZM163.494 73.32L161.843 75.679L161.891 75.7213L161.94 75.7612L163.494 73.32ZM149.446 74C148.244 74 147.76 73.6904 147.585 73.5222L144.105 78.0778C145.593 79.5096 147.51 80 149.446 80V74ZM147.585 73.5222C147.472 73.4137 147.271 73.1833 147.271 72.36H141.923C141.923 74.5234 142.554 76.5863 144.105 78.0778L147.585 73.5222ZM147.271 72.36C147.271 72.0822 147.293 71.7596 147.345 71.3879L142.063 70.4521C141.973 71.0938 141.923 71.7312 141.923 72.36H147.271ZM147.337 71.442L150.475 51.522L145.208 50.478L142.071 70.398L147.337 71.442ZM150.474 51.5274C150.481 51.4868 150.486 51.466 150.488 51.461C150.49 51.4565 150.487 51.4649 150.478 51.482C150.47 51.4994 150.458 51.5197 150.443 51.5399C150.427 51.5601 150.413 51.5743 150.403 51.5826L147.062 46.8974C146.024 47.8295 145.429 49.0951 145.209 50.4726L150.474 51.5274ZM150.403 51.5826C150.39 51.5948 150.376 51.6055 150.361 51.6135C150.348 51.6214 150.342 51.6236 150.345 51.6224C150.351 51.6202 150.412 51.6 150.551 51.6V45.6C149.339 45.6 148.105 45.961 147.062 46.8974L150.403 51.5826ZM150.551 51.6C150.663 51.6 150.673 51.6157 150.616 51.5959C150.55 51.573 150.427 51.5137 150.297 51.3871L153.8 46.8529C152.807 45.8867 151.604 45.6 150.551 45.6V51.6ZM150.362 51.4483C150.242 51.3381 150.117 51.1704 150.033 50.9584C149.953 50.7559 149.945 50.6034 149.945 50.56H155.293C155.293 49.1617 154.818 47.7787 153.735 46.7917L150.362 51.4483ZM149.945 50.56C149.945 50.5853 149.944 50.5754 149.947 50.5384C149.95 50.506 149.959 50.4093 149.99 50.2724L155.179 51.7276C155.279 51.2746 155.293 50.8471 155.293 50.56H149.945ZM149.951 50.478L146.813 70.398L152.079 71.442L155.217 51.522L149.951 50.478ZM146.824 70.3317C146.749 70.7517 146.736 71.1678 146.736 71.48H152.085C152.085 71.4475 152.085 71.4223 152.085 71.4037C152.086 71.385 152.086 71.3754 152.087 71.3737C152.087 71.3718 152.086 71.3819 152.084 71.4021C152.083 71.4125 152.081 71.4265 152.078 71.4438C152.076 71.4611 152.073 71.4828 152.068 71.5083L146.824 70.3317ZM146.736 71.48C146.736 72.4533 146.974 73.6699 147.841 74.6413L151.622 70.3987C152.06 70.8901 152.085 71.4134 152.085 71.48H146.736ZM147.841 74.6413C148.706 75.6128 149.791 75.88 150.658 75.88V69.88C150.718 69.88 151.184 69.9072 151.622 70.3987L147.841 74.6413ZM150.658 75.88H162.068V69.88H150.658V75.88ZM162.068 75.88C162.196 75.88 162.222 75.8959 162.179 75.8826C162.13 75.8674 161.998 75.816 161.843 75.679L165.147 70.961C164.169 70.0993 163.019 69.88 162.068 69.88V75.88ZM161.94 75.7612C161.747 75.6065 161.565 75.3758 161.446 75.0887C161.333 74.8174 161.319 74.602 161.319 74.52H166.668C166.668 73.1982 166.206 71.8058 165.049 70.8788L161.94 75.7612ZM161.319 74.52C161.319 74.5311 161.319 74.4444 161.372 74.3116C161.426 74.1735 161.501 74.0793 161.548 74.0342L165.012 78.6058C166.129 77.5406 166.668 76.0799 166.668 74.52H161.319ZM161.548 74.0342C161.564 74.0187 161.583 74.0047 161.601 73.9937C161.609 73.9884 161.616 73.9846 161.621 73.982C161.627 73.9795 161.629 73.9785 161.629 73.9785C161.629 73.9786 161.615 73.9839 161.582 73.9892C161.549 73.9946 161.498 74 161.426 74V80C162.677 80 163.953 79.6154 165.012 78.6058L161.548 74.0342ZM161.426 74H149.446V80H161.426V74ZM167.683 76.92L165.931 79.1871L165.971 79.2257L166.012 79.2626L167.683 76.92ZM167.184 75L169.805 75.5883L169.812 75.5525L169.818 75.5164L167.184 75ZM169.751 58.52L167.119 57.9876L167.118 57.9956L167.116 58.0036L169.751 58.52ZM183.585 49.68L182.187 52.237L182.197 52.2448L182.209 52.2525L183.585 49.68ZM186.188 52.84L183.833 54.2623L185.675 58.0994L188.212 54.7997L186.188 52.84ZM189.682 49.72L190.878 52.4033L190.895 52.3934L190.913 52.3833L189.682 49.72ZM199.238 50.72L197.417 52.917L197.426 52.9267L197.436 52.9363L199.238 50.72ZM201.092 58.52L203.726 59.0364L203.728 59.0248L203.73 59.0132L201.092 58.52ZM198.525 75L201.154 75.5463L201.156 75.5314L201.159 75.5164L198.525 75ZM197.562 76.76L199.183 79.1463L199.19 79.1401L199.197 79.1339L197.562 76.76ZM194.282 76.92L192.53 79.1871L192.569 79.2257L192.61 79.2626L194.282 76.92ZM193.783 75L196.404 75.5883L196.41 75.5525L196.417 75.5164L193.783 75ZM196.35 58.52L193.727 57.9317L193.721 57.9675L193.715 58.0036L196.35 58.52ZM195.672 53.68L193.865 55.8915L193.888 55.9149L193.911 55.9377L195.672 53.68ZM187.757 58.52L185.128 57.9646L185.126 57.984L185.122 58.0036L187.757 58.52ZM185.19 75L187.822 75.5274L187.824 75.5164L185.19 75ZM180.982 76.92L179.162 79.1184L179.234 79.1936L179.311 79.2626L180.982 76.92ZM180.519 75L183.14 75.5883L183.147 75.5525L183.153 75.5164L180.519 75ZM183.086 58.52L180.469 57.902L180.459 57.9526L180.451 58.0036L183.086 58.52ZM182.302 53.88L180.339 55.9182L180.357 55.9398L180.375 55.9609L182.302 53.88ZM176.169 54.16L178.031 56.3127L178.045 56.2971L178.059 56.2813L176.169 54.16ZM174.493 58.52L177.127 59.0364L177.129 59.0258L174.493 58.52ZM171.926 75L174.555 75.5463L174.557 75.5314L174.56 75.5164L171.926 75ZM170.963 76.76L172.584 79.1463L172.591 79.1401L172.598 79.1339L170.963 76.76ZM169.145 74.4C169.037 74.4 169.02 74.3855 169.066 74.4008C169.12 74.4184 169.23 74.467 169.353 74.5774L166.012 79.2626C166.987 80.137 168.133 80.4 169.145 80.4V74.4ZM169.434 74.6529C169.548 74.7638 169.663 74.9266 169.739 75.1282C169.813 75.3219 169.822 75.4697 169.822 75.52H164.474C164.474 76.8709 164.92 78.2048 165.931 79.1871L169.434 74.6529ZM169.822 75.52C169.822 75.4736 169.823 75.4554 169.823 75.4601C169.822 75.4632 169.821 75.4754 169.82 75.4955C169.817 75.5154 169.813 75.547 169.805 75.5883L164.561 74.4117C164.489 74.8156 164.474 75.207 164.474 75.52H169.822ZM169.818 75.5164L172.385 59.0364L167.116 58.0036L164.549 74.4836L169.818 75.5164ZM172.382 59.0524C172.828 56.2791 173.732 54.5074 174.885 53.3912L171.391 48.8488C169.073 51.0925 167.719 54.2542 167.119 57.9876L172.382 59.0524ZM174.885 53.3912C176.024 52.288 177.646 51.6 180.02 51.6V45.6C176.688 45.6 173.722 46.592 171.391 48.8488L174.885 53.3912ZM180.02 51.6C180.9 51.6 181.597 51.8311 182.187 52.237L184.984 47.123C183.481 46.0889 181.801 45.6 180.02 45.6V51.6ZM182.209 52.2525C182.816 52.6612 183.367 53.2898 183.833 54.2623L188.542 51.4177C187.678 49.6168 186.493 48.1388 184.961 47.1075L182.209 52.2525ZM188.212 54.7997C189.054 53.7052 189.945 52.9265 190.878 52.4033L188.486 47.0367C186.851 47.9535 185.413 49.2548 184.163 50.8803L188.212 54.7997ZM190.913 52.3833C191.835 51.8467 192.746 51.6 193.676 51.6V45.6C191.847 45.6 190.096 46.0999 188.451 47.0567L190.913 52.3833ZM193.676 51.6C195.544 51.6 196.681 52.1491 197.417 52.917L201.058 48.523C199.085 46.4642 196.513 45.6 193.676 45.6V51.6ZM197.436 52.9363C198.141 53.6585 198.596 54.6895 198.596 56.4H203.944C203.944 53.3105 203.044 50.5548 201.039 48.5037L197.436 52.9363ZM198.596 56.4C198.596 56.8052 198.556 57.3412 198.454 58.0268L203.73 59.0132C203.865 58.0988 203.944 57.2215 203.944 56.4H198.596ZM198.457 58.0036L195.89 74.4836L201.159 75.5164L203.726 59.0364L198.457 58.0036ZM195.895 74.4537C195.893 74.4671 195.892 74.4664 195.895 74.4554C195.9 74.444 195.906 74.4282 195.916 74.411C195.925 74.3938 195.934 74.3817 195.939 74.3756C195.943 74.3697 195.941 74.3738 195.926 74.3861L199.197 79.1339C200.233 78.2355 200.914 77.0019 201.154 75.5463L195.895 74.4537ZM195.941 74.3737C195.939 74.3746 195.939 74.3754 195.941 74.3737C195.942 74.3729 195.94 74.3748 195.933 74.3776C195.918 74.3827 195.861 74.4 195.744 74.4V80.4C196.959 80.4 198.155 80.0244 199.183 79.1463L195.941 74.3737ZM195.744 74.4C195.636 74.4 195.619 74.3855 195.665 74.4008C195.719 74.4184 195.829 74.467 195.952 74.5774L192.61 79.2626C193.586 80.137 194.732 80.4 195.744 80.4V74.4ZM196.033 74.6529C196.147 74.7638 196.262 74.9266 196.338 75.1282C196.412 75.3219 196.421 75.4697 196.421 75.52H191.073C191.073 76.8709 191.519 78.2048 192.53 79.1871L196.033 74.6529ZM196.421 75.52C196.421 75.4736 196.422 75.4554 196.422 75.4601C196.421 75.4632 196.42 75.4754 196.418 75.4955C196.416 75.5154 196.412 75.547 196.404 75.5883L191.16 74.4117C191.088 74.8156 191.073 75.207 191.073 75.52H196.421ZM196.417 75.5164L198.984 59.0364L193.715 58.0036L191.148 74.4836L196.417 75.5164ZM198.971 59.1083C199.128 58.2301 199.202 57.3251 199.202 56.4H193.854C193.854 56.9682 193.808 57.4766 193.727 57.9317L198.971 59.1083ZM199.202 56.4C199.202 54.6982 198.815 52.7784 197.433 51.4223L193.911 55.9377C193.865 55.8926 193.831 55.8459 193.809 55.808C193.788 55.7716 193.785 55.7569 193.792 55.7785C193.808 55.8304 193.854 56.0158 193.854 56.4H199.202ZM197.479 51.4685C196.201 50.1539 194.516 49.8 192.998 49.8V55.8C193.423 55.8 193.683 55.8527 193.823 55.8987C193.954 55.9418 193.936 55.964 193.865 55.8915L197.479 51.4685ZM192.998 49.8C190.994 49.8 189.161 50.545 187.71 52.1306L191.44 56.4294C191.796 56.0416 192.245 55.8 192.998 55.8V49.8ZM187.71 52.1306C186.302 53.6678 185.507 55.712 185.128 57.9646L190.385 59.0754C190.624 57.648 191.041 56.8655 191.44 56.4294L187.71 52.1306ZM185.122 58.0036L182.555 74.4836L187.824 75.5164L190.391 59.0364L185.122 58.0036ZM182.557 74.4726C182.552 74.5046 182.548 74.5168 182.549 74.5138C182.549 74.5104 182.555 74.4956 182.566 74.4738C182.578 74.4518 182.592 74.4296 182.608 74.4096C182.624 74.3898 182.637 74.3781 182.641 74.3737L185.883 79.1463C186.958 78.227 187.596 76.9516 187.822 75.5274L182.557 74.4726ZM182.641 74.3737C182.639 74.3746 182.639 74.3754 182.641 74.3737C182.643 74.3729 182.64 74.3748 182.633 74.3776C182.618 74.3827 182.562 74.4 182.444 74.4V80.4C183.659 80.4 184.855 80.0244 185.883 79.1463L182.641 74.3737ZM182.444 74.4C182.336 74.4 182.319 74.3855 182.366 74.4008C182.419 74.4184 182.53 74.467 182.653 74.5774L179.311 79.2626C180.286 80.137 181.432 80.4 182.444 80.4V74.4ZM182.802 74.7216C182.921 74.846 183.025 75.0114 183.09 75.1958C183.153 75.3709 183.157 75.4945 183.157 75.52H177.809C177.809 76.8022 178.2 78.1161 179.162 79.1184L182.802 74.7216ZM183.157 75.52C183.157 75.4736 183.158 75.4554 183.158 75.4601C183.157 75.4632 183.156 75.4754 183.155 75.4955C183.152 75.5154 183.148 75.547 183.14 75.5883L177.896 74.4117C177.824 74.8156 177.809 75.207 177.809 75.52H183.157ZM183.153 75.5164L185.72 59.0364L180.451 58.0036L177.884 74.4836L183.153 75.5164ZM185.702 59.138C185.839 58.4124 185.903 57.671 185.903 56.92H180.554C180.554 57.289 180.522 57.6143 180.469 57.902L185.702 59.138ZM185.903 56.92C185.903 55.0839 185.459 53.2336 184.228 51.7991L180.375 55.9609C180.38 55.9664 180.554 56.1428 180.554 56.92H185.903ZM184.264 51.8418C183.021 50.3362 181.345 49.8 179.699 49.8V55.8C180.023 55.8 180.201 55.8519 180.277 55.8837C180.314 55.899 180.33 55.9105 180.333 55.913C180.336 55.9151 180.337 55.9157 180.339 55.9182L184.264 51.8418ZM179.699 49.8C177.7 49.8 175.744 50.3942 174.277 52.0387L178.059 56.2813C178.21 56.1125 178.606 55.8 179.699 55.8V49.8ZM174.306 52.0073C172.906 53.5309 172.207 55.721 171.857 58.0142L177.129 59.0258C177.397 57.2656 177.813 56.5491 178.031 56.3127L174.306 52.0073ZM171.858 58.0036L169.291 74.4836L174.56 75.5164L177.127 59.0364L171.858 58.0036ZM169.296 74.4537C169.294 74.4671 169.293 74.4664 169.296 74.4554C169.301 74.444 169.307 74.4282 169.317 74.411C169.326 74.3938 169.335 74.3817 169.34 74.3756C169.344 74.3697 169.342 74.3738 169.327 74.3861L172.598 79.1339C173.634 78.2355 174.315 77.0019 174.555 75.5463L169.296 74.4537ZM169.342 74.3737C169.34 74.3746 169.34 74.3754 169.342 74.3737C169.344 74.3729 169.341 74.3748 169.334 74.3776C169.319 74.3827 169.262 74.4 169.145 74.4V80.4C170.36 80.4 171.556 80.0244 172.584 79.1463L169.342 74.3737ZM208.865 76.16L207.684 78.8515L207.698 78.8598L207.713 78.8678L208.865 76.16ZM205.264 72.6L202.984 74.1698L202.993 74.1859L203.002 74.202L205.264 72.6ZM204.23 64.88L206.855 65.4501L206.858 65.4289L206.862 65.4077L204.23 64.88ZM210.648 49.12L208.896 51.3871L208.928 51.4183L208.961 51.4483L210.648 49.12ZM211.182 51L208.588 50.2724L208.565 50.3738L208.549 50.4767L211.182 51ZM208.972 65L206.339 64.4767L206.338 64.4786L208.972 65ZM219.312 71.08L221.15 73.2589L221.151 73.2579L219.312 71.08ZM221.95 65L219.317 64.4767L219.316 64.4872L221.95 65ZM224.161 51L226.794 51.5233L226.8 51.4816L226.806 51.4396L224.161 51ZM225.052 49.28L226.673 51.6663L226.68 51.6601L226.687 51.6539L225.052 49.28ZM228.404 49.12L226.652 51.3871L226.692 51.4257L226.733 51.4626L228.404 49.12ZM228.903 51L226.308 50.2724L226.285 50.378L226.268 50.4853L228.903 51ZM226.693 65.24L224.058 64.7253V64.7276L226.693 65.24ZM222.592 74.32L220.842 72.0513L220.836 72.0567L220.831 72.0623L222.592 74.32ZM214.285 74.4C212.533 74.4 211.134 74.0506 210.016 73.4522L207.713 78.8678C209.685 79.9227 211.899 80.4 214.285 80.4V74.4ZM210.046 73.4685C208.909 72.8407 208.097 72.015 207.524 70.998L203.002 74.202C204.141 76.225 205.73 77.7727 207.684 78.8515L210.046 73.4685ZM207.542 71.0302C206.999 70.038 206.69 68.8349 206.69 67.32H201.342C201.342 69.8051 201.864 72.122 202.984 74.1698L207.542 71.0302ZM206.69 67.32C206.69 66.7211 206.743 66.0987 206.855 65.4501L201.604 64.3099C201.431 65.3146 201.342 66.3189 201.342 67.32H206.69ZM206.862 65.4077L209.073 51.5277L203.807 50.4723L201.597 64.3523L206.862 65.4077ZM209.073 51.5277C209.079 51.4871 209.085 51.466 209.087 51.4611C209.088 51.4565 209.086 51.4649 209.077 51.482C209.068 51.4994 209.056 51.5197 209.04 51.5399C209.025 51.5601 209.011 51.5743 209.002 51.5826L205.66 46.8974C204.622 47.8295 204.026 49.0948 203.807 50.4723L209.073 51.5277ZM209.002 51.5826C208.992 51.5909 208.981 51.5997 208.968 51.6071C208.963 51.6105 208.958 51.6131 208.954 51.6149C208.95 51.6167 208.949 51.6174 208.949 51.6173C208.949 51.6172 208.96 51.613 208.986 51.6088C209.013 51.6045 209.055 51.6 209.114 51.6V45.6C207.902 45.6 206.689 45.9748 205.66 46.8974L209.002 51.5826ZM209.114 51.6C209.246 51.6 209.271 51.618 209.222 51.6016C209.165 51.5822 209.037 51.5243 208.896 51.3871L212.398 46.8529C211.389 45.8713 210.161 45.6 209.114 45.6V51.6ZM208.961 51.4483C208.84 51.3381 208.715 51.1704 208.631 50.9584C208.551 50.7559 208.544 50.6034 208.544 50.56H213.892C213.892 49.1617 213.416 47.7787 212.333 46.7917L208.961 51.4483ZM208.544 50.56C208.544 50.5853 208.543 50.5754 208.546 50.5384C208.548 50.506 208.557 50.4093 208.588 50.2724L213.776 51.7276C213.877 51.2746 213.892 50.8471 213.892 50.56H208.544ZM208.549 50.4767L206.339 64.4767L211.605 65.5233L213.816 51.5233L208.549 50.4767ZM206.338 64.4786C206.173 65.526 206.084 66.5426 206.084 67.52H211.432C211.432 66.9507 211.485 66.2873 211.605 65.5214L206.338 64.4786ZM206.084 67.52C206.084 69.93 206.667 72.2743 208.287 73.9722C209.873 75.6342 212.002 76.2 214.178 76.2V70.2C212.739 70.2 212.159 69.8192 211.938 69.5878C211.751 69.3923 211.432 68.8966 211.432 67.52H206.084ZM214.178 76.2C216.848 76.2 219.251 75.2747 221.15 73.2589L217.473 68.9011C216.71 69.712 215.689 70.2 214.178 70.2V76.2ZM221.151 73.2579C223.024 71.267 224.108 68.5912 224.584 65.5128L219.316 64.4872C218.983 66.6354 218.309 68.013 217.472 68.9021L221.151 73.2579ZM224.584 65.5233L226.794 51.5233L221.528 50.4767L219.317 64.4767L224.584 65.5233ZM226.806 51.4396C226.808 51.4194 226.805 51.4647 226.767 51.5379C226.728 51.6128 226.685 51.6555 226.673 51.6663L223.431 46.8937C222.357 47.8121 221.709 49.0956 221.515 50.5604L226.806 51.4396ZM226.687 51.6539C226.704 51.6393 226.735 51.6 226.907 51.6V45.6C225.651 45.6 224.446 46.014 223.417 46.9061L226.687 51.6539ZM226.907 51.6C227.018 51.6 227.029 51.6157 226.972 51.5959C226.906 51.573 226.783 51.5137 226.652 51.3871L230.155 46.8529C229.162 45.8867 227.958 45.6 226.907 45.6V51.6ZM226.733 51.4626C226.571 51.3171 226.432 51.1164 226.347 50.8918C226.267 50.6825 226.265 50.5369 226.265 50.52H231.613C231.613 49.1953 231.192 47.7809 230.075 46.7774L226.733 51.4626ZM226.265 50.52C226.265 50.5687 226.263 50.5755 226.265 50.5509C226.266 50.5373 226.268 50.5075 226.274 50.465C226.279 50.4236 226.29 50.357 226.308 50.2724L231.497 51.7276C231.602 51.2537 231.613 50.7947 231.613 50.52H226.265ZM226.268 50.4853L224.058 64.7253L229.327 65.7547L231.537 51.5147L226.268 50.4853ZM224.058 64.7276C223.513 68.2484 222.368 70.5699 220.842 72.0513L224.341 76.5887C227.046 73.9634 228.635 70.2316 229.327 65.7524L224.058 64.7276ZM220.831 72.0623C219.336 73.5299 217.245 74.4 214.285 74.4V80.4C218.217 80.4 221.664 79.2167 224.353 76.5777L220.831 72.0623ZM110.142 96.97L108.391 99.2371L108.431 99.2757L108.472 99.3126L110.142 96.97ZM109.955 96.25L112.577 96.8383L112.584 96.8029L112.589 96.7673L109.955 96.25ZM110.837 90.595L108.204 90.0713L108.203 90.0777L110.837 90.595ZM112.362 87.415L110.705 85.0597L110.7 85.0647L110.694 85.0698L112.362 87.415ZM117.55 86.785L116.401 89.4944L116.425 89.507L116.449 89.5191L117.55 86.785ZM118.82 87.985L116.562 89.5925L116.572 89.6097L116.582 89.6267L118.82 87.985ZM119.208 90.595L121.842 91.1123L121.843 91.1003L121.845 91.0882L119.208 90.595ZM118.325 96.25L120.957 96.7774L120.959 96.7673L118.325 96.25ZM116.734 96.955L114.982 99.2221L115.014 99.2533L115.047 99.2833L116.734 96.955ZM116.547 96.25L119.141 96.9776L119.164 96.875L119.18 96.7709L116.547 96.25ZM117.443 90.55L114.81 90.0226L114.809 90.0291L117.443 90.55ZM111.733 96.25L114.363 96.7963L114.365 96.7836L114.366 96.7709L111.733 96.25ZM111.372 96.91L112.993 99.2963L113 99.2901L113.007 99.2839L111.372 96.91ZM110.69 94.15C110.852 94.15 111.329 94.193 111.813 94.6274L108.472 99.3126C109.223 99.987 110.065 100.15 110.69 100.15V94.15ZM111.894 94.7029C112.119 94.9221 112.317 95.2121 112.45 95.5595C112.579 95.899 112.616 96.2114 112.616 96.445H107.267C107.267 97.4292 107.603 98.4714 108.391 99.2371L111.894 94.7029ZM112.616 96.445C112.616 96.4653 112.615 96.5074 112.611 96.5663C112.608 96.6229 112.599 96.7178 112.577 96.8383L107.332 95.6617C107.275 95.9822 107.267 96.2653 107.267 96.445H112.616ZM112.589 96.7673L113.471 91.1123L108.203 90.0777L107.321 95.7327L112.589 96.7673ZM113.471 91.1187C113.61 90.2358 113.865 89.9067 114.029 89.7602L110.694 85.0698C109.271 86.3433 108.511 88.1342 108.204 90.0713L113.471 91.1187ZM114.018 89.7703C114.211 89.5988 114.647 89.35 115.611 89.35V83.35C113.847 83.35 112.117 83.8112 110.705 85.0597L114.018 89.7703ZM115.611 89.35C116.056 89.35 116.293 89.4365 116.401 89.4944L118.698 84.0756C117.719 83.5535 116.663 83.35 115.611 83.35V89.35ZM116.449 89.5191C116.522 89.5562 116.553 89.5837 116.559 89.5897C116.563 89.5933 116.564 89.5943 116.563 89.593C116.561 89.5917 116.561 89.591 116.562 89.5925L121.078 86.3775C120.475 85.3123 119.626 84.5456 118.65 84.0509L116.449 89.5191ZM116.582 89.6267C116.582 89.6279 116.583 89.6287 116.586 89.6403C116.59 89.6542 116.6 89.7028 116.6 89.8H121.949C121.949 88.5937 121.677 87.4044 121.058 86.3433L116.582 89.6267ZM116.6 89.8C116.6 89.8219 116.598 89.9162 116.57 90.1018L121.845 91.0882C121.907 90.6738 121.949 90.2381 121.949 89.8H116.6ZM116.573 90.0777L115.691 95.7327L120.959 96.7673L121.842 91.1123L116.573 90.0777ZM115.693 95.7226C115.72 95.5499 115.781 95.3299 115.902 95.0988C116.026 94.8644 116.185 94.6704 116.357 94.5237L119.598 99.2963C120.362 98.6437 120.805 97.7349 120.957 96.7774L115.693 95.7226ZM116.357 94.5237C116.513 94.3902 116.688 94.2904 116.866 94.2276C117.041 94.166 117.19 94.15 117.296 94.15V100.15C118.065 100.15 118.883 99.9077 119.598 99.2963L116.357 94.5237ZM117.296 94.15C117.514 94.15 117.973 94.2188 118.42 94.6267L115.047 99.2833C115.78 99.9512 116.614 100.15 117.296 100.15V94.15ZM118.486 94.6879C118.711 94.9071 118.909 95.1971 119.042 95.5445C119.171 95.884 119.208 96.1964 119.208 96.43H113.859C113.859 97.4142 114.195 98.4564 114.982 99.2221L118.486 94.6879ZM119.208 96.43C119.208 96.448 119.208 96.4995 119.201 96.5741C119.197 96.6392 119.183 96.787 119.141 96.9776L113.953 95.5224C113.862 95.9296 113.859 96.2886 113.859 96.43H119.208ZM119.18 96.7709L120.076 91.0709L114.809 90.0291L113.914 95.7291L119.18 96.7709ZM120.075 91.0774C120.135 90.6999 120.184 90.2756 120.184 89.845H114.835C114.835 89.8122 114.837 89.8101 114.834 89.8464C114.83 89.8812 114.824 89.9388 114.81 90.0226L120.075 91.0774ZM120.184 89.845C120.184 88.5816 119.821 87.1396 118.704 86.0979C117.681 85.1445 116.441 84.925 115.45 84.925V90.925C115.833 90.925 115.621 91.0255 115.285 90.7121C115.104 90.5427 114.973 90.3285 114.899 90.1217C114.832 89.9332 114.835 89.8197 114.835 89.845H120.184ZM115.45 84.925C114.202 84.925 112.913 85.292 111.839 86.2953L115.264 90.9047C115.245 90.9214 115.227 90.9349 115.211 90.9444C115.196 90.9538 115.189 90.9557 115.195 90.9536C115.208 90.9491 115.284 90.925 115.45 90.925V84.925ZM111.839 86.2953C110.77 87.2958 110.213 88.6456 109.996 90.0286L115.262 91.0714C115.289 90.9034 115.32 90.836 115.322 90.8315C115.323 90.8294 115.318 90.8391 115.307 90.8556C115.295 90.8722 115.28 90.8894 115.264 90.9047L111.839 86.2953ZM109.996 90.0286L109.1 95.7291L114.366 96.7709L115.262 91.0714L109.996 90.0286ZM109.104 95.7037C109.138 95.4999 109.208 95.272 109.33 95.0485C109.452 94.8255 109.598 94.6562 109.737 94.5361L113.007 99.2839C113.717 98.6688 114.197 97.8019 114.363 96.7963L109.104 95.7037ZM109.752 94.5237C109.908 94.3902 110.082 94.2904 110.261 94.2276C110.436 94.166 110.585 94.15 110.69 94.15V100.15C111.46 100.15 112.278 99.9077 112.993 99.2963L109.752 94.5237ZM120.001 96.955L118.249 99.2221L118.289 99.2607L118.33 99.2976L120.001 96.955ZM119.814 96.235L122.435 96.8233L122.441 96.7909L122.447 96.7583L119.814 96.235ZM120.643 90.985L123.276 91.5083L123.277 91.4974L120.643 90.985ZM122.247 87.55L123.968 89.8466L123.969 89.8447L122.247 87.55ZM128.157 87.34L126.336 89.5373L126.35 89.5522L126.364 89.5668L128.157 87.34ZM129.04 90.985L126.408 90.4483L126.406 90.4617L129.04 90.985ZM128.211 96.235L130.843 96.7624L130.844 96.7583L128.211 96.235ZM126.619 96.94L124.868 99.2071L124.9 99.2383L124.933 99.2683L126.619 96.94ZM126.432 96.235L129.026 96.9626L129.048 96.8623L129.064 96.7605L126.432 96.235ZM126.82 93.79L129.452 94.3155L130.011 90.79H126.82V93.79ZM121.98 93.79V90.79H119.739L119.347 93.2645L121.98 93.79ZM121.592 96.235L124.221 96.7813L124.222 96.7709L124.224 96.7605L121.592 96.235ZM121.231 96.895L122.852 99.2813L122.859 99.2751L122.866 99.2689L121.231 96.895ZM127.061 92.245V95.245H129.313L129.696 92.7547L127.061 92.245ZM127.261 90.94L129.896 91.4497L129.897 91.4415L129.899 91.4332L127.261 90.94ZM126.847 88.435L125.037 90.644L125.065 90.6725L125.093 90.7001L126.847 88.435ZM122.421 90.94L119.789 90.4111L119.787 90.4207L119.785 90.4303L122.421 90.94ZM122.22 92.245L119.585 91.7353L119.045 95.245H122.22V92.245ZM120.549 94.135C120.71 94.135 121.187 94.178 121.671 94.6124L118.33 99.2976C119.082 99.972 119.923 100.135 120.549 100.135V94.135ZM121.752 94.6879C121.977 94.9071 122.175 95.1971 122.308 95.5445C122.438 95.884 122.474 96.1964 122.474 96.43H117.126C117.126 97.4142 117.461 98.4564 118.249 99.2221L121.752 94.6879ZM122.474 96.43C122.474 96.4503 122.474 96.4924 122.469 96.5513C122.466 96.6079 122.457 96.7028 122.435 96.8233L117.191 95.6467C117.134 95.9672 117.126 96.2503 117.126 96.43H122.474ZM122.447 96.7583L123.276 91.5083L118.01 90.4617L117.181 95.7117L122.447 96.7583ZM123.277 91.4974C123.428 90.5218 123.72 90.0801 123.968 89.8466L120.526 85.2534C119.098 86.5999 118.321 88.4482 118.008 90.4726L123.277 91.4974ZM123.969 89.8447C124.239 89.5899 124.68 89.35 125.523 89.35V83.35C123.691 83.35 121.949 83.9101 120.524 85.2553L123.969 89.8447ZM125.523 89.35C126.179 89.35 126.332 89.5332 126.336 89.5373L129.977 85.1427C128.716 83.8268 127.112 83.35 125.523 83.35V89.35ZM126.364 89.5668C126.389 89.5908 126.393 89.6003 126.399 89.6199C126.411 89.6502 126.446 89.7635 126.446 90.01H131.794C131.794 88.1849 131.247 86.4275 129.949 85.1132L126.364 89.5668ZM126.446 90.01C126.446 90.1416 126.434 90.2869 126.408 90.4483L131.67 91.5217C131.751 91.0231 131.794 90.5184 131.794 90.01H126.446ZM126.406 90.4617L125.577 95.7117L130.844 96.7583L131.673 91.5083L126.406 90.4617ZM125.577 95.7076C125.605 95.5349 125.666 95.3149 125.788 95.0838C125.911 94.8494 126.07 94.6554 126.241 94.5087L129.483 99.2813C130.246 98.6287 130.69 97.7199 130.843 96.7624L125.577 95.7076ZM126.241 94.5087C126.398 94.3752 126.572 94.2754 126.751 94.2126C126.926 94.151 127.076 94.135 127.181 94.135V100.135C127.95 100.135 128.768 99.8927 129.483 99.2813L126.241 94.5087ZM127.181 94.135C127.399 94.135 127.858 94.2038 128.305 94.6117L124.933 99.2683C125.666 99.9362 126.499 100.135 127.181 100.135V94.135ZM128.37 94.6729C128.596 94.8921 128.794 95.1821 128.926 95.5295C129.056 95.869 129.093 96.1814 129.093 96.415H123.745C123.745 97.3992 124.08 98.4414 124.868 99.2071L128.37 94.6729ZM129.093 96.415C129.093 96.433 129.092 96.4845 129.087 96.5591C129.082 96.6242 129.069 96.772 129.026 96.9626L123.837 95.5074C123.746 95.9146 123.745 96.2736 123.745 96.415H129.093ZM129.064 96.7605L129.452 94.3155L124.187 93.2645L123.799 95.7095L129.064 96.7605ZM126.82 90.79H121.98V96.79H126.82V90.79ZM119.347 93.2645L118.959 95.7095L124.224 96.7605L124.612 94.3155L119.347 93.2645ZM118.962 95.6887C118.995 95.4849 119.067 95.257 119.189 95.0335C119.311 94.8105 119.457 94.6412 119.595 94.5211L122.866 99.2689C123.575 98.6538 124.055 97.7869 124.221 96.7813L118.962 95.6887ZM119.61 94.5087C119.766 94.3752 119.94 94.2754 120.119 94.2126C120.294 94.151 120.444 94.135 120.549 94.135V100.135C121.318 100.135 122.136 99.8927 122.852 99.2813L119.61 94.5087ZM129.696 92.7547L129.896 91.4497L124.625 90.4303L124.425 91.7353L129.696 92.7547ZM129.899 91.4332C129.968 90.9626 130.029 90.4446 130.029 89.965H124.681C124.681 89.9385 124.682 89.9638 124.673 90.06C124.664 90.1508 124.649 90.2779 124.623 90.4468L129.899 91.4332ZM130.029 89.965C130.029 88.7433 129.718 87.2588 128.6 86.1699L125.093 90.7001C124.897 90.5097 124.78 90.2882 124.722 90.1123C124.67 89.956 124.681 89.886 124.681 89.965H130.029ZM128.655 86.226C127.627 85.165 126.333 84.925 125.322 84.925V90.925C125.478 90.925 125.508 90.9456 125.453 90.9274C125.389 90.906 125.221 90.8336 125.037 90.644L128.655 86.226ZM125.322 84.925C124.001 84.925 122.653 85.3523 121.57 86.4778C120.523 87.5646 120.013 89.004 119.789 90.4111L125.053 91.4689C125.15 90.8659 125.282 90.7979 125.204 90.8797C125.165 90.9203 125.124 90.9422 125.11 90.9475C125.105 90.9496 125.165 90.925 125.322 90.925V84.925ZM119.785 90.4303L119.585 91.7353L124.855 92.7547L125.056 91.4497L119.785 90.4303ZM122.22 95.245H127.061V89.245H122.22V95.245ZM129.951 96.97L128.201 99.2371L128.24 99.2757L128.281 99.3126L129.951 96.97ZM129.764 96.25L132.387 96.8383L132.393 96.8025L132.399 96.7664L129.764 96.25ZM130.727 90.07L128.096 89.5376L128.095 89.5456L128.093 89.5536L130.727 90.07ZM135.915 86.755L134.516 89.312L134.528 89.3198L134.539 89.3275L135.915 86.755ZM136.891 87.94L134.537 89.3623L136.378 93.1994L138.916 89.8997L136.891 87.94ZM138.201 86.77L139.397 89.4533L139.415 89.4434L139.432 89.4333L138.201 86.77ZM141.785 87.145L139.964 89.342L139.973 89.3517L139.983 89.3613L141.785 87.145ZM142.48 90.07L145.115 90.5864L145.117 90.5748L145.118 90.5632L142.48 90.07ZM141.517 96.25L144.147 96.7963L144.149 96.7814L144.152 96.7664L141.517 96.25ZM141.156 96.91L142.778 99.2963L142.785 99.2901L142.792 99.2839L141.156 96.91ZM139.926 96.97L138.175 99.2371L138.215 99.2757L138.256 99.3126L139.926 96.97ZM139.739 96.25L142.361 96.8383L142.368 96.8025L142.374 96.7664L139.739 96.25ZM140.702 90.07L138.08 89.4817L138.074 89.5175L138.067 89.5536L140.702 90.07ZM140.447 88.255L138.641 90.4665L138.664 90.4899L138.687 90.5127L140.447 88.255ZM137.479 90.07L134.851 89.5146L134.849 89.534L134.845 89.5536L137.479 90.07ZM136.516 96.25L139.15 96.7774L139.151 96.7664L136.516 96.25ZM134.939 96.97L133.119 99.1684L133.192 99.2436L133.268 99.3126L134.939 96.97ZM134.765 96.25L137.387 96.8383L137.394 96.8025L137.4 96.7664L134.765 96.25ZM135.728 90.07L133.111 89.452L133.102 89.5026L133.094 89.5536L135.728 90.07ZM135.433 88.33L133.471 90.3682L133.489 90.3898L133.507 90.4109L135.433 88.33ZM133.134 88.435L134.997 90.5877L135.011 90.5721L135.025 90.5563L133.134 88.435ZM132.505 90.07L135.14 90.5864L135.141 90.5758L132.505 90.07ZM131.543 96.25L134.172 96.7963L134.175 96.7814L134.177 96.7664L131.543 96.25ZM131.182 96.91L132.803 99.2963L132.81 99.2901L132.817 99.2839L131.182 96.91ZM130.5 94.15C130.662 94.15 131.138 94.193 131.623 94.6274L128.281 99.3126C129.032 99.987 129.875 100.15 130.5 100.15V94.15ZM131.703 94.7029C131.928 94.9221 132.126 95.2121 132.259 95.5595C132.389 95.899 132.425 96.2114 132.425 96.445H127.077C127.077 97.4292 127.413 98.4714 128.201 99.2371L131.703 94.7029ZM132.425 96.445C132.425 96.4653 132.425 96.5074 132.421 96.5663C132.417 96.6229 132.408 96.7178 132.387 96.8383L127.143 95.6617C127.086 95.9822 127.077 96.2653 127.077 96.445H132.425ZM132.399 96.7664L133.362 90.5864L128.093 89.5536L127.13 95.7336L132.399 96.7664ZM133.359 90.6024C133.478 89.8625 133.677 89.6324 133.744 89.5662L130.25 85.0238C129.017 86.2176 128.369 87.8375 128.096 89.5376L133.359 90.6024ZM133.744 89.5662C133.8 89.513 133.988 89.35 134.578 89.35V83.35C133.029 83.35 131.497 83.817 130.25 85.0238L133.744 89.5662ZM134.578 89.35C134.612 89.35 134.612 89.3542 134.589 89.3475C134.579 89.3444 134.567 89.3397 134.553 89.333C134.539 89.3263 134.527 89.3189 134.516 89.312L137.313 84.198C136.466 83.6139 135.528 83.35 134.578 83.35V89.35ZM134.539 89.3275C134.53 89.3207 134.52 89.3131 134.511 89.3053C134.503 89.2977 134.497 89.2919 134.496 89.2897C134.492 89.2848 134.508 89.303 134.537 89.3623L139.246 86.5177C138.798 85.5835 138.155 84.7638 137.291 84.1825L134.539 89.3275ZM138.916 89.8997C139.104 89.6552 139.267 89.5265 139.397 89.4533L137.006 84.0867C136.173 84.5535 135.463 85.2048 134.867 85.9803L138.916 89.8997ZM139.432 89.4333C139.553 89.3634 139.632 89.35 139.699 89.35V83.35C138.732 83.35 137.813 83.6166 136.97 84.1067L139.432 89.4333ZM139.699 89.35C139.905 89.35 140.001 89.3812 140.022 89.3893C140.032 89.393 140.027 89.392 140.012 89.3823C139.996 89.3722 139.979 89.3583 139.964 89.342L143.606 84.948C142.479 83.7726 141.066 83.35 139.699 83.35V89.35ZM139.983 89.3613C139.967 89.3449 139.945 89.3186 139.922 89.2829C139.9 89.2472 139.885 89.2127 139.875 89.1851C139.855 89.1279 139.873 89.1415 139.873 89.275H145.221C145.221 87.6855 144.745 86.1132 143.587 84.9287L139.983 89.3613ZM139.873 89.275C139.873 89.2969 139.87 89.3912 139.842 89.5768L145.118 90.5632C145.18 90.1488 145.221 89.7131 145.221 89.275H139.873ZM139.846 89.5536L138.883 95.7336L144.152 96.7664L145.115 90.5864L139.846 89.5536ZM138.888 95.7037C138.921 95.4999 138.993 95.272 139.115 95.0485C139.237 94.8255 139.383 94.6562 139.521 94.5361L142.792 99.2839C143.501 98.6688 143.981 97.8019 144.147 96.7963L138.888 95.7037ZM139.536 94.5237C139.692 94.3902 139.866 94.2904 140.045 94.2276C140.22 94.166 140.37 94.15 140.474 94.15V100.15C141.244 100.15 142.062 99.9077 142.778 99.2963L139.536 94.5237ZM140.474 94.15C140.636 94.15 141.112 94.193 141.597 94.6274L138.256 99.3126C139.007 99.987 139.849 100.15 140.474 100.15V94.15ZM141.678 94.7029C141.903 94.9221 142.101 95.2121 142.234 95.5595C142.364 95.899 142.4 96.2114 142.4 96.445H137.051C137.051 97.4292 137.387 98.4714 138.175 99.2371L141.678 94.7029ZM142.4 96.445C142.4 96.4653 142.4 96.5074 142.395 96.5663C142.392 96.6228 142.383 96.7178 142.361 96.8383L137.117 95.6617C137.06 95.9822 137.051 96.2653 137.051 96.445H142.4ZM142.374 96.7664L143.336 90.5864L138.067 89.5536L137.105 95.7336L142.374 96.7664ZM143.324 90.6583C143.406 90.1968 143.443 89.7335 143.443 89.275H138.094C138.094 89.3765 138.086 89.4432 138.08 89.4817L143.324 90.6583ZM143.443 89.275C143.443 88.3566 143.234 87.0034 142.209 85.9973L138.687 90.5127C138.405 90.2359 138.246 89.9175 138.166 89.666C138.094 89.4346 138.094 89.2825 138.094 89.275H143.443ZM142.255 86.0435C141.334 85.0956 140.205 84.925 139.445 84.925V90.925C139.491 90.925 139.422 90.9318 139.284 90.8862C139.136 90.8377 138.889 90.7224 138.641 90.4665L142.255 86.0435ZM139.445 84.925C138.303 84.925 137.183 85.3617 136.296 86.3306L140.027 90.6294C139.946 90.7184 139.832 90.8051 139.698 90.863C139.569 90.919 139.474 90.925 139.445 90.925V84.925ZM136.296 86.3306C135.453 87.2511 135.037 88.412 134.851 89.5146L140.108 90.6254C140.13 90.4903 140.152 90.4436 140.147 90.4557C140.144 90.4628 140.134 90.485 140.113 90.517C140.093 90.5494 140.064 90.5884 140.027 90.6294L136.296 86.3306ZM134.845 89.5536L133.882 95.7336L139.151 96.7664L140.114 90.5864L134.845 89.5536ZM133.884 95.7226C133.912 95.5499 133.972 95.3299 134.095 95.0988C134.218 94.8644 134.377 94.6704 134.548 94.5237L137.79 99.2963C138.553 98.6437 138.997 97.7349 139.15 96.7774L133.884 95.7226ZM134.548 94.5237C134.705 94.3902 134.879 94.2904 135.058 94.2276C135.233 94.166 135.383 94.15 135.487 94.15V100.15C136.257 100.15 137.074 99.9077 137.79 99.2963L134.548 94.5237ZM135.487 94.15C135.649 94.15 136.125 94.193 136.61 94.6274L133.268 99.3126C134.02 99.987 134.862 100.15 135.487 100.15V94.15ZM136.759 94.7716C136.982 95.0043 137.164 95.2968 137.281 95.6271C137.396 95.948 137.426 96.2362 137.426 96.445H132.077C132.077 97.3605 132.365 98.3828 133.119 99.1684L136.759 94.7716ZM137.426 96.445C137.426 96.4653 137.426 96.5074 137.421 96.5663C137.418 96.6228 137.409 96.7178 137.387 96.8383L132.143 95.6617C132.086 95.9822 132.077 96.2653 132.077 96.445H137.426ZM137.4 96.7664L138.363 90.5864L133.094 89.5536L132.131 95.7336L137.4 96.7664ZM138.345 90.688C138.421 90.2791 138.455 89.871 138.455 89.47H133.107C133.107 89.489 133.106 89.4809 133.111 89.452L138.345 90.688ZM138.455 89.47C138.455 88.4506 138.205 87.2336 137.36 86.2491L133.507 90.4109C133.333 90.2077 133.224 89.9834 133.164 89.7886C133.109 89.6059 133.107 89.4852 133.107 89.47H138.455ZM137.396 86.2918C136.524 85.2362 135.392 84.925 134.457 84.925V90.925C134.426 90.925 134.29 90.9207 134.095 90.84C133.887 90.7535 133.662 90.5993 133.471 90.3682L137.396 86.2918ZM134.457 84.925C133.426 84.925 132.204 85.2359 131.243 86.3137L135.025 90.5563C134.864 90.737 134.691 90.8399 134.561 90.8898C134.444 90.935 134.395 90.925 134.457 90.925V84.925ZM131.272 86.2823C130.377 87.2559 130.026 88.5377 129.869 89.5642L135.141 90.5758C135.157 90.4741 135.172 90.3995 135.186 90.3484C135.198 90.297 135.206 90.2761 135.205 90.2791C135.204 90.2805 135.153 90.4181 134.997 90.5877L131.272 86.2823ZM129.871 89.5536L128.908 95.7336L134.177 96.7664L135.14 90.5864L129.871 89.5536ZM128.914 95.7037C128.947 95.4999 129.018 95.272 129.14 95.0485C129.262 94.8255 129.409 94.6562 129.547 94.5361L132.817 99.2839C133.527 98.6688 134.006 97.8019 134.172 96.7963L128.914 95.7037ZM129.561 94.5237C129.718 94.3902 129.892 94.2904 130.071 94.2276C130.246 94.166 130.395 94.15 130.5 94.15V100.15C131.27 100.15 132.087 99.9077 132.803 99.2963L129.561 94.5237ZM145.849 96.91L145.21 99.8229L145.228 99.8278L145.246 99.8325L145.849 96.91ZM144.258 96.22L142.896 98.8017L142.907 98.8085L142.917 98.8151L144.258 96.22ZM143.349 95.26L140.986 96.6637L140.992 96.6775L140.999 96.6913L143.349 95.26ZM143.55 94.12L145.154 96.52L145.203 96.4791L145.25 96.4358L143.55 94.12ZM144.699 94.225L142.853 96.3951L142.885 96.4296L142.918 96.4628L144.699 94.225ZM149.219 95.17L150.551 97.7713L150.569 97.7595L150.588 97.7473L149.219 95.17ZM149.647 93.445L147.583 95.3521L147.612 95.3916L147.642 95.4299L149.647 93.445ZM147.761 92.53L148.441 89.6281L148.428 89.6247L147.761 92.53ZM144.927 87.925L146.998 89.8221L147.007 89.8107L147.015 89.7991L144.927 87.925ZM146.411 86.77L147.362 89.5741L147.377 89.5676L147.392 89.5608L146.411 86.77ZM150.823 86.845L149.722 89.5787L149.742 89.5888L149.762 89.5986L150.823 86.845ZM152.093 88.105L149.614 89.2284L149.639 89.296L149.666 89.3622L152.093 88.105ZM151.746 89.275L153.122 91.8475L153.143 91.8334L153.163 91.819L151.746 89.275ZM150.97 89.32L149.703 91.9614L149.775 92.0052L149.85 92.0439L150.97 89.32ZM150.689 89.05L152.853 87.2855L152.848 87.2779L152.843 87.2704L150.689 89.05ZM149.754 88.21L148.652 90.9433L148.676 90.9557L148.701 90.9674L149.754 88.21ZM146.384 89.875L144.309 91.7668L144.34 91.8093L144.372 91.8505L146.384 89.875ZM146.999 90.325L145.928 93.0735L145.973 93.0958L146.02 93.1162L146.999 90.325ZM148.269 90.775L149.007 87.8915L148.992 87.8865L148.977 87.8818L148.269 90.775ZM150.342 91.615L149.147 94.2983L149.172 94.3131L149.199 94.3272L150.342 91.615ZM151.371 92.53L149.108 94.1265L149.131 94.1692L149.157 94.2109L151.371 92.53ZM151.184 95.575L153.334 97.3595L153.341 97.3481L153.349 97.3367L151.184 95.575ZM149.794 96.745L150.806 99.5216L150.816 99.5174L150.825 99.513L149.794 96.745ZM147.735 94.15C147.293 94.15 146.867 94.0952 146.454 93.9875L145.246 99.8325C146.062 100.045 146.893 100.15 147.735 100.15V94.15ZM146.489 93.9971C146.067 93.8802 145.783 93.7439 145.601 93.6249L142.917 98.8151C143.625 99.2761 144.403 99.5998 145.21 99.8229L146.489 93.9971ZM145.62 93.6383C145.536 93.5822 145.518 93.5578 145.536 93.5779C145.557 93.5998 145.627 93.6798 145.7 93.8287L140.999 96.6913C141.478 97.6802 142.212 98.3478 142.896 98.8017L145.62 93.6383ZM145.713 93.8563C145.781 94 145.903 94.3219 145.903 94.78H140.554C140.554 95.5381 140.758 96.18 140.986 96.6637L145.713 93.8563ZM145.903 94.78C145.903 95.1324 145.826 95.509 145.657 95.8566C145.495 96.1906 145.294 96.4023 145.154 96.52L141.945 91.72C141.176 92.3674 140.554 93.4218 140.554 94.78H145.903ZM145.25 96.4358C145.125 96.5508 144.953 96.6749 144.733 96.7684C144.51 96.8632 144.275 96.91 144.044 96.91V90.91C143.182 90.91 142.428 91.2696 141.85 91.8042L145.25 96.4358ZM144.044 96.91C143.808 96.91 143.564 96.8558 143.336 96.7462C143.113 96.6392 142.954 96.5029 142.853 96.3951L146.546 92.0549C145.921 91.3852 145.062 90.91 144.044 90.91V96.91ZM142.918 96.4628C143.543 97.0882 144.248 97.6623 145.03 98.0355L147.124 92.5145C147.068 92.4877 146.855 92.3618 146.48 91.9872L142.918 96.4628ZM145.03 98.0355C145.843 98.4235 146.697 98.575 147.534 98.575V92.575C147.267 92.575 147.149 92.5265 147.124 92.5145L145.03 98.0355ZM147.534 98.575C148.506 98.575 149.583 98.3953 150.551 97.7713L147.887 92.5687C147.958 92.5228 147.982 92.5261 147.924 92.5403C147.863 92.555 147.739 92.575 147.534 92.575V98.575ZM150.588 97.7473C151.636 97.0468 152.521 95.7932 152.521 94.06H147.173C147.173 93.7499 147.251 93.3943 147.433 93.0741C147.602 92.7763 147.787 92.6348 147.85 92.5927L150.588 97.7473ZM152.521 94.06C152.521 93.1357 152.244 92.2123 151.652 91.4601L147.642 95.4299C147.497 95.2459 147.372 95.0186 147.286 94.757C147.202 94.498 147.173 94.2567 147.173 94.06H152.521ZM151.711 91.5379C151.192 90.8314 150.533 90.4417 150.063 90.2183L147.974 95.7417C148.01 95.7589 147.985 95.751 147.924 95.7056C147.865 95.6617 147.729 95.5521 147.583 95.3521L151.711 91.5379ZM150.063 90.2183C149.593 89.9948 149.031 89.8017 148.441 89.6281L147.083 95.4318C147.58 95.5782 147.856 95.6852 147.974 95.7417L150.063 90.2183ZM148.428 89.6247C147.905 89.4736 147.51 89.3266 147.224 89.1941C147.082 89.1287 146.979 89.0721 146.906 89.0277C146.833 88.9827 146.805 88.958 146.807 88.9597L143.528 93.7003C144.491 94.5378 145.793 95.0595 147.095 95.4353L148.428 89.6247ZM146.807 88.9597C146.823 88.9736 146.906 89.054 146.978 89.2159C147.052 89.3808 147.066 89.5242 147.066 89.59H141.718C141.718 91.2631 142.384 92.7045 143.528 93.7003L146.807 88.9597ZM147.066 89.59C147.066 89.6089 147.062 89.6607 147.042 89.7258C147.021 89.7901 146.998 89.8231 146.998 89.8221L142.855 86.0279C142.118 87.0417 141.718 88.2636 141.718 89.59H147.066ZM147.015 89.7991C147.022 89.7895 147.092 89.6893 147.362 89.5741L145.461 83.9659C144.465 84.3907 143.545 85.0605 142.839 86.0509L147.015 89.7991ZM147.392 89.5608C147.665 89.44 148.039 89.35 148.55 89.35V83.35C147.476 83.35 146.422 83.54 145.43 83.9792L147.392 89.5608ZM148.55 89.35C149.114 89.35 149.483 89.4572 149.722 89.5787L151.925 84.1113C150.863 83.5728 149.717 83.35 148.55 83.35V89.35ZM149.762 89.5986C149.9 89.6654 149.912 89.6951 149.864 89.6474C149.806 89.5899 149.695 89.453 149.614 89.2284L154.573 86.9816C154.026 85.462 152.906 84.5871 151.885 84.0914L149.762 89.5986ZM149.666 89.3622C149.561 89.1072 149.499 88.8141 149.499 88.51H154.848C154.848 87.9259 154.734 87.3628 154.522 86.8478L149.666 89.3622ZM149.499 88.51C149.499 88.1186 149.598 87.7043 149.802 87.3393C149.993 86.9976 150.213 86.8121 150.328 86.731L153.163 91.819C154.034 91.2087 154.848 90.0903 154.848 88.51H149.499ZM150.37 86.7025C150.612 86.5397 150.945 86.41 151.331 86.41V92.41C152.003 92.41 152.613 92.1903 153.122 91.8475L150.37 86.7025ZM151.331 86.41C151.603 86.41 151.864 86.4785 152.092 86.5961L149.85 92.0439C150.309 92.2815 150.811 92.41 151.331 92.41V86.41ZM152.239 86.6786C152.445 86.8034 152.668 87.0012 152.853 87.2855L148.527 90.8145C148.854 91.3188 149.264 91.6966 149.703 91.9614L152.239 86.6786ZM152.843 87.2704C152.321 86.4753 151.634 85.8501 150.807 85.4526L148.701 90.9674C148.671 90.9531 148.634 90.9297 148.598 90.8976C148.563 90.8659 148.543 90.8389 148.537 90.8296L152.843 87.2704ZM150.856 85.4767C150.058 85.0717 149.219 84.925 148.416 84.925V90.925C148.649 90.925 148.701 90.9683 148.652 90.9433L150.856 85.4767ZM148.416 84.925C147.488 84.925 146.453 85.0923 145.514 85.6775L148.111 90.9225C148.036 90.9691 148.007 90.9679 148.06 90.9557C148.113 90.9432 148.227 90.925 148.416 90.925V84.925ZM145.514 85.6775C144.49 86.3156 143.536 87.5331 143.536 89.305H148.884C148.884 89.6651 148.789 90.0634 148.581 90.4114C148.39 90.7313 148.181 90.8788 148.111 90.9225L145.514 85.6775ZM143.536 89.305C143.536 90.1643 143.779 91.0346 144.309 91.7668L148.46 87.9832C148.596 88.1702 148.709 88.3929 148.785 88.6414C148.859 88.8875 148.884 89.1161 148.884 89.305H143.536ZM144.372 91.8505C144.871 92.4897 145.486 92.8565 145.928 93.0735L148.071 87.5765C148.03 87.556 148.044 87.5587 148.093 87.5947C148.139 87.6285 148.26 87.723 148.397 87.8995L144.372 91.8505ZM146.02 93.1162C146.447 93.3052 146.979 93.4886 147.563 93.6682L148.977 87.8818C148.456 87.7214 148.14 87.6048 147.98 87.5338L146.02 93.1162ZM147.532 93.6585C148.372 93.929 148.881 94.1494 149.147 94.2983L151.538 88.9317C150.841 88.5406 149.968 88.201 149.007 87.8915L147.532 93.6585ZM149.199 94.3272C149.302 94.3817 149.327 94.4087 149.307 94.3903C149.284 94.3701 149.198 94.2883 149.108 94.1265L153.636 90.9335C153.069 89.9218 152.232 89.2987 151.486 88.9028L149.199 94.3272ZM149.157 94.2109C148.991 93.9371 149.005 93.7395 149.005 93.82H154.353C154.353 92.8605 154.162 91.8029 153.586 90.8491L149.157 94.2109ZM149.005 93.82C149.005 93.8446 149.004 93.8572 149.003 93.86C149.003 93.8625 149.003 93.8582 149.006 93.8492C149.007 93.8449 149.008 93.8402 149.01 93.8354C149.012 93.8305 149.014 93.8261 149.015 93.8222C149.02 93.8139 149.022 93.8108 149.02 93.8133L153.349 97.3367C154.027 96.2891 154.353 95.0808 154.353 93.82H149.005ZM149.035 93.7905C149.032 93.7964 149.019 93.8141 148.985 93.8425C148.95 93.8725 148.881 93.9216 148.763 93.977L150.825 99.513C151.792 99.0597 152.673 98.3628 153.334 97.3595L149.035 93.7905ZM148.782 93.9684C148.58 94.0607 148.251 94.15 147.735 94.15V100.15C148.788 100.15 149.831 99.9693 150.806 99.5216L148.782 93.9684Z" fill="black"/>
</g>
</g>
<defs>
<filter id="filter0_d_25_139" x="22.4974" y="0" width="93.5027" height="126.269" filterUnits="userSpaceOnUse" color-interpolation-filters="sRGB">
<feFlood flood-opacity="0" result="BackgroundImageFix"/>
<feColorMatrix in="SourceAlpha" type="matrix" values="0 0 0 0 0 0 0 0 0 0 0 0 0 0 0 0 0 0 127 0" result="hardAlpha"/>
<feOffset dx="3" dy="4"/>
<feComposite in2="hardAlpha" operator="out"/>
<feColorMatrix type="matrix" values="0 0 0 0 0 0 0 0 0 0 0 0 0 0 0 0 0 0 0.25 0"/>
<feBlend mode="normal" in2="BackgroundImageFix" result="effect1_dropShadow_25_139"/>
<feBlend mode="normal" in="SourceGraphic" in2="effect1_dropShadow_25_139" result="shape"/>
</filter>
<filter id="filter1_d_25_139" x="107.267" y="45.6" width="126.346" height="57.55" filterUnits="userSpaceOnUse" color-interpolation-filters="sRGB">
<feFlood flood-opacity="0" result="BackgroundImageFix"/>
<feColorMatrix in="SourceAlpha" type="matrix" values="0 0 0 0 0 0 0 0 0 0 0 0 0 0 0 0 0 0 127 0" result="hardAlpha"/>
<feOffset dx="2" dy="3"/>
<feComposite in2="hardAlpha" operator="out"/>
<feColorMatrix type="matrix" values="0 0 0 0 0 0 0 0 0 0 0 0 0 0 0 0 0 0 0.25 0"/>
<feBlend mode="normal" in2="BackgroundImageFix" result="effect1_dropShadow_25_139"/>
<feBlend mode="normal" in="SourceGraphic" in2="effect1_dropShadow_25_139" result="shape"/>
</filter>
</defs>
</svg>
