<svg width="184" height="94" viewBox="0 0 184 94" fill="none" xmlns="http://www.w3.org/2000/svg">
<g filter="url(#filter0_d_173_453)">
<path d="M18.5798 30.391L20.5019 35.3383L64.3887 33.5714L65.9904 28.9774L66.9514 18.3759L65.3497 14.8421L57.0208 13.0752L33.3155 12.3684L20.5019 14.8421L17.2985 18.3759L18.5798 30.391Z" fill="white"/>
<path d="M19.3596 31.8806C19.3596 31.8806 29.6356 26.8967 41.7118 27.1103C53.788 27.3239 64.6642 31.5246 64.6642 31.5246V43.4859L61.9638 47.4018L60.3136 80.153L57.0133 83.7844L40.2867 86.0623L26.1853 83.4282L23.485 81.0789L21.7598 51.3177L21.3848 45.8355L19.2096 43.7707L19.3596 31.8806Z" fill="#660505"/>
<path d="M53.3379 44.269C54.415 44.269 55.2881 43.4403 55.2881 42.4179C55.2881 41.3955 54.415 40.5667 53.3379 40.5667C52.2609 40.5667 51.3878 41.3955 51.3878 42.4179C51.3878 43.4403 52.2609 44.269 53.3379 44.269Z" fill="white"/>
<path d="M27.1074 43.784C28.4951 43.784 29.6202 42.7161 29.6202 41.3989C29.6202 40.0815 28.4951 39.0137 27.1074 39.0137C25.7196 39.0137 24.5947 40.0815 24.5947 41.3989C24.5947 42.7161 25.7196 43.784 27.1074 43.784Z" fill="white"/>
<path d="M48.155 73.7547C49.2528 73.7547 50.1427 72.9101 50.1427 71.8676C50.1427 70.8258 49.2528 69.981 48.155 69.981C47.0573 69.981 46.1674 70.8258 46.1674 71.8676C46.1674 72.9101 47.0573 73.7547 48.155 73.7547Z" fill="white"/>
<path d="M59.6184 59.0031C60.5025 59.0031 61.2193 58.3228 61.2193 57.4835C61.2193 56.6443 60.5025 55.9639 59.6184 55.9639C58.7342 55.9639 58.0175 56.6443 58.0175 57.4835C58.0175 58.3228 58.7342 59.0031 59.6184 59.0031Z" fill="white"/>
<path d="M41.412 60.4783C42.0748 60.4783 42.6122 59.9683 42.6122 59.3391C42.6122 58.71 42.0748 58.2 41.412 58.2C40.7493 58.2 40.2119 58.71 40.2119 59.3391C40.2119 59.9683 40.7493 60.4783 41.412 60.4783Z" fill="white"/>
<path d="M57.6133 42.3467C58.359 42.3467 58.9635 41.773 58.9635 41.0651C58.9635 40.3574 58.359 39.7836 57.6133 39.7836C56.8677 39.7836 56.2632 40.3574 56.2632 41.0651C56.2632 41.773 56.8677 42.3467 57.6133 42.3467Z" fill="white"/>
<path d="M33.2005 71.7764C35.0853 71.7764 36.6133 70.3261 36.6133 68.537C36.6133 66.7478 35.0853 65.2975 33.2005 65.2975C31.3156 65.2975 29.7877 66.7478 29.7877 68.537C29.7877 70.3261 31.3156 71.7764 33.2005 71.7764Z" fill="white"/>
<path d="M60.3135 79.8329L62.4512 46.939L64.889 43.6639C64.889 43.6639 63.7443 35.2602 65.1517 31.9874C66.6516 28.4987 66.7643 17.7478 66.7643 17.7478C66.7643 17.7478 68.5525 13.3268 51.4627 12.6215C34.2111 11.9095 24.3476 12.6571 19.7722 15.327C17.0132 16.937 17.1094 17.7122 17.3719 21.1653C17.6344 24.6184 17.2597 29.5532 18.947 32.379C21.1479 36.0648 18.9846 44.2335 18.9846 44.2335L21.2723 46.6898L23.485 79.6901C23.485 79.6901 23.5225 81.826 25.7728 82.8232C28.023 83.8198 33.8735 85.4573 41.8618 85.3506C49.85 85.2439 57.0883 83.4282 57.0883 83.4282C57.0883 83.4282 59.751 82.3242 60.3135 79.8329Z" stroke="black" stroke-width="3" stroke-linecap="round" stroke-linejoin="round"/>
<path d="M27.5269 31.3354L29.118 26.3513C29.118 26.3513 31.823 27.2072 32.8837 27.2575C33.9445 27.3079 35.0052 26.5527 35.0052 26.5527L38.1875 30.983L32.8837 33.3492L27.5269 31.3354Z" fill="white"/>
<path d="M19.6597 34.2302C19.6597 34.2302 31.8858 38.0037 41.7868 37.7901C51.6878 37.5764 60.1636 35.9389 63.9889 33.7317M31.2858 83.9979L30.0856 49.5377C30.0856 49.5377 26.5603 43.9843 21.9849 47.473M38.1114 85.2792L37.7364 49.9649C37.7364 49.9649 33.2359 44.6962 30.2357 49.5377M45.7622 84.9944L45.5371 50.1073C45.5371 50.1073 42.9119 46.1914 38.7865 49.3242M53.488 83.9979L53.563 49.0393C53.563 49.0393 50.2626 44.9811 45.7622 49.9649M61.9637 47.9714C61.9637 47.9714 58.4384 42.9875 53.6379 48.541M27.5268 31.3354L29.118 26.3513C29.118 26.3513 31.8229 27.2072 32.8836 27.2575C33.9444 27.3079 35.0052 26.5527 35.0052 26.5527L38.1875 30.983L32.8836 33.3492L27.5268 31.3354Z" stroke="black" stroke-width="3" stroke-linecap="round" stroke-linejoin="round"/>
<path d="M46.1292 32.5378L54.085 8.37229C54.085 8.37229 55.2518 5.0999 58.328 4.34472C61.4042 3.58956 78.8963 0.176691 78.8963 0.176691C78.8963 0.176691 80.8184 -0.530074 81.1387 0.883459C81.4591 3.00376 80.8184 2.65039 79.2167 3.00378C74.4935 3.77351 58.328 6.86037 58.328 6.86037C58.328 6.86037 57.1661 7.19807 56.1519 10.3942C55.2713 13.1693 48.784 32.5378 48.784 32.5378H46.1292Z" fill="#B9B9B9"/>
<path d="M17.7094 18.2817C17.7094 18.2817 27.9104 22.8527 40.8866 22.9096C55.7015 22.9747 62.6555 20.8449 66.4645 18.5665" stroke="black" stroke-width="3" stroke-linecap="round" stroke-linejoin="round"/>
</g>
<g filter="url(#filter1_d_173_453)">
<path d="M80.9041 54.7038C80.4601 54.7038 80.1097 54.5907 79.8534 54.3645C79.5971 54.1195 79.469 53.7897 79.469 53.375C79.469 53.2243 79.4773 53.1017 79.4946 53.0075L81.7498 38.8156C81.9888 37.4398 82.4674 36.4032 83.185 35.7059C83.9198 34.9897 84.8847 34.6316 86.0808 34.6316H94.3072C94.7512 34.6316 95.0933 34.7353 95.3323 34.9426C95.5713 35.1311 95.6911 35.4138 95.6911 35.7907C95.6911 36.3184 95.52 36.7425 95.1785 37.0629C94.8371 37.3832 94.3924 37.5435 93.8459 37.5435H86.4652C86.1238 37.5435 85.8329 37.6659 85.5939 37.911C85.3716 38.156 85.2268 38.4953 85.1583 38.9287L84.4663 43.1411H91.0013C91.4453 43.1411 91.7874 43.2447 92.0264 43.452C92.2654 43.6405 92.3852 43.9232 92.3852 44.3002C92.3852 44.8279 92.2141 45.252 91.8726 45.5723C91.5311 45.8927 91.0865 46.0529 90.54 46.0529H84.005L82.903 53.0075C82.8178 53.5164 82.5872 53.9311 82.2111 54.2514C81.8523 54.553 81.4167 54.7038 80.9041 54.7038ZM97.6894 54.7038C97.2454 54.7038 96.8949 54.5907 96.6387 54.3645C96.3824 54.1195 96.2543 53.7897 96.2543 53.375C96.2543 53.2243 96.2626 53.1017 96.2799 53.0075L98.9964 36.0451C99.0649 35.5174 99.2783 35.1028 99.6371 34.8012C99.9958 34.4996 100.432 34.3489 100.944 34.3489C101.388 34.3489 101.747 34.4714 102.02 34.7164C102.294 34.9614 102.43 35.3007 102.43 35.7341C102.43 35.8661 102.422 35.9697 102.405 36.0451L99.6883 53.0075C99.6031 53.5353 99.3725 53.9499 98.9964 54.2514C98.6203 54.553 98.1846 54.7038 97.6894 54.7038ZM107.414 54.4211C106.287 54.4211 105.424 54.1384 104.826 53.5729C104.228 53.0075 103.929 52.1971 103.929 51.1417C103.929 50.8213 103.955 50.482 104.006 50.1239L106.261 36.0451C106.346 35.5174 106.56 35.1028 106.902 34.8012C107.243 34.4996 107.679 34.3489 108.209 34.3489C108.67 34.3489 109.029 34.4714 109.285 34.7164C109.559 34.9614 109.695 35.3007 109.695 35.7341C109.695 35.8661 109.687 35.9697 109.67 36.0451L107.414 50.1239C107.397 50.2181 107.389 50.3501 107.389 50.5197C107.389 50.8401 107.466 51.0851 107.619 51.2547C107.773 51.4244 107.995 51.5092 108.286 51.5092H116.486C116.93 51.5092 117.273 51.6129 117.511 51.8202C117.75 52.0087 117.87 52.2914 117.87 52.6683C117.87 53.196 117.699 53.6201 117.358 53.9405C117.016 54.2608 116.572 54.4211 116.025 54.4211H107.414ZM121.573 54.7038C121.128 54.7038 120.778 54.5907 120.522 54.3645C120.266 54.1195 120.138 53.7897 120.138 53.375C120.138 53.2243 120.146 53.1017 120.163 53.0075L122.008 41.36C122.384 39.0607 123.196 37.3173 124.443 36.1299C125.69 34.9426 127.339 34.3489 129.389 34.3489C130.346 34.3489 131.2 34.6033 131.952 35.1122C132.721 35.6211 133.344 36.3655 133.823 37.3456C134.574 36.3844 135.412 35.6493 136.334 35.1405C137.257 34.6127 138.213 34.3489 139.204 34.3489C140.896 34.3489 142.228 34.8484 143.202 35.8472C144.176 36.8273 144.663 38.1654 144.663 39.8617C144.663 40.2951 144.62 40.7946 144.535 41.36L142.69 53.0075C142.604 53.5164 142.373 53.9311 141.998 54.2514C141.639 54.553 141.203 54.7038 140.691 54.7038C140.246 54.7038 139.896 54.5907 139.64 54.3645C139.384 54.1195 139.256 53.7897 139.256 53.375C139.256 53.2243 139.264 53.1017 139.281 53.0075L141.126 41.36C141.212 40.8888 141.255 40.3894 141.255 39.8617C141.255 38.9759 141.05 38.335 140.64 37.9393C140.229 37.5246 139.589 37.3173 138.717 37.3173C137.726 37.3173 136.906 37.6659 136.257 38.3633C135.608 39.0607 135.172 40.0596 134.95 41.36L133.105 53.0075C133.019 53.5353 132.798 53.9499 132.439 54.2514C132.08 54.553 131.644 54.7038 131.132 54.7038C130.687 54.7038 130.337 54.5907 130.081 54.3645C129.841 54.1195 129.722 53.7897 129.722 53.375C129.722 53.2243 129.731 53.1017 129.748 53.0075L131.593 41.36C131.661 41.0019 131.696 40.625 131.696 40.2292C131.696 39.3056 131.473 38.5895 131.029 38.0806C130.602 37.5717 129.979 37.3173 129.158 37.3173C128.048 37.3173 127.202 37.6377 126.621 38.2785C126.04 38.9005 125.639 39.9276 125.417 41.36L123.572 53.0075C123.486 53.5164 123.255 53.9311 122.88 54.2514C122.521 54.553 122.085 54.7038 121.573 54.7038ZM154.017 54.7038C152.531 54.7038 151.232 54.4117 150.122 53.8274C149.011 53.2243 148.148 52.3856 147.533 51.3113C146.935 50.237 146.636 48.9931 146.636 47.5796C146.636 47.0141 146.688 46.4393 146.79 45.855L148.379 36.0451C148.464 35.5174 148.678 35.1028 149.02 34.8012C149.361 34.4996 149.788 34.3489 150.301 34.3489C150.779 34.3489 151.147 34.4714 151.403 34.7164C151.676 34.9614 151.813 35.3007 151.813 35.7341C151.813 35.8661 151.804 35.9697 151.787 36.0451L150.199 45.9399C150.096 46.5807 150.045 47.1744 150.045 47.7209C150.045 50.3972 151.343 51.7353 153.94 51.7353C155.443 51.7353 156.673 51.2359 157.63 50.237C158.604 49.2193 159.236 47.7868 159.527 45.9399L161.116 36.0451C161.184 35.5362 161.398 35.1311 161.756 34.8295C162.132 34.5091 162.577 34.3489 163.089 34.3489C163.55 34.3489 163.909 34.4714 164.165 34.7164C164.422 34.9426 164.55 35.2724 164.55 35.7059C164.55 35.8566 164.541 35.9697 164.524 36.0451L162.935 46.1095C162.491 48.9365 161.509 51.0757 159.988 52.5269C158.484 53.9781 156.494 54.7038 154.017 54.7038ZM79.5587 68.6624C79.3921 68.6624 79.2608 68.62 79.1647 68.5352C79.0686 68.4433 79.0205 68.3196 79.0205 68.1641C79.0205 68.1076 79.0237 68.0617 79.0301 68.0263L79.6644 64.0296C79.8246 63.033 80.1898 62.2838 80.76 61.782C81.3366 61.2802 82.115 61.0293 83.0953 61.0293C83.6334 61.0293 84.0979 61.1318 84.4887 61.3368C84.886 61.5347 85.1903 61.8174 85.4017 62.1849C85.6195 62.5524 85.7285 62.98 85.7285 63.4677C85.7285 63.6302 85.7125 63.8175 85.6804 64.0296L85.0461 68.0263C85.0141 68.2242 84.9308 68.3797 84.7963 68.4928C84.6617 68.6059 84.4984 68.6624 84.3061 68.6624C84.1396 68.6624 84.005 68.6165 83.9025 68.5246C83.8064 68.4327 83.7584 68.309 83.7584 68.1535C83.7584 68.097 83.7616 68.0546 83.768 68.0263L84.4119 63.9978C84.4439 63.7999 84.4599 63.6338 84.4599 63.4995C84.4599 62.5948 83.9666 62.1425 82.9799 62.1425C82.4161 62.1425 81.9612 62.3015 81.6153 62.6196C81.2693 62.9376 81.0483 63.397 80.9522 63.9978L80.3083 68.0263C80.2762 68.2172 80.1898 68.3726 80.0488 68.4928C79.9143 68.6059 79.7509 68.6624 79.5587 68.6624ZM86.6446 68.6518C86.4781 68.6518 86.3467 68.6094 86.2506 68.5246C86.1545 68.4327 86.1065 68.309 86.1065 68.1535C86.1065 68.097 86.1097 68.0511 86.1161 68.0157L86.7119 64.3052C86.8785 63.245 87.2629 62.4358 87.8651 61.8775C88.4738 61.312 89.2586 61.0293 90.2197 61.0293C91.0269 61.0293 91.658 61.2626 92.1129 61.729C92.5742 62.1884 92.8048 62.8175 92.8048 63.6161C92.8048 63.8423 92.7856 64.072 92.7472 64.3052L92.1513 68.0157C92.1193 68.2136 92.036 68.3691 91.9014 68.4822C91.7669 68.5953 91.6035 68.6518 91.4113 68.6518C91.2447 68.6518 91.1102 68.6059 91.0077 68.514C90.9116 68.4221 90.8635 68.2984 90.8635 68.1429C90.8635 68.0864 90.8667 68.044 90.8732 68.0157L91.1518 66.2877H87.6729L87.3942 68.0157C87.3622 68.2066 87.2757 68.362 87.1348 68.4822C87.0002 68.5953 86.8368 68.6518 86.6446 68.6518ZM91.3248 65.1957L91.469 64.2734C91.5138 63.9766 91.5363 63.7468 91.5363 63.5843C91.5363 63.0966 91.4145 62.7362 91.1711 62.5029C90.934 62.2626 90.5688 62.1425 90.0755 62.1425C88.9159 62.1425 88.2207 62.8528 87.9901 64.2734L87.8459 65.1957H91.3248ZM93.7966 68.6624C93.63 68.6624 93.4987 68.62 93.4026 68.5352C93.3065 68.4433 93.2584 68.3196 93.2584 68.1641C93.2584 68.1076 93.2616 68.0617 93.268 68.0263L93.96 63.6585C94.1009 62.7962 94.4052 62.1425 94.8729 61.6972C95.3406 61.252 95.9589 61.0293 96.7277 61.0293C97.0865 61.0293 97.4068 61.1247 97.6887 61.3156C97.9771 61.5064 98.2109 61.7856 98.3903 62.1531C98.6722 61.7926 98.9861 61.517 99.3321 61.3262C99.6781 61.1283 100.037 61.0293 100.408 61.0293C101.043 61.0293 101.542 61.2166 101.908 61.5912C102.273 61.9587 102.455 62.4605 102.455 63.0966C102.455 63.2592 102.439 63.4465 102.407 63.6585L101.715 68.0263C101.683 68.2172 101.597 68.3726 101.456 68.4928C101.321 68.6059 101.158 68.6624 100.966 68.6624C100.799 68.6624 100.668 68.62 100.572 68.5352C100.476 68.4433 100.428 68.3196 100.428 68.1641C100.428 68.1076 100.431 68.0617 100.437 68.0263L101.129 63.6585C101.161 63.4818 101.177 63.2945 101.177 63.0966C101.177 62.7644 101.1 62.5241 100.947 62.3757C100.793 62.2202 100.553 62.1425 100.226 62.1425C99.8542 62.1425 99.5467 62.2732 99.3033 62.5347C99.0598 62.7963 98.8964 63.1708 98.8131 63.6585L98.1212 68.0263C98.0892 68.2242 98.0059 68.3797 97.8713 68.4928C97.7368 68.6059 97.5734 68.6624 97.3812 68.6624C97.2146 68.6624 97.0833 68.62 96.9872 68.5352C96.8975 68.4433 96.8526 68.3196 96.8526 68.1641C96.8526 68.1076 96.8559 68.0617 96.8623 68.0263L97.5542 63.6585C97.5798 63.5242 97.5926 63.3829 97.5926 63.2344C97.5926 62.8881 97.5093 62.6196 97.3428 62.4287C97.1826 62.2379 96.9487 62.1425 96.6412 62.1425C96.2248 62.1425 95.9076 62.2626 95.6898 62.5029C95.472 62.7362 95.3214 63.1214 95.2381 63.6585L94.5462 68.0263C94.5142 68.2172 94.4277 68.3726 94.2867 68.4928C94.1522 68.6059 93.9888 68.6624 93.7966 68.6624ZM106.184 68.6624C105.723 68.6624 105.271 68.6059 104.829 68.4928C104.387 68.3726 104.006 68.2101 103.686 68.0051C103.372 67.8002 103.154 67.574 103.032 67.3266C102.974 67.2065 102.946 67.0934 102.946 66.9874C102.946 66.8036 103.022 66.6481 103.176 66.5209C103.285 66.422 103.404 66.3725 103.532 66.3725C103.705 66.3725 103.862 66.4467 104.003 66.5951C104.361 66.9485 104.691 67.1959 104.993 67.3372C105.294 67.4786 105.643 67.5493 106.04 67.5493C106.546 67.5493 106.95 67.4538 107.251 67.263C107.552 67.0651 107.703 66.8036 107.703 66.4785C107.703 66.3089 107.655 66.164 107.558 66.0438C107.469 65.9237 107.318 65.8141 107.107 65.7152C106.895 65.6163 106.594 65.5102 106.203 65.3972C105.332 65.1498 104.711 64.8671 104.339 64.549C103.967 64.231 103.782 63.8211 103.782 63.3193C103.782 62.8811 103.91 62.4888 104.166 62.1425C104.422 61.7891 104.778 61.517 105.233 61.3262C105.688 61.1283 106.2 61.0293 106.77 61.0293C107.392 61.0293 107.936 61.1459 108.404 61.3792C108.878 61.6053 109.183 61.9022 109.317 62.2697C109.356 62.3616 109.375 62.457 109.375 62.5559C109.375 62.775 109.272 62.9553 109.067 63.0966C108.971 63.1602 108.872 63.192 108.769 63.192C108.68 63.192 108.593 63.1708 108.51 63.1284C108.427 63.079 108.359 63.0153 108.308 62.9376C108.129 62.669 107.904 62.4711 107.635 62.3439C107.366 62.2096 107.046 62.1425 106.674 62.1425C106.194 62.1425 105.809 62.2308 105.521 62.4075C105.233 62.5842 105.089 62.821 105.089 63.1178C105.089 63.2733 105.13 63.4076 105.214 63.5207C105.303 63.6338 105.451 63.7398 105.656 63.8387C105.867 63.9306 106.171 64.0366 106.569 64.1568C107.216 64.3617 107.712 64.5596 108.058 64.7505C108.411 64.9342 108.657 65.1498 108.798 65.3972C108.946 65.6375 109.019 65.9414 109.019 66.3089C109.019 66.7753 108.901 67.1888 108.664 67.5493C108.427 67.9026 108.093 68.1783 107.664 68.3762C107.241 68.567 106.748 68.6624 106.184 68.6624Z" fill="white"/>
<mask id="mask0_173_453" style="mask-type:luminance" maskUnits="userSpaceOnUse" x="76" y="31" width="91" height="41">
<path d="M166.602 31.8045H76.9062V71.3835H166.602V31.8045Z" fill="white"/>
<path d="M80.9041 54.7038C80.4601 54.7038 80.1097 54.5907 79.8534 54.3645C79.5971 54.1195 79.469 53.7897 79.469 53.375C79.469 53.2243 79.4773 53.1017 79.4946 53.0075L81.7498 38.8156C81.9888 37.4398 82.4674 36.4032 83.185 35.7059C83.9198 34.9897 84.8847 34.6316 86.0808 34.6316H94.3072C94.7512 34.6316 95.0933 34.7353 95.3323 34.9426C95.5713 35.1311 95.6911 35.4138 95.6911 35.7907C95.6911 36.3184 95.52 36.7425 95.1785 37.0629C94.8371 37.3832 94.3924 37.5435 93.8459 37.5435H86.4652C86.1238 37.5435 85.8329 37.6659 85.5939 37.911C85.3716 38.156 85.2268 38.4953 85.1583 38.9287L84.4663 43.1411H91.0013C91.4453 43.1411 91.7874 43.2447 92.0264 43.452C92.2654 43.6405 92.3852 43.9232 92.3852 44.3002C92.3852 44.8279 92.2141 45.252 91.8726 45.5723C91.5311 45.8927 91.0865 46.0529 90.54 46.0529H84.005L82.903 53.0075C82.8178 53.5164 82.5872 53.9311 82.2111 54.2514C81.8523 54.553 81.4167 54.7038 80.9041 54.7038ZM97.6894 54.7038C97.2454 54.7038 96.8949 54.5907 96.6387 54.3645C96.3824 54.1195 96.2543 53.7897 96.2543 53.375C96.2543 53.2243 96.2626 53.1017 96.2799 53.0075L98.9964 36.0451C99.0649 35.5174 99.2783 35.1028 99.6371 34.8012C99.9958 34.4996 100.432 34.3489 100.944 34.3489C101.388 34.3489 101.747 34.4714 102.02 34.7164C102.294 34.9614 102.43 35.3007 102.43 35.7341C102.43 35.8661 102.422 35.9697 102.405 36.0451L99.6883 53.0075C99.6031 53.5353 99.3725 53.9499 98.9964 54.2514C98.6203 54.553 98.1846 54.7038 97.6894 54.7038ZM107.414 54.4211C106.287 54.4211 105.424 54.1384 104.826 53.5729C104.228 53.0075 103.929 52.1971 103.929 51.1417C103.929 50.8213 103.955 50.482 104.006 50.1239L106.261 36.0451C106.346 35.5174 106.56 35.1028 106.902 34.8012C107.243 34.4996 107.679 34.3489 108.209 34.3489C108.67 34.3489 109.029 34.4714 109.285 34.7164C109.559 34.9614 109.695 35.3007 109.695 35.7341C109.695 35.8661 109.687 35.9697 109.67 36.0451L107.414 50.1239C107.397 50.2181 107.389 50.3501 107.389 50.5197C107.389 50.8401 107.466 51.0851 107.619 51.2547C107.773 51.4244 107.995 51.5092 108.286 51.5092H116.486C116.93 51.5092 117.273 51.6129 117.511 51.8202C117.75 52.0087 117.87 52.2914 117.87 52.6683C117.87 53.196 117.699 53.6201 117.358 53.9405C117.016 54.2608 116.572 54.4211 116.025 54.4211H107.414ZM121.573 54.7038C121.128 54.7038 120.778 54.5907 120.522 54.3645C120.266 54.1195 120.138 53.7897 120.138 53.375C120.138 53.2243 120.146 53.1017 120.163 53.0075L122.008 41.36C122.384 39.0607 123.196 37.3173 124.443 36.1299C125.69 34.9426 127.339 34.3489 129.389 34.3489C130.346 34.3489 131.2 34.6033 131.952 35.1122C132.721 35.6211 133.344 36.3655 133.823 37.3456C134.574 36.3844 135.412 35.6493 136.334 35.1405C137.257 34.6127 138.213 34.3489 139.204 34.3489C140.896 34.3489 142.228 34.8484 143.202 35.8472C144.176 36.8273 144.663 38.1654 144.663 39.8617C144.663 40.2951 144.62 40.7946 144.535 41.36L142.69 53.0075C142.604 53.5164 142.373 53.9311 141.998 54.2514C141.639 54.553 141.203 54.7038 140.691 54.7038C140.246 54.7038 139.896 54.5907 139.64 54.3645C139.384 54.1195 139.256 53.7897 139.256 53.375C139.256 53.2243 139.264 53.1017 139.281 53.0075L141.126 41.36C141.212 40.8888 141.255 40.3894 141.255 39.8617C141.255 38.9759 141.05 38.335 140.64 37.9393C140.229 37.5246 139.589 37.3173 138.717 37.3173C137.726 37.3173 136.906 37.6659 136.257 38.3633C135.608 39.0607 135.172 40.0596 134.95 41.36L133.105 53.0075C133.019 53.5353 132.798 53.9499 132.439 54.2514C132.08 54.553 131.644 54.7038 131.132 54.7038C130.687 54.7038 130.337 54.5907 130.081 54.3645C129.841 54.1195 129.722 53.7897 129.722 53.375C129.722 53.2243 129.731 53.1017 129.748 53.0075L131.593 41.36C131.661 41.0019 131.696 40.625 131.696 40.2292C131.696 39.3056 131.473 38.5895 131.029 38.0806C130.602 37.5717 129.979 37.3173 129.158 37.3173C128.048 37.3173 127.202 37.6377 126.621 38.2785C126.04 38.9005 125.639 39.9276 125.417 41.36L123.572 53.0075C123.486 53.5164 123.255 53.9311 122.88 54.2514C122.521 54.553 122.085 54.7038 121.573 54.7038ZM154.017 54.7038C152.531 54.7038 151.232 54.4117 150.122 53.8274C149.011 53.2243 148.148 52.3856 147.533 51.3113C146.935 50.237 146.636 48.9931 146.636 47.5796C146.636 47.0141 146.688 46.4393 146.79 45.855L148.379 36.0451C148.464 35.5174 148.678 35.1028 149.02 34.8012C149.361 34.4996 149.788 34.3489 150.301 34.3489C150.779 34.3489 151.147 34.4714 151.403 34.7164C151.676 34.9614 151.813 35.3007 151.813 35.7341C151.813 35.8661 151.804 35.9697 151.787 36.0451L150.199 45.9399C150.096 46.5807 150.045 47.1744 150.045 47.7209C150.045 50.3972 151.343 51.7353 153.94 51.7353C155.443 51.7353 156.673 51.2359 157.63 50.237C158.604 49.2193 159.236 47.7868 159.527 45.9399L161.116 36.0451C161.184 35.5362 161.398 35.1311 161.756 34.8295C162.132 34.5091 162.577 34.3489 163.089 34.3489C163.55 34.3489 163.909 34.4714 164.165 34.7164C164.422 34.9426 164.55 35.2724 164.55 35.7059C164.55 35.8566 164.541 35.9697 164.524 36.0451L162.935 46.1095C162.491 48.9365 161.509 51.0757 159.988 52.5269C158.484 53.9781 156.494 54.7038 154.017 54.7038ZM79.5587 68.6624C79.3921 68.6624 79.2608 68.62 79.1647 68.5352C79.0686 68.4433 79.0205 68.3196 79.0205 68.1641C79.0205 68.1076 79.0237 68.0617 79.0301 68.0263L79.6644 64.0296C79.8246 63.033 80.1898 62.2838 80.76 61.782C81.3366 61.2802 82.115 61.0293 83.0953 61.0293C83.6334 61.0293 84.0979 61.1318 84.4887 61.3368C84.886 61.5347 85.1903 61.8174 85.4017 62.1849C85.6195 62.5524 85.7285 62.98 85.7285 63.4677C85.7285 63.6302 85.7125 63.8175 85.6804 64.0296L85.0461 68.0263C85.0141 68.2242 84.9308 68.3797 84.7963 68.4928C84.6617 68.6059 84.4984 68.6624 84.3061 68.6624C84.1396 68.6624 84.005 68.6165 83.9025 68.5246C83.8064 68.4327 83.7584 68.309 83.7584 68.1535C83.7584 68.097 83.7616 68.0546 83.768 68.0263L84.4119 63.9978C84.4439 63.7999 84.4599 63.6338 84.4599 63.4995C84.4599 62.5948 83.9666 62.1425 82.9799 62.1425C82.4161 62.1425 81.9612 62.3015 81.6153 62.6196C81.2693 62.9376 81.0483 63.397 80.9522 63.9978L80.3083 68.0263C80.2762 68.2172 80.1898 68.3726 80.0488 68.4928C79.9143 68.6059 79.7509 68.6624 79.5587 68.6624ZM86.6446 68.6518C86.4781 68.6518 86.3467 68.6094 86.2506 68.5246C86.1545 68.4327 86.1065 68.309 86.1065 68.1535C86.1065 68.097 86.1097 68.0511 86.1161 68.0157L86.7119 64.3052C86.8785 63.245 87.2629 62.4358 87.8651 61.8775C88.4738 61.312 89.2586 61.0293 90.2197 61.0293C91.0269 61.0293 91.658 61.2626 92.1129 61.729C92.5742 62.1884 92.8048 62.8175 92.8048 63.6161C92.8048 63.8423 92.7856 64.072 92.7472 64.3052L92.1513 68.0157C92.1193 68.2136 92.036 68.3691 91.9014 68.4822C91.7669 68.5953 91.6035 68.6518 91.4113 68.6518C91.2447 68.6518 91.1102 68.6059 91.0077 68.514C90.9116 68.4221 90.8635 68.2984 90.8635 68.1429C90.8635 68.0864 90.8667 68.044 90.8732 68.0157L91.1518 66.2877H87.6729L87.3942 68.0157C87.3622 68.2066 87.2757 68.362 87.1348 68.4822C87.0002 68.5953 86.8368 68.6518 86.6446 68.6518ZM91.3248 65.1957L91.469 64.2734C91.5138 63.9766 91.5363 63.7468 91.5363 63.5843C91.5363 63.0966 91.4145 62.7362 91.1711 62.5029C90.934 62.2626 90.5688 62.1425 90.0755 62.1425C88.9159 62.1425 88.2207 62.8528 87.9901 64.2734L87.8459 65.1957H91.3248ZM93.7966 68.6624C93.63 68.6624 93.4987 68.62 93.4026 68.5352C93.3065 68.4433 93.2584 68.3196 93.2584 68.1641C93.2584 68.1076 93.2616 68.0617 93.268 68.0263L93.96 63.6585C94.1009 62.7962 94.4052 62.1425 94.8729 61.6972C95.3406 61.252 95.9589 61.0293 96.7277 61.0293C97.0865 61.0293 97.4068 61.1247 97.6887 61.3156C97.9771 61.5064 98.2109 61.7856 98.3903 62.1531C98.6722 61.7926 98.9861 61.517 99.3321 61.3262C99.6781 61.1283 100.037 61.0293 100.408 61.0293C101.043 61.0293 101.542 61.2166 101.908 61.5912C102.273 61.9587 102.455 62.4605 102.455 63.0966C102.455 63.2592 102.439 63.4465 102.407 63.6585L101.715 68.0263C101.683 68.2172 101.597 68.3726 101.456 68.4928C101.321 68.6059 101.158 68.6624 100.966 68.6624C100.799 68.6624 100.668 68.62 100.572 68.5352C100.476 68.4433 100.428 68.3196 100.428 68.1641C100.428 68.1076 100.431 68.0617 100.437 68.0263L101.129 63.6585C101.161 63.4818 101.177 63.2945 101.177 63.0966C101.177 62.7644 101.1 62.5241 100.947 62.3757C100.793 62.2202 100.553 62.1425 100.226 62.1425C99.8542 62.1425 99.5467 62.2732 99.3033 62.5347C99.0598 62.7963 98.8964 63.1708 98.8131 63.6585L98.1212 68.0263C98.0892 68.2242 98.0059 68.3797 97.8713 68.4928C97.7368 68.6059 97.5734 68.6624 97.3812 68.6624C97.2146 68.6624 97.0833 68.62 96.9872 68.5352C96.8975 68.4433 96.8526 68.3196 96.8526 68.1641C96.8526 68.1076 96.8559 68.0617 96.8623 68.0263L97.5542 63.6585C97.5798 63.5242 97.5926 63.3829 97.5926 63.2344C97.5926 62.8881 97.5093 62.6196 97.3428 62.4287C97.1826 62.2379 96.9487 62.1425 96.6412 62.1425C96.2248 62.1425 95.9076 62.2626 95.6898 62.5029C95.472 62.7362 95.3214 63.1214 95.2381 63.6585L94.5462 68.0263C94.5142 68.2172 94.4277 68.3726 94.2867 68.4928C94.1522 68.6059 93.9888 68.6624 93.7966 68.6624ZM106.184 68.6624C105.723 68.6624 105.271 68.6059 104.829 68.4928C104.387 68.3726 104.006 68.2101 103.686 68.0051C103.372 67.8002 103.154 67.574 103.032 67.3266C102.974 67.2065 102.946 67.0934 102.946 66.9874C102.946 66.8036 103.022 66.6481 103.176 66.5209C103.285 66.422 103.404 66.3725 103.532 66.3725C103.705 66.3725 103.862 66.4467 104.003 66.5951C104.361 66.9485 104.691 67.1959 104.993 67.3372C105.294 67.4786 105.643 67.5493 106.04 67.5493C106.546 67.5493 106.95 67.4538 107.251 67.263C107.552 67.0651 107.703 66.8036 107.703 66.4785C107.703 66.3089 107.655 66.164 107.558 66.0438C107.469 65.9237 107.318 65.8141 107.107 65.7152C106.895 65.6163 106.594 65.5102 106.203 65.3972C105.332 65.1498 104.711 64.8671 104.339 64.549C103.967 64.231 103.782 63.8211 103.782 63.3193C103.782 62.8811 103.91 62.4888 104.166 62.1425C104.422 61.7891 104.778 61.517 105.233 61.3262C105.688 61.1283 106.2 61.0293 106.77 61.0293C107.392 61.0293 107.936 61.1459 108.404 61.3792C108.878 61.6053 109.183 61.9022 109.317 62.2697C109.356 62.3616 109.375 62.457 109.375 62.5559C109.375 62.775 109.272 62.9553 109.067 63.0966C108.971 63.1602 108.872 63.192 108.769 63.192C108.68 63.192 108.593 63.1708 108.51 63.1284C108.427 63.079 108.359 63.0153 108.308 62.9376C108.129 62.669 107.904 62.4711 107.635 62.3439C107.366 62.2096 107.046 62.1425 106.674 62.1425C106.194 62.1425 105.809 62.2308 105.521 62.4075C105.233 62.5842 105.089 62.821 105.089 63.1178C105.089 63.2733 105.13 63.4076 105.214 63.5207C105.303 63.6338 105.451 63.7398 105.656 63.8387C105.867 63.9306 106.171 64.0366 106.569 64.1568C107.216 64.3617 107.712 64.5596 108.058 64.7505C108.411 64.9342 108.657 65.1498 108.798 65.3972C108.946 65.6375 109.019 65.9414 109.019 66.3089C109.019 66.7753 108.901 67.1888 108.664 67.5493C108.427 67.9026 108.093 68.1783 107.664 68.3762C107.241 68.567 106.748 68.6624 106.184 68.6624Z" fill="black"/>
</mask>
<g mask="url(#mask0_173_453)">
<path d="M79.8534 54.3645L78.5944 55.9668L78.6233 55.9941L78.6527 56.0202L79.8534 54.3645ZM79.4946 53.0075L81.3795 53.4233L81.384 53.3986L81.3878 53.3736L79.4946 53.0075ZM81.7498 38.8156L79.8624 38.4163L79.8592 38.4329L79.8566 38.4495L81.7498 38.8156ZM83.1849 35.7059L84.4554 37.2969L84.458 37.2947L83.1849 35.7059ZM95.3323 34.9426L94.1451 36.6098L94.1791 36.6397L94.215 36.6679L95.3323 34.9426ZM85.5939 37.911L84.2863 36.3572L84.26 36.3839L84.235 36.4117L85.5939 37.911ZM85.1582 38.9287L87.0495 39.3068L87.0508 39.2994L87.0521 39.292L85.1582 38.9287ZM84.4663 43.1411L82.575 42.763L82.165 45.2614H84.4663V43.1411ZM92.0264 43.452L90.8392 45.1193L90.8731 45.1492L90.909 45.1774L92.0264 43.452ZM84.005 46.0529V43.9326H82.3899L82.1118 45.6878L84.005 46.0529ZM82.903 53.0075L84.7931 53.3936L84.795 53.3831L84.7963 53.3726L82.903 53.0075ZM82.2111 54.2514L83.3759 55.938L83.381 55.9336L83.3861 55.9292L82.2111 54.2514ZM80.9041 52.5835C80.8266 52.5835 80.8151 52.5732 80.8484 52.584C80.8868 52.5965 80.9656 52.6308 81.054 52.7088L78.6527 56.0202C79.353 56.6382 80.1769 56.8241 80.9041 56.8241V52.5835ZM81.1123 52.7622C81.1943 52.8406 81.2763 52.9556 81.3314 53.0981C81.3846 53.235 81.391 53.3395 81.391 53.375H77.5469C77.5469 54.3298 77.8686 55.2726 78.5944 55.9668L81.1123 52.7622ZM81.391 53.375C81.391 53.3422 81.3923 53.3294 81.3917 53.3327C81.3917 53.3349 81.391 53.3435 81.3891 53.3577C81.3878 53.3718 81.3846 53.3941 81.3795 53.4233L77.6097 52.5917C77.5578 52.8772 77.5469 53.1538 77.5469 53.375H81.391ZM81.3878 53.3736L83.643 39.1818L79.8566 38.4495L77.6014 52.6414L81.3878 53.3736ZM83.6373 39.215C83.8224 38.1497 84.1485 37.5951 84.4554 37.2969L81.9145 34.1149C80.7862 35.2113 80.1551 36.7299 79.8624 38.4163L83.6373 39.215ZM84.458 37.2947C84.7681 36.9923 85.246 36.7519 86.0808 36.7519V32.5113C84.524 32.5113 83.0715 32.9872 81.9119 34.1171L84.458 37.2947ZM86.0808 36.7519H94.3072V32.5113H86.0808V36.7519ZM94.3072 36.7519C94.3988 36.7519 94.418 36.7631 94.3873 36.7537C94.3514 36.743 94.2566 36.7067 94.1451 36.6098L96.5195 33.2753C95.8173 32.6663 94.9908 32.5113 94.3072 32.5113V36.7519ZM94.215 36.6679C94.0766 36.5586 93.9452 36.3955 93.8594 36.1926C93.7786 36.0009 93.769 35.8486 93.769 35.7907H97.6131C97.6131 34.8564 97.2813 33.8724 96.4496 33.2172L94.215 36.6679ZM93.769 35.7907C93.769 35.7985 93.769 35.7373 93.8068 35.6434C93.8459 35.5458 93.8997 35.4792 93.9337 35.4473L96.4234 38.6784C97.2262 37.9255 97.6131 36.8932 97.6131 35.7907H93.769ZM93.9337 35.4473C93.9452 35.4364 93.9587 35.4265 93.9708 35.4187C93.9773 35.415 93.9824 35.4123 93.9862 35.4105C93.9901 35.4087 93.992 35.408 93.992 35.408C93.992 35.408 93.9811 35.4118 93.958 35.4155C93.9343 35.4193 93.8978 35.4232 93.8459 35.4232V39.6638C94.7448 39.6638 95.6623 39.3919 96.4234 38.6784L93.9337 35.4473ZM93.8459 35.4232H86.4652V39.6638H93.8459V35.4232ZM86.4652 35.4232C85.6637 35.4232 84.8988 35.7297 84.2863 36.3572L86.9015 39.4647C86.8503 39.5177 86.7734 39.5753 86.6773 39.6158C86.5831 39.6557 86.5056 39.6638 86.4652 39.6638V35.4232ZM84.235 36.4117C83.6655 37.0398 83.3823 37.818 83.2644 38.5655L87.0521 39.292C87.0617 39.2314 87.0688 39.2254 87.0566 39.2545C87.0425 39.2872 87.0105 39.3466 86.9528 39.4102L84.235 36.4117ZM83.2669 38.5507L82.575 42.763L86.3576 43.5191L87.0495 39.3068L83.2669 38.5507ZM84.4663 45.2614H91.0013V41.0208H84.4663V45.2614ZM91.0013 45.2614C91.0929 45.2614 91.1121 45.2726 91.0814 45.2632C91.0455 45.2525 90.9507 45.2161 90.8392 45.1193L93.2136 41.7848C92.5114 41.1758 91.6849 41.0208 91.0013 41.0208V45.2614ZM90.909 45.1774C90.7706 45.0681 90.6393 44.905 90.5534 44.7021C90.4727 44.5103 90.4631 44.3581 90.4631 44.3002H94.3072C94.3072 43.366 93.9753 42.3818 93.1437 41.7267L90.909 45.1774ZM90.4631 44.3002C90.4631 44.308 90.4631 44.2467 90.5009 44.1529C90.54 44.0553 90.5938 43.9887 90.6278 43.9568L93.1175 47.1879C93.9202 46.435 94.3072 45.4026 94.3072 44.3002H90.4631ZM90.6278 43.9568C90.6393 43.9459 90.6528 43.936 90.6649 43.9282C90.6713 43.9244 90.6764 43.9218 90.6803 43.9199C90.6841 43.9181 90.6861 43.9174 90.6861 43.9174C90.6861 43.9175 90.6752 43.9213 90.6521 43.925C90.6284 43.9288 90.5919 43.9326 90.54 43.9326V48.1732C91.4389 48.1732 92.3563 47.9014 93.1175 47.1879L90.6278 43.9568ZM90.54 43.9326H84.005V48.1732H90.54V43.9326ZM82.1118 45.6878L81.0098 52.6424L84.7963 53.3726L85.8982 46.4181L82.1118 45.6878ZM81.013 52.6214C81.0117 52.6309 81.0111 52.6304 81.0137 52.6226C81.0162 52.6146 81.0207 52.6034 81.0278 52.5912C81.0348 52.5791 81.0406 52.5705 81.0444 52.5662C81.0476 52.5621 81.0463 52.5649 81.0361 52.5736L83.3861 55.9292C84.1312 55.2943 84.6201 54.4224 84.7931 53.3936L81.013 52.6214ZM81.0463 52.5649C81.0451 52.5655 81.0451 52.5661 81.0463 52.5649C81.047 52.5643 81.0457 52.5657 81.0399 52.5676C81.0297 52.5712 80.9887 52.5835 80.9041 52.5835V56.8241C81.7774 56.8241 82.6378 56.5586 83.3759 55.938L81.0463 52.5649ZM96.6387 54.3645L95.3797 55.9668L95.4085 55.9941L95.438 56.0202L96.6387 54.3645ZM96.2799 53.0075L98.1648 53.4233L98.1686 53.3999L98.1724 53.3764L96.2799 53.0075ZM98.9964 36.0451L100.889 36.414L100.895 36.3796L100.899 36.345L98.9964 36.0451ZM102.405 36.0451L100.54 35.5309L100.524 35.603L100.512 35.6763L102.405 36.0451ZM99.6883 53.0075L101.58 53.3803L101.581 53.3764L99.6883 53.0075ZM97.6894 52.5835C97.6118 52.5835 97.6003 52.5732 97.6336 52.584C97.6721 52.5965 97.7509 52.6308 97.8393 52.7088L95.438 56.0202C96.1383 56.6382 96.9622 56.8241 97.6894 56.8241V52.5835ZM97.8976 52.7622C97.9796 52.8406 98.0616 52.9556 98.1167 53.0981C98.1699 53.235 98.1763 53.3395 98.1763 53.375H94.3322C94.3322 54.3298 94.6538 55.2726 95.3797 55.9668L97.8976 52.7622ZM98.1763 53.375C98.1763 53.3422 98.1776 53.3294 98.1769 53.3327C98.1769 53.3349 98.1763 53.3435 98.1744 53.3577C98.1731 53.3718 98.1699 53.3941 98.1648 53.4233L94.395 52.5917C94.3437 52.8772 94.3322 53.1538 94.3322 53.375H98.1763ZM98.1724 53.3764L100.889 36.414L97.1038 35.6763L94.3873 52.6387L98.1724 53.3764ZM100.899 36.345C100.903 36.3133 100.904 36.3364 100.879 36.3858C100.867 36.4089 100.852 36.4312 100.837 36.4507C100.822 36.4702 100.809 36.4822 100.802 36.4878L98.4723 33.1147C97.6817 33.7793 97.2281 34.7098 97.0935 35.7452L100.899 36.345ZM100.802 36.4878C100.803 36.4866 100.803 36.4871 100.802 36.4878C100.801 36.4883 100.802 36.487 100.808 36.485C100.818 36.4814 100.859 36.4692 100.944 36.4692V32.2286C100.071 32.2286 99.2104 32.494 98.4723 33.1147L100.802 36.4878ZM100.944 36.4692C101.007 36.4692 101.013 36.4781 100.978 36.4663C100.938 36.4528 100.875 36.4214 100.808 36.362L103.233 33.0708C102.535 32.4457 101.712 32.2286 100.944 32.2286V36.4692ZM100.808 36.362C100.722 36.2841 100.632 36.1656 100.572 36.0157C100.514 35.8726 100.508 35.7648 100.508 35.7341H104.352C104.352 34.7459 104.011 33.7684 103.233 33.0708L100.808 36.362ZM100.508 35.7341C100.508 35.752 100.508 35.745 100.51 35.7189C100.512 35.696 100.518 35.6276 100.54 35.5309L104.269 36.5594C104.342 36.2392 104.352 35.9371 104.352 35.7341H100.508ZM100.512 35.6763L97.7957 52.6387L101.581 53.3764L104.297 36.414L100.512 35.6763ZM97.7964 52.6348C97.7938 52.6512 97.7919 52.6539 97.7944 52.6464C97.797 52.6384 97.8028 52.6237 97.813 52.6054C97.8233 52.5869 97.8348 52.5702 97.8463 52.5566C97.8521 52.5501 97.8566 52.5452 97.8604 52.5417C97.8636 52.5382 97.8662 52.5367 97.8662 52.5367L100.127 55.9662C100.924 55.3267 101.412 54.4198 101.58 53.3803L97.7964 52.6348ZM97.8662 52.5367C97.8406 52.5567 97.8073 52.5835 97.6894 52.5835V56.8241C98.5626 56.8241 99.4 56.5492 100.127 55.9662L97.8662 52.5367ZM104.006 50.1239L102.113 49.755L102.11 49.7741L102.108 49.7932L104.006 50.1239ZM106.261 36.0451L104.369 35.6724L104.368 35.6762L106.261 36.0451ZM109.285 34.7164L108.026 36.3187L108.049 36.3408L108.073 36.362L109.285 34.7164ZM109.67 36.0451L107.805 35.5309L107.788 35.603L107.777 35.6762L109.67 36.0451ZM107.414 50.1239L109.299 50.5397L109.303 50.5164L109.307 50.4928L107.414 50.1239ZM117.511 51.8202L116.324 53.4874L116.359 53.5173L116.394 53.5455L117.511 51.8202ZM107.414 52.3008C106.551 52.3008 106.203 52.0819 106.077 51.9631L103.575 55.1828C104.645 56.1948 106.023 56.5414 107.414 56.5414V52.3008ZM106.077 51.9631C105.996 51.8864 105.851 51.7235 105.851 51.1417H102.007C102.007 52.6707 102.461 54.1287 103.575 55.1828L106.077 51.9631ZM105.851 51.1417C105.851 50.9453 105.867 50.7173 105.904 50.4546L102.108 49.7932C102.043 50.2468 102.007 50.6972 102.007 51.1417H105.851ZM105.898 50.4928L108.154 36.4141L104.368 35.6762L102.113 49.755L105.898 50.4928ZM108.153 36.4179C108.158 36.3892 108.162 36.3745 108.163 36.3709C108.165 36.3678 108.163 36.3737 108.156 36.3858C108.15 36.3981 108.141 36.4124 108.131 36.4267C108.119 36.441 108.109 36.451 108.102 36.4569L105.701 33.1455C104.955 33.8043 104.527 34.6988 104.369 35.6724L108.153 36.4179ZM108.102 36.4569C108.093 36.4655 108.083 36.4731 108.072 36.4787C108.063 36.4843 108.058 36.4859 108.06 36.485C108.065 36.4835 108.109 36.4692 108.209 36.4692V32.2286C107.337 32.2286 106.451 32.4837 105.701 33.1455L108.102 36.4569ZM108.209 36.4692C108.289 36.4692 108.297 36.4803 108.256 36.4663C108.208 36.4501 108.12 36.4082 108.026 36.3187L110.544 33.1141C109.83 32.4312 108.965 32.2286 108.209 32.2286V36.4692ZM108.073 36.362C107.986 36.2841 107.897 36.1656 107.837 36.0157C107.779 35.8726 107.773 35.7648 107.773 35.7341H111.617C111.617 34.7459 111.276 33.7684 110.497 33.0708L108.073 36.362ZM107.773 35.7341C107.773 35.752 107.772 35.745 107.774 35.7189C107.776 35.696 107.783 35.6276 107.805 35.5309L111.535 36.5594C111.607 36.2392 111.617 35.9371 111.617 35.7341H107.773ZM107.777 35.6762L105.522 49.755L109.307 50.4928L111.562 36.4141L107.777 35.6762ZM105.529 49.7081C105.476 50.005 105.467 50.2991 105.467 50.5197H109.311C109.311 50.4967 109.311 50.4789 109.311 50.4658C109.312 50.4526 109.312 50.4458 109.313 50.4446C109.313 50.4432 109.312 50.4504 109.31 50.4646C109.309 50.472 109.308 50.4819 109.306 50.4941C109.305 50.5063 109.302 50.5217 109.299 50.5397L105.529 49.7081ZM105.467 50.5197C105.467 51.2076 105.638 52.0675 106.26 52.754L108.978 49.7555C109.293 50.1028 109.311 50.4726 109.311 50.5197H105.467ZM106.26 52.754C106.883 53.4406 107.662 53.6295 108.286 53.6295V49.3889C108.329 49.3889 108.664 49.4081 108.978 49.7555L106.26 52.754ZM108.286 53.6295H116.486V49.3889H108.286V53.6295ZM116.486 53.6295C116.578 53.6295 116.597 53.6407 116.566 53.6313C116.531 53.6206 116.436 53.5842 116.324 53.4874L118.699 50.1529C117.996 49.5439 117.17 49.3889 116.486 49.3889V53.6295ZM116.394 53.5455C116.256 53.4362 116.125 53.2731 116.039 53.0702C115.958 52.8785 115.948 52.7262 115.948 52.6683H119.792C119.792 51.7341 119.46 50.75 118.629 50.0948L116.394 53.5455ZM115.948 52.6683C115.948 52.6761 115.948 52.6148 115.986 52.521C116.025 52.4234 116.079 52.3568 116.113 52.3249L118.603 55.556C119.405 54.8031 119.792 53.7708 119.792 52.6683H115.948ZM116.113 52.3249C116.124 52.314 116.138 52.3041 116.151 52.2963C116.156 52.2926 116.162 52.2899 116.165 52.288C116.169 52.2863 116.171 52.2856 116.171 52.2856C116.171 52.2856 116.161 52.2894 116.137 52.2931C116.114 52.2969 116.077 52.3008 116.025 52.3008V56.5414C116.924 56.5414 117.841 56.2695 118.603 55.556L116.113 52.3249ZM116.025 52.3008H107.414V56.5414H116.025V52.3008ZM120.522 54.3645L119.263 55.9668L119.291 55.9941L119.321 56.0202L120.522 54.3645ZM120.163 53.0075L122.048 53.4233L122.052 53.398L122.056 53.3725L120.163 53.0075ZM122.008 41.36L120.117 40.9837L120.116 40.9894L120.115 40.995L122.008 41.36ZM131.952 35.1122L130.947 36.9194L130.954 36.9249L130.963 36.9303L131.952 35.1122ZM133.823 37.3456L132.13 38.3508L133.454 41.0627L135.278 38.7306L133.823 37.3456ZM136.334 35.1405L137.193 37.0369L137.206 37.0299L137.219 37.0228L136.334 35.1405ZM143.202 35.8472L141.893 37.4L141.9 37.4068L141.907 37.4136L143.202 35.8472ZM144.535 41.36L146.428 41.725L146.429 41.7168L146.431 41.7086L144.535 41.36ZM142.69 53.0075L144.579 53.3936L144.581 53.3831L144.583 53.3725L142.69 53.0075ZM141.998 54.2514L143.163 55.938L143.168 55.9336L143.173 55.9292L141.998 54.2514ZM139.64 54.3645L138.381 55.9668L138.409 55.9941L138.439 56.0202L139.64 54.3645ZM139.281 53.0075L141.166 53.4233L141.17 53.398L141.174 53.3725L139.281 53.0075ZM141.126 41.36L139.242 40.9442L139.237 40.9695L139.233 40.995L141.126 41.36ZM140.64 37.9393L139.34 39.5023L139.357 39.5188L139.374 39.5349L140.64 37.9393ZM134.95 41.36L133.061 40.9675L133.059 40.9812L133.056 40.995L134.95 41.36ZM133.105 53.0075L134.997 53.3803L134.998 53.3725L133.105 53.0075ZM130.081 54.3645L128.773 55.9183L128.825 55.9714L128.88 56.0202L130.081 54.3645ZM129.748 53.0075L131.632 53.4233L131.637 53.398L131.641 53.3725L129.748 53.0075ZM131.593 41.36L129.712 40.9232L129.705 40.959L129.699 40.995L131.593 41.36ZM131.029 38.0806L129.618 39.5211L129.631 39.5364L129.645 39.5513L131.029 38.0806ZM126.621 38.2785L127.96 39.8L127.97 39.7889L127.98 39.7778L126.621 38.2785ZM125.417 41.36L127.31 41.725L127.311 41.7175L125.417 41.36ZM123.572 53.0075L125.461 53.3936L125.463 53.3831L125.465 53.3725L123.572 53.0075ZM122.88 54.2514L124.045 55.938L124.05 55.9336L124.055 55.9292L122.88 54.2514ZM121.573 52.5835C121.495 52.5835 121.483 52.5732 121.516 52.584C121.555 52.5965 121.634 52.6308 121.723 52.7088L119.321 56.0202C120.022 56.6382 120.846 56.8241 121.573 56.8241V52.5835ZM121.78 52.7622C121.862 52.8406 121.945 52.9556 122 53.0981C122.053 53.235 122.06 53.3395 122.06 53.375H118.216C118.216 54.3298 118.537 55.2726 119.263 55.9668L121.78 52.7622ZM122.06 53.375C122.06 53.3422 122.06 53.3294 122.06 53.3327C122.06 53.3349 122.059 53.3435 122.058 53.3577C122.056 53.3718 122.053 53.3941 122.048 53.4233L118.278 52.5917C118.226 52.8772 118.216 53.1538 118.216 53.375H122.06ZM122.056 53.3725L123.902 41.725L120.115 40.995L118.269 52.6425L122.056 53.3725ZM123.9 41.7363C124.22 39.7762 124.87 38.524 125.699 37.7351L123.187 34.5247C121.522 36.1105 120.548 38.3451 120.117 40.9837L123.9 41.7363ZM125.699 37.7351C126.518 36.9554 127.683 36.4692 129.389 36.4692V32.2286C126.994 32.2286 124.863 32.9297 123.187 34.5247L125.699 37.7351ZM129.389 36.4692C130.022 36.4692 130.522 36.6325 130.947 36.9194L132.957 33.305C131.877 32.5741 130.669 32.2286 129.389 32.2286V36.4692ZM130.963 36.9303C131.399 37.2192 131.795 37.6635 132.13 38.3508L135.515 36.3403C134.893 35.0675 134.042 34.0229 132.94 33.294L130.963 36.9303ZM135.278 38.7306C135.882 37.9571 136.523 37.4067 137.193 37.0369L135.474 33.244C134.299 33.892 133.266 34.8117 132.367 35.9605L135.278 38.7306ZM137.219 37.0228C137.881 36.6435 138.536 36.4692 139.204 36.4692V32.2286C137.89 32.2286 136.631 32.5819 135.449 33.2581L137.219 37.0228ZM139.204 36.4692C140.547 36.4692 141.364 36.8573 141.893 37.4L144.511 34.2945C143.092 32.8394 141.244 32.2286 139.204 32.2286V36.4692ZM141.907 37.4136C142.414 37.9241 142.741 38.6527 142.741 39.8617H146.585C146.585 37.6781 145.938 35.7305 144.497 34.2808L141.907 37.4136ZM142.741 39.8617C142.741 40.148 142.712 40.5269 142.638 41.0114L146.431 41.7086C146.528 41.0623 146.585 40.4423 146.585 39.8617H142.741ZM142.641 40.995L140.796 52.6425L144.583 53.3725L146.428 41.725L142.641 40.995ZM140.8 52.6214C140.798 52.6309 140.797 52.6304 140.8 52.6226C140.803 52.6146 140.807 52.6034 140.814 52.5912C140.821 52.5791 140.827 52.5705 140.831 52.5662C140.834 52.5621 140.832 52.5649 140.822 52.5736L143.173 55.9292C143.917 55.2943 144.407 54.4224 144.579 53.3936L140.8 52.6214ZM140.832 52.5649C140.831 52.5655 140.831 52.5661 140.832 52.5649C140.834 52.5643 140.832 52.5657 140.827 52.5676C140.816 52.5712 140.775 52.5835 140.691 52.5835V56.8241C141.564 56.8241 142.424 56.5586 143.163 55.938L140.832 52.5649ZM140.691 52.5835C140.613 52.5835 140.601 52.5732 140.634 52.584C140.673 52.5965 140.752 52.6308 140.841 52.7088L138.439 56.0202C139.14 56.6382 139.964 56.8241 140.691 56.8241V52.5835ZM140.898 52.7622C140.98 52.8406 141.063 52.9556 141.118 53.0981C141.171 53.235 141.178 53.3395 141.178 53.375H137.334C137.334 54.3298 137.655 55.2726 138.381 55.9668L140.898 52.7622ZM141.178 53.375C141.178 53.3422 141.178 53.3294 141.178 53.3327C141.178 53.3349 141.177 53.3435 141.176 53.3577C141.174 53.3718 141.171 53.3941 141.166 53.4233L137.396 52.5917C137.344 52.8772 137.334 53.1538 137.334 53.375H141.178ZM141.174 53.3725L143.02 41.725L139.233 40.995L137.387 52.6425L141.174 53.3725ZM143.011 41.7758C143.123 41.1551 143.177 40.5155 143.177 39.8617H139.333C139.333 40.2632 139.3 40.6226 139.242 40.9442L143.011 41.7758ZM143.177 39.8617C143.177 38.6589 142.898 37.302 141.905 36.3436L139.374 39.5349C139.34 39.503 139.316 39.47 139.3 39.4433C139.285 39.4175 139.283 39.4071 139.288 39.4224C139.3 39.4591 139.333 39.5901 139.333 39.8617H143.177ZM141.938 36.3762C141.019 35.4471 139.809 35.197 138.717 35.197V39.4376C139.022 39.4376 139.21 39.4748 139.31 39.5074C139.404 39.5378 139.391 39.5535 139.34 39.5023L141.938 36.3762ZM138.717 35.197C137.277 35.197 135.959 35.7235 134.916 36.8442L137.598 39.8824C137.853 39.6084 138.176 39.4376 138.717 39.4376V35.197ZM134.916 36.8442C133.905 37.9306 133.333 39.3754 133.061 40.9675L136.839 41.7525C137.011 40.7437 137.311 40.1907 137.598 39.8824L134.916 36.8442ZM133.056 40.995L131.211 52.6425L134.998 53.3725L136.843 41.725L133.056 40.995ZM131.212 52.6348C131.209 52.6574 131.206 52.666 131.207 52.6639C131.207 52.6615 131.211 52.651 131.22 52.6356C131.228 52.6201 131.238 52.6044 131.25 52.5902C131.261 52.5763 131.27 52.568 131.273 52.5649L133.604 55.938C134.376 55.2883 134.834 54.3868 134.997 53.3803L131.212 52.6348ZM131.273 52.5649C131.272 52.5655 131.272 52.5661 131.273 52.5649C131.275 52.5643 131.273 52.5657 131.268 52.5676C131.257 52.5712 131.216 52.5835 131.132 52.5835V56.8241C132.005 56.8241 132.865 56.5586 133.604 55.938L131.273 52.5649ZM131.132 52.5835C131.054 52.5835 131.042 52.5732 131.075 52.584C131.114 52.5965 131.193 52.6308 131.282 52.7088L128.88 56.0202C129.581 56.6382 130.405 56.8241 131.132 56.8241V52.5835ZM131.389 52.8108C131.475 52.8987 131.549 53.0156 131.596 53.1459C131.641 53.2697 131.644 53.357 131.644 53.375H127.8C127.8 54.2813 128.081 55.2099 128.773 55.9183L131.389 52.8108ZM131.644 53.375C131.644 53.3422 131.645 53.3294 131.645 53.3327C131.644 53.3349 131.644 53.3435 131.642 53.3577C131.64 53.3718 131.638 53.3941 131.632 53.4233L127.863 52.5917C127.811 52.8772 127.8 53.1538 127.8 53.375H131.644ZM131.641 53.3725L133.486 41.725L129.699 40.995L127.854 52.6425L131.641 53.3725ZM133.473 41.7968C133.571 41.284 133.618 40.76 133.618 40.2292H129.774C129.774 40.49 129.75 40.7199 129.712 40.9232L133.473 41.7968ZM133.618 40.2292C133.618 38.9315 133.299 37.6238 132.414 36.6099L129.645 39.5513C129.648 39.5552 129.774 39.6799 129.774 40.2292H133.618ZM132.439 36.6401C131.546 35.576 130.342 35.197 129.158 35.197V39.4376C129.392 39.4376 129.519 39.4743 129.574 39.4968C129.601 39.5076 129.612 39.5157 129.615 39.5175C129.617 39.5189 129.617 39.5194 129.618 39.5211L132.439 36.6401ZM129.158 35.197C127.722 35.197 126.316 35.617 125.262 36.7792L127.98 39.7778C128.089 39.6585 128.373 39.4376 129.158 39.4376V35.197ZM125.282 36.757C124.276 37.8339 123.774 39.3818 123.522 41.0025L127.311 41.7175C127.504 40.4734 127.803 39.967 127.96 39.8L125.282 36.757ZM123.523 40.995L121.678 52.6425L125.465 53.3725L127.31 41.725L123.523 40.995ZM121.682 52.6214C121.68 52.6309 121.679 52.6304 121.682 52.6226C121.685 52.6146 121.689 52.6034 121.696 52.5912C121.703 52.5791 121.709 52.5705 121.713 52.5662C121.716 52.5621 121.714 52.5649 121.704 52.5736L124.055 55.9292C124.799 55.2943 125.289 54.4224 125.461 53.3936L121.682 52.6214ZM121.714 52.5649C121.713 52.5655 121.713 52.5661 121.714 52.5649C121.716 52.5643 121.714 52.5657 121.709 52.5676C121.698 52.5712 121.657 52.5835 121.573 52.5835V56.8241C122.446 56.8241 123.306 56.5586 124.045 55.938L121.714 52.5649ZM150.122 53.8274L149.273 55.7296L149.283 55.7355L149.294 55.7412L150.122 53.8274ZM147.533 51.3113L145.895 52.4208L145.901 52.4321L145.908 52.4435L147.533 51.3113ZM146.79 45.855L148.677 46.258L148.679 46.243L148.682 46.228L146.79 45.855ZM151.403 34.7164L150.144 36.3187L150.167 36.3408L150.191 36.362L151.403 34.7164ZM151.787 36.0451L149.922 35.5309L149.906 35.6025L149.895 35.6753L151.787 36.0451ZM150.199 45.9399L148.306 45.57L148.305 45.5713L150.199 45.9399ZM157.63 50.237L158.952 51.777L158.952 51.7763L157.63 50.237ZM159.527 45.9399L157.634 45.57L157.633 45.5774L159.527 45.9399ZM161.116 36.0451L163.008 36.415L163.013 36.3855L163.017 36.3558L161.116 36.0451ZM161.756 34.8295L162.921 36.516L162.926 36.5117L162.931 36.5073L161.756 34.8295ZM164.165 34.7164L162.906 36.3187L162.935 36.346L162.964 36.3721L164.165 34.7164ZM164.524 36.0451L162.659 35.5309L162.643 35.6055L162.63 35.6813L164.524 36.0451ZM162.935 46.1095L161.041 45.7457V45.7473L162.935 46.1095ZM159.988 52.5269L158.73 50.9235L158.726 50.9273L158.722 50.9313L159.988 52.5269ZM154.017 52.5835C152.758 52.5835 151.753 52.3365 150.949 51.9136L149.294 55.7412C150.711 56.4867 152.303 56.8241 154.017 56.8241V52.5835ZM150.971 51.9251C150.153 51.4814 149.569 50.8978 149.158 50.179L145.908 52.4435C146.727 53.8733 147.868 54.9672 149.273 55.7296L150.971 51.9251ZM149.171 50.2018C148.781 49.5005 148.558 48.6502 148.558 47.5796H144.714C144.714 49.3359 145.09 50.9734 145.895 52.4208L149.171 50.2018ZM148.558 47.5796C148.558 47.1563 148.596 46.7164 148.677 46.258L144.903 45.4521C144.778 46.1622 144.714 46.872 144.714 47.5796H148.558ZM148.682 46.228L150.271 36.4181L146.486 35.6722L144.897 45.4821L148.682 46.228ZM150.271 36.4181C150.275 36.3894 150.28 36.3745 150.281 36.371C150.282 36.3678 150.281 36.3737 150.274 36.3858C150.268 36.3981 150.259 36.4124 150.248 36.4267C150.237 36.441 150.227 36.451 150.22 36.4569L147.818 33.1455C147.072 33.8043 146.644 34.6986 146.486 35.6722L150.271 36.4181ZM150.22 36.4569C150.213 36.4627 150.205 36.469 150.196 36.4742C150.192 36.4766 150.188 36.4784 150.186 36.4797C150.183 36.481 150.182 36.4815 150.182 36.4814C150.182 36.4813 150.19 36.4784 150.209 36.4754C150.228 36.4724 150.258 36.4692 150.301 36.4692V32.2286C149.43 32.2286 148.558 32.4935 147.818 33.1455L150.22 36.4569ZM150.301 36.4692C150.396 36.4692 150.414 36.4819 150.379 36.4703C150.338 36.4566 150.245 36.4157 150.144 36.3187L152.661 33.1141C151.936 32.4203 151.053 32.2286 150.301 32.2286V36.4692ZM150.191 36.362C150.104 36.2841 150.014 36.1656 149.954 36.0157C149.896 35.8726 149.891 35.7648 149.891 35.7341H153.735C153.735 34.7459 153.393 33.7684 152.615 33.0708L150.191 36.362ZM149.891 35.7341C149.891 35.752 149.89 35.745 149.892 35.7189C149.894 35.696 149.901 35.6276 149.922 35.5309L153.652 36.5594C153.724 36.2392 153.735 35.9371 153.735 35.7341H149.891ZM149.895 35.6753L148.306 45.57L152.091 46.3097L153.68 36.415L149.895 35.6753ZM148.305 45.5713C148.187 46.3116 148.123 47.0301 148.123 47.7209H151.967C151.967 47.3185 152.005 46.8497 152.091 46.3084L148.305 45.5713ZM148.123 47.7209C148.123 49.4242 148.542 51.0811 149.706 52.2811C150.846 53.4558 152.376 53.8556 153.94 53.8556V49.615C152.906 49.615 152.489 49.3459 152.331 49.1824C152.196 49.0442 151.967 48.6938 151.967 47.7209H148.123ZM153.94 53.8556C155.86 53.8556 157.587 53.2017 158.952 51.777L156.309 48.697C155.76 49.2701 155.027 49.615 153.94 49.615V53.8556ZM158.952 51.7763C160.298 50.3692 161.078 48.478 161.42 46.3023L157.633 45.5774C157.394 47.0957 156.91 48.0693 156.308 48.6977L158.952 51.7763ZM161.419 46.3097L163.008 36.415L159.223 35.6753L157.634 45.57L161.419 46.3097ZM163.017 36.3558C163.019 36.3415 163.016 36.3736 162.988 36.4253C162.961 36.4782 162.93 36.5084 162.921 36.516L160.591 33.1429C159.819 33.792 159.353 34.6992 159.214 35.7344L163.017 36.3558ZM162.931 36.5073C162.944 36.497 162.966 36.4692 163.089 36.4692V32.2286C162.187 32.2286 161.321 32.5212 160.581 33.1517L162.931 36.5073ZM163.089 36.4692C163.169 36.4692 163.177 36.4803 163.136 36.4663C163.088 36.4501 163 36.4082 162.906 36.3187L165.424 33.1141C164.71 32.4312 163.845 32.2286 163.089 32.2286V36.4692ZM162.964 36.3721C162.848 36.2692 162.748 36.1274 162.687 35.9686C162.629 35.8207 162.628 35.7178 162.628 35.7059H166.472C166.472 34.7696 166.169 33.77 165.366 33.0607L162.964 36.3721ZM162.628 35.7059C162.628 35.7403 162.626 35.7451 162.628 35.7277C162.628 35.7181 162.63 35.697 162.634 35.667C162.638 35.6377 162.646 35.5907 162.659 35.5309L166.389 36.5594C166.464 36.2244 166.472 35.9 166.472 35.7059H162.628ZM162.63 35.6813L161.041 45.7457L164.829 46.4733L166.417 36.4089L162.63 35.6813ZM161.041 45.7473C160.65 48.2357 159.827 49.8765 158.73 50.9235L161.245 54.1304C163.19 52.2749 164.331 49.6374 164.829 46.4716L161.041 45.7473ZM158.722 50.9313C157.648 51.9685 156.145 52.5835 154.017 52.5835V56.8241C156.844 56.8241 159.321 55.9877 161.254 54.1226L158.722 50.9313ZM79.1647 68.5352L77.9057 70.1375L77.9345 70.1648L77.964 70.1909L79.1647 68.5352ZM79.0301 68.0263L80.915 68.4421L80.9195 68.4171L80.9233 68.3919L79.0301 68.0263ZM79.6644 64.0296L77.7718 63.6594L77.7712 63.6639L79.6644 64.0296ZM80.76 61.782L79.5696 60.1174L79.5657 60.1209L79.5612 60.1245L80.76 61.782ZM84.4887 61.3368L83.6635 63.2517L83.6802 63.2606L83.6975 63.2691L84.4887 61.3368ZM85.4017 62.1849L83.7789 63.321L83.7859 63.3332L83.7929 63.3452L85.4017 62.1849ZM85.6804 64.0296L87.5736 64.3952L87.5749 64.3867L87.5762 64.3781L85.6804 64.0296ZM85.0461 68.0263L86.9381 68.3991L86.9393 68.3919L85.0461 68.0263ZM83.9025 68.5246L82.6436 70.1269L82.6666 70.149L82.6903 70.1702L83.9025 68.5246ZM83.768 68.0263L85.6323 68.5406L85.649 68.4681L85.6605 68.3945L83.768 68.0263ZM84.4118 63.9978L82.5199 63.625L82.5193 63.6296L84.4118 63.9978ZM80.3083 68.0263L82.1983 68.4124L82.1996 68.4035L82.2009 68.3945L80.3083 68.0263ZM80.0488 68.4928L81.2136 70.1793L81.2187 70.175L81.2238 70.1706L80.0488 68.4928ZM79.5587 66.5421C79.6746 66.5421 80.0174 66.5725 80.3653 66.8795L77.964 70.1909C78.5041 70.6675 79.1096 70.7827 79.5587 70.7827V66.5421ZM80.4236 66.9329C80.5857 67.0878 80.7279 67.2928 80.8234 67.5383C80.9163 67.7782 80.9426 67.999 80.9426 68.1641H77.0984C77.0984 68.8597 77.34 69.5963 77.9057 70.1375L80.4236 66.9329ZM80.9426 68.1641C80.9426 68.1785 80.9419 68.2082 80.9393 68.2499C80.9368 68.2899 80.9304 68.3569 80.915 68.4421L77.1452 67.6105C77.1042 67.837 77.0984 68.0371 77.0984 68.1641H80.9426ZM80.9233 68.3919L81.5576 64.3952L77.7712 63.6639L77.1369 67.6607L80.9233 68.3919ZM81.557 64.3997C81.6569 63.7757 81.8408 63.5431 81.9587 63.4395L79.5612 60.1245C78.5387 61.0246 77.9922 62.2903 77.7718 63.6594L81.557 64.3997ZM81.9503 63.4467C82.0894 63.3255 82.4027 63.1496 83.0952 63.1496V58.909C81.8273 58.909 80.5838 59.235 79.5696 60.1174L81.9503 63.4467ZM83.0952 63.1496C83.4156 63.1496 83.5854 63.2108 83.6635 63.2517L85.3139 59.4219C84.6105 59.0529 83.8513 58.909 83.0952 58.909V63.1496ZM83.6975 63.2691C83.75 63.2954 83.7724 63.3148 83.7769 63.319C83.7795 63.3216 83.7801 63.3223 83.7795 63.3214C83.7782 63.3205 83.7782 63.32 83.7789 63.321L87.0246 61.0488C86.5915 60.2959 85.9815 59.754 85.28 59.4044L83.6975 63.2691ZM83.7929 63.3452C83.7936 63.346 83.7942 63.3466 83.7962 63.3548C83.7987 63.3646 83.8064 63.399 83.8064 63.4677H87.6505C87.6505 62.6151 87.4551 61.7745 87.0105 61.0246L83.7929 63.3452ZM83.8064 63.4677C83.8064 63.4832 83.8045 63.5498 83.7846 63.681L87.5762 64.3781C87.6204 64.0853 87.6505 63.7773 87.6505 63.4677H83.8064ZM83.7872 63.6639L83.1529 67.6607L86.9393 68.3919L87.5736 64.3952L83.7872 63.6639ZM83.1542 67.6536C83.174 67.5315 83.2176 67.376 83.3047 67.2127C83.3938 67.047 83.5078 66.9099 83.6315 66.8062L85.961 70.1793C86.5101 69.7181 86.8285 69.0758 86.9381 68.3991L83.1542 67.6536ZM83.6315 66.8062C83.7436 66.7119 83.8692 66.6413 83.9973 66.597C84.1235 66.5534 84.2305 66.5421 84.3061 66.5421V70.7827C84.859 70.7827 85.4472 70.6115 85.961 70.1793L83.6315 66.8062ZM84.3061 66.5421C84.4631 66.5421 84.7931 66.5907 85.1147 66.879L82.6903 70.1702C83.217 70.6422 83.816 70.7827 84.3061 70.7827V66.5421ZM85.1614 66.9223C85.3235 67.0772 85.4658 67.2822 85.5612 67.5277C85.6541 67.7676 85.6804 67.9884 85.6804 68.1535H81.8363C81.8363 68.8491 82.0778 69.5857 82.6436 70.1269L85.1614 66.9223ZM85.6804 68.1535C85.6804 68.1663 85.6804 68.2027 85.6759 68.2554C85.6727 68.3014 85.6631 68.4059 85.6323 68.5406L81.9036 67.5121C81.8382 67.7999 81.8363 68.0536 81.8363 68.1535H85.6804ZM85.6605 68.3945L86.3044 64.3659L82.5193 63.6296L81.8754 67.6582L85.6605 68.3945ZM86.3038 64.3705C86.3474 64.1037 86.3819 63.8038 86.3819 63.4995H82.5379C82.5379 63.4763 82.5391 63.4748 82.5366 63.5005C82.534 63.5251 82.5295 63.5658 82.5199 63.625L86.3038 64.3705ZM86.3819 63.4995C86.3819 62.6066 86.1212 61.5874 85.3184 60.8512C84.5836 60.1773 83.6917 60.0222 82.9799 60.0222V64.2628C83.2548 64.2628 83.1029 64.3338 82.8614 64.1123C82.7307 63.9926 82.6365 63.8412 82.5833 63.695C82.5353 63.5618 82.5379 63.4816 82.5379 63.4995H86.3819ZM82.9799 60.0222C82.083 60.0222 81.1559 60.2816 80.3845 60.9907L82.846 64.2484C82.8326 64.2602 82.8197 64.2698 82.8082 64.2765C82.7973 64.2831 82.7922 64.2845 82.7967 64.283C82.8057 64.2798 82.8601 64.2628 82.9799 64.2628V60.0222ZM80.3845 60.9907C79.6157 61.6978 79.2159 62.6518 79.0596 63.6292L82.8447 64.3663C82.864 64.2475 82.8864 64.1999 82.8877 64.1967C82.8883 64.1952 82.8851 64.2021 82.8768 64.2137C82.8684 64.2255 82.8576 64.2376 82.846 64.2484L80.3845 60.9907ZM79.0596 63.6292L78.4157 67.6582L82.2009 68.3945L82.8447 64.3663L79.0596 63.6292ZM78.4183 67.6402C78.4426 67.4962 78.4932 67.3351 78.581 67.1771C78.6688 67.0195 78.7738 66.8999 78.8738 66.815L81.2238 70.1706C81.7338 69.7358 82.0791 69.1232 82.1983 68.4124L78.4183 67.6402ZM78.884 66.8062C78.9962 66.7119 79.1217 66.6413 79.2499 66.597C79.3761 66.5534 79.4831 66.5421 79.5587 66.5421V70.7827C80.1116 70.7827 80.6997 70.6115 81.2136 70.1793L78.884 66.8062ZM86.2506 68.5246L84.9917 70.1269L85.0199 70.1542L85.0493 70.1803L86.2506 68.5246ZM86.1161 68.0157L88.0003 68.4315L88.0048 68.4086L88.0086 68.3856L86.1161 68.0157ZM86.7119 64.3052L88.6045 64.675L88.6051 64.6673L86.7119 64.3052ZM87.8651 61.8775L89.1017 63.5006L89.1029 63.4993L87.8651 61.8775ZM92.1129 61.729L90.8039 63.282L90.8142 63.2925L90.8244 63.3029L92.1129 61.729ZM92.7471 64.3052L90.8558 63.9259L90.8546 63.9353L92.7471 64.3052ZM92.1513 68.0157L94.0432 68.3885L94.0439 68.3856L92.1513 68.0157ZM91.0077 68.514L89.7487 70.1163L89.7718 70.1384L89.7955 70.1596L91.0077 68.514ZM90.8731 68.0157L92.7375 68.53L92.7535 68.4591L92.7651 68.3871L90.8731 68.0157ZM91.1518 66.2877L93.0438 66.6591L93.4455 64.1674H91.1518V66.2877ZM87.6729 66.2877V64.1674H86.0623L85.7803 65.9163L87.6729 66.2877ZM87.3942 68.0157L89.2836 68.4018L89.2849 68.3945L89.2862 68.3871L87.3942 68.0157ZM87.1348 68.4822L88.2995 70.1687L88.3046 70.1644L88.3098 70.16L87.1348 68.4822ZM91.3248 65.1957V67.316H92.9438L93.2187 65.556L91.3248 65.1957ZM91.469 64.2734L93.3628 64.6336L93.3635 64.6278L93.3648 64.622L91.469 64.2734ZM91.1711 62.5029L89.8705 64.0642L89.8903 64.0843L89.9108 64.1038L91.1711 62.5029ZM87.9901 64.2734L86.0981 63.8996L86.0968 63.9064L86.0956 63.9131L87.9901 64.2734ZM87.8459 65.1957L85.9514 64.8355L85.5638 67.316H87.8459V65.1957ZM86.6446 66.5315C86.7606 66.5315 87.1034 66.5619 87.4513 66.8689L85.0493 70.1803C85.5901 70.6569 86.1949 70.7721 86.6446 70.7721V66.5315ZM87.5089 66.9223C87.671 67.0772 87.8132 67.2822 87.9087 67.5277C88.0022 67.7676 88.0285 67.9884 88.0285 68.1535H84.1844C84.1844 68.8491 84.4253 69.5857 84.9917 70.1269L87.5089 66.9223ZM88.0285 68.1535C88.0285 68.1679 88.0279 68.1976 88.0247 68.2393C88.0221 68.2793 88.0157 68.3463 88.0003 68.4315L84.2312 67.5999C84.1902 67.8264 84.1844 68.0265 84.1844 68.1535H88.0285ZM88.0086 68.3856L88.6045 64.675L84.8193 63.9353L84.2235 67.6459L88.0086 68.3856ZM88.6051 64.6673C88.714 63.9778 88.9235 63.6656 89.1017 63.5006L86.628 60.2543C85.6016 61.206 85.0429 62.5123 84.818 63.943L88.6051 64.6673ZM89.1029 63.4993C89.2971 63.3192 89.6136 63.1496 90.2196 63.1496V58.909C88.903 58.909 87.6505 59.3049 86.6267 60.2556L89.1029 63.4993ZM90.2196 63.1496C90.6912 63.1496 90.8014 63.2791 90.8039 63.282L93.4211 60.1761C92.5146 59.246 91.362 58.909 90.2196 58.909V63.1496ZM90.8244 63.3029C90.8417 63.3198 90.845 63.3265 90.8494 63.3404C90.8578 63.3618 90.8828 63.4419 90.8828 63.6161H94.7269C94.7269 62.3262 94.3335 61.0841 93.4006 60.1552L90.8244 63.3029ZM90.8828 63.6161C90.8828 63.7091 90.8744 63.8118 90.8558 63.9259L94.6378 64.6845C94.6961 64.3321 94.7269 63.9754 94.7269 63.6161H90.8828ZM90.8546 63.9353L90.2587 67.6459L94.0439 68.3856L94.6397 64.675L90.8546 63.9353ZM90.2587 67.643C90.2786 67.5209 90.3222 67.3654 90.4099 67.2021C90.4983 67.0364 90.613 66.8993 90.736 66.7956L93.0662 70.1687C93.6146 69.7075 93.9337 69.0652 94.0432 68.3885L90.2587 67.643ZM90.736 66.7956C90.8488 66.7013 90.9737 66.6307 91.1025 66.5864C91.2281 66.5428 91.3357 66.5315 91.4113 66.5315V70.7721C91.9642 70.7721 92.5517 70.6009 93.0662 70.1687L90.736 66.7956ZM91.4113 66.5315C91.5683 66.5315 91.8976 66.5801 92.2192 66.8684L89.7955 70.1596C90.3222 70.6316 90.9212 70.7721 91.4113 70.7721V66.5315ZM92.266 66.9117C92.4281 67.0666 92.5703 67.2716 92.6658 67.5171C92.7593 67.757 92.7856 67.9778 92.7856 68.1429H88.9415C88.9415 68.8385 89.1824 69.5751 89.7487 70.1163L92.266 66.9117ZM92.7856 68.1429C92.7856 68.1557 92.7849 68.1921 92.7811 68.2448C92.7779 68.2908 92.7683 68.3953 92.7375 68.53L89.0081 67.5015C88.9428 67.7893 88.9415 68.043 88.9415 68.1429H92.7856ZM92.7651 68.3871L93.0438 66.6591L89.2593 65.9163L88.9806 67.6443L92.7651 68.3871ZM91.1518 64.1674H87.6729V68.408H91.1518V64.1674ZM85.7803 65.9163L85.5017 67.6443L89.2862 68.3871L89.5649 66.6591L85.7803 65.9163ZM85.5042 67.6296C85.5279 67.4856 85.5792 67.3245 85.6669 67.1665C85.7547 67.0089 85.8598 66.8893 85.9591 66.8044L88.3098 70.16C88.8197 69.7252 89.1644 69.1126 89.2836 68.4018L85.5042 67.6296ZM85.9693 66.7956C86.0821 66.7013 86.207 66.6307 86.3358 66.5864C86.4614 66.5428 86.569 66.5315 86.6446 66.5315V70.7721C87.1975 70.7721 87.7851 70.6009 88.2995 70.1687L85.9693 66.7956ZM93.2187 65.556L93.3628 64.6336L89.5745 63.9131L89.4303 64.8355L93.2187 65.556ZM93.3648 64.622C93.4147 64.2894 93.4583 63.9233 93.4583 63.5843H89.6142C89.6142 63.5656 89.6148 63.5834 89.6084 63.6514C89.602 63.7156 89.5911 63.8054 89.5726 63.9248L93.3648 64.622ZM93.4583 63.5843C93.4583 62.7208 93.2347 61.6716 92.4313 60.902L89.9108 64.1038C89.7699 63.9693 89.6853 63.8127 89.6437 63.6884C89.6065 63.5779 89.6142 63.5285 89.6142 63.5843H93.4583ZM92.471 60.9417C91.7317 60.1918 90.802 60.0222 90.0755 60.0222V64.2628C90.1876 64.2628 90.2088 64.2773 90.1697 64.2645C90.1235 64.2494 90.0025 64.1982 89.8705 64.0642L92.471 60.9417ZM90.0755 60.0222C89.1254 60.0222 88.1566 60.3242 87.3782 61.1197C86.6261 61.8878 86.2596 62.9051 86.0981 63.8996L89.882 64.6472C89.9512 64.221 90.0467 64.173 89.9903 64.2308C89.9621 64.2595 89.9326 64.2749 89.923 64.2787C89.9192 64.2802 89.9621 64.2628 90.0755 64.2628V60.0222ZM86.0956 63.9131L85.9514 64.8355L89.7398 65.556L89.8839 64.6336L86.0956 63.9131ZM87.8459 67.316H91.3248V63.0754H87.8459V67.316ZM93.4026 68.5352L92.1443 70.1375L92.1725 70.1648L92.2019 70.1909L93.4026 68.5352ZM93.268 68.0263L95.1529 68.4421L95.1574 68.4168L95.1619 68.3913L93.268 68.0263ZM93.96 63.6585L92.0687 63.2822L92.068 63.2879L92.0667 63.2935L93.96 63.6585ZM97.6887 61.3156L96.6835 63.1228L96.6918 63.1283L96.7002 63.1337L97.6887 61.3156ZM98.3903 62.1531L96.6982 63.1583L98.0219 65.8703L99.8459 63.5381L98.3903 62.1531ZM99.3321 61.3262L100.192 63.2226L100.205 63.2156L100.217 63.2085L99.3321 61.3262ZM101.908 61.5912L100.599 63.144L100.606 63.1508L100.613 63.1576L101.908 61.5912ZM102.407 63.6585L104.301 64.0235L104.303 64.0153L104.304 64.0071L102.407 63.6585ZM101.715 68.0263L103.605 68.4124L103.607 68.4019L103.609 68.3913L101.715 68.0263ZM101.456 68.4928L102.621 70.1793L102.626 70.175L102.632 70.1706L101.456 68.4928ZM100.572 68.5352L99.3135 70.1375L99.3417 70.1648L99.3712 70.1909L100.572 68.5352ZM100.437 68.0263L102.322 68.4421L102.327 68.4168L102.331 68.3913L100.437 68.0263ZM101.129 63.6585L99.245 63.2427L99.2405 63.268L99.236 63.2935L101.129 63.6585ZM100.947 62.3757L99.6479 63.9387L99.6646 63.9553L99.6813 63.9714L100.947 62.3757ZM98.8131 63.6585L96.9244 63.266L96.9225 63.2797L96.9199 63.2935L98.8131 63.6585ZM98.1212 68.0263L100.014 68.3991L100.015 68.3913L98.1212 68.0263ZM96.9872 68.5352L95.6796 70.089L95.7314 70.1421L95.7865 70.1909L96.9872 68.5352ZM96.8622 68.0263L98.7471 68.4421L98.7516 68.4168L98.7561 68.3913L96.8622 68.0263ZM97.5542 63.6585L95.6738 63.2217L95.6667 63.2575L95.661 63.2935L97.5542 63.6585ZM97.3428 62.4287L95.9326 63.8693L95.9454 63.8845L95.9582 63.8994L97.3428 62.4287ZM95.6898 62.5029L97.0288 64.0244L97.0391 64.0134L97.0493 64.0022L95.6898 62.5029ZM95.2381 63.6585L97.132 64.0235L97.1326 64.016L95.2381 63.6585ZM94.5462 68.0263L96.4362 68.4124L96.4381 68.4019L96.44 68.3913L94.5462 68.0263ZM94.2867 68.4928L95.4521 70.1793L95.4572 70.175L95.4624 70.1706L94.2867 68.4928ZM93.7966 66.5421C93.9132 66.5421 94.2553 66.5725 94.6038 66.8795L92.2019 70.1909C92.742 70.6675 93.3475 70.7827 93.7966 70.7827V66.5421ZM94.6615 66.9329C94.8236 67.0878 94.9658 67.2928 95.0613 67.5383C95.1548 67.7782 95.1805 67.999 95.1805 68.1641H91.3364C91.3364 68.8597 91.5779 69.5963 92.1443 70.1375L94.6615 66.9329ZM95.1805 68.1641C95.1805 68.1785 95.1805 68.2082 95.1773 68.2499C95.1747 68.2899 95.1683 68.3569 95.1529 68.4421L91.3838 67.6105C91.3428 67.837 91.3364 68.0371 91.3364 68.1641H95.1805ZM95.1619 68.3913L95.8538 64.0235L92.0667 63.2935L91.3748 67.6613L95.1619 68.3913ZM95.8519 64.0348C95.9371 63.5118 96.08 63.3492 96.1287 63.3024L93.6172 60.092C92.7311 60.9358 92.2653 62.0806 92.0687 63.2822L95.8519 64.0348ZM96.1287 63.3024C96.1684 63.2648 96.3036 63.1496 96.7277 63.1496V58.909C95.6148 58.909 94.5135 59.2391 93.6172 60.092L96.1287 63.3024ZM96.7277 63.1496C96.7521 63.1496 96.7521 63.1526 96.736 63.1479C96.729 63.1457 96.72 63.1423 96.7098 63.1376C96.7002 63.1329 96.6912 63.1276 96.6835 63.1228L98.694 59.5084C98.0847 59.0955 97.4107 58.909 96.7277 58.909V63.1496ZM96.7002 63.1337C96.6931 63.1289 96.6861 63.1235 96.6797 63.118C96.6739 63.1127 96.67 63.1086 96.6688 63.107C96.6662 63.1036 96.6777 63.1164 96.6982 63.1583L100.083 61.1479C99.7607 60.4876 99.2988 59.9083 98.6779 59.4974L96.7002 63.1337ZM99.8459 63.5381C99.9811 63.3653 100.098 63.2744 100.192 63.2226L98.4729 59.4297C97.8745 59.7596 97.3639 60.2199 96.9353 60.768L99.8459 63.5381ZM100.217 63.2085C100.303 63.1591 100.36 63.1496 100.408 63.1496V58.909C99.7139 58.909 99.0534 59.0975 98.4473 59.4438L100.217 63.2085ZM100.408 63.1496C100.556 63.1496 100.626 63.1717 100.641 63.1774C100.648 63.18 100.644 63.1793 100.633 63.1725C100.622 63.1653 100.61 63.1555 100.599 63.144L103.217 60.0384C102.407 59.2077 101.391 58.909 100.408 58.909V63.1496ZM100.613 63.1576C100.601 63.146 100.585 63.1274 100.569 63.1022C100.553 63.077 100.542 63.0526 100.535 63.0331C100.521 62.9927 100.533 63.0023 100.533 63.0966H104.377C104.377 61.9732 104.035 60.862 103.203 60.0248L100.613 63.1576ZM100.533 63.0966C100.533 63.1121 100.531 63.1787 100.512 63.3099L104.304 64.0071C104.348 63.7142 104.377 63.4063 104.377 63.0966H100.533ZM100.514 63.2935L99.8222 67.6613L103.609 68.3913L104.301 64.0235L100.514 63.2935ZM99.8261 67.6402C99.8498 67.4962 99.901 67.3351 99.9888 67.1771C100.077 67.0195 100.182 66.8999 100.281 66.815L102.632 70.1706C103.142 69.7358 103.486 69.1232 103.605 68.4124L99.8261 67.6402ZM100.291 66.8062C100.404 66.7119 100.529 66.6413 100.658 66.597C100.783 66.5534 100.891 66.5421 100.966 66.5421V70.7827C101.519 70.7827 102.107 70.6115 102.621 70.1793L100.291 66.8062ZM100.966 66.5421C101.082 66.5421 101.425 66.5725 101.773 66.8795L99.3712 70.1909C99.9113 70.6675 100.517 70.7827 100.966 70.7827V66.5421ZM101.831 66.9329C101.993 67.0878 102.135 67.2928 102.231 67.5383C102.324 67.7782 102.35 67.999 102.35 68.1641H98.5056C98.5056 68.8597 98.7471 69.5963 99.3135 70.1375L101.831 66.9329ZM102.35 68.1641C102.35 68.1785 102.35 68.2082 102.346 68.2499C102.344 68.2898 102.338 68.3569 102.322 68.4421L98.553 67.6105C98.512 67.837 98.5056 68.0371 98.5056 68.1641H102.35ZM102.331 68.3913L103.023 64.0235L99.236 63.2935L98.544 67.6613L102.331 68.3913ZM103.014 64.0743C103.073 63.7481 103.099 63.4207 103.099 63.0966H99.2552C99.2552 63.1684 99.2494 63.2155 99.245 63.2427L103.014 64.0743ZM103.099 63.0966C103.099 62.4475 102.949 61.4911 102.213 60.7801L99.6813 63.9714C99.4788 63.7758 99.3641 63.5507 99.3071 63.373C99.2552 63.2094 99.2552 63.1019 99.2552 63.0966H103.099ZM102.246 60.8127C101.583 60.1428 100.772 60.0222 100.226 60.0222V64.2628C100.259 64.2628 100.21 64.2676 100.111 64.2354C100.004 64.2011 99.8267 64.1196 99.6479 63.9387L102.246 60.8127ZM100.226 60.0222C99.4051 60.0222 98.6004 60.3308 97.9629 61.0156L100.644 64.0539C100.586 64.1168 100.505 64.178 100.408 64.219C100.315 64.2585 100.247 64.2628 100.226 64.2628V60.0222ZM97.9629 61.0156C97.3569 61.6662 97.0577 62.4867 96.9244 63.266L100.703 64.051C100.719 63.9556 100.734 63.9226 100.731 63.9311C100.728 63.9361 100.721 63.9518 100.706 63.9744C100.692 63.9973 100.671 64.0249 100.644 64.0539L97.9629 61.0156ZM96.9199 63.2935L96.228 67.6613L100.015 68.3913L100.707 64.0235L96.9199 63.2935ZM96.2293 67.6536C96.2491 67.5315 96.2927 67.376 96.3805 67.2127C96.4689 67.047 96.5836 66.9099 96.7066 66.8062L99.0367 70.1793C99.5852 69.7181 99.9042 69.0758 100.014 68.3991L96.2293 67.6536ZM96.7066 66.8062C96.8193 66.7119 96.9443 66.6413 97.073 66.597C97.1986 66.5534 97.3062 66.5421 97.3812 66.5421V70.7827C97.9348 70.7827 98.5223 70.6115 99.0367 70.1793L96.7066 66.8062ZM97.3812 66.5421C97.4978 66.5421 97.8399 66.5725 98.1885 66.8795L95.7865 70.1909C96.3266 70.6675 96.9321 70.7827 97.3812 70.7827V66.5421ZM98.2955 66.9814C98.4556 67.1459 98.5863 67.3526 98.6709 67.5861C98.7535 67.8129 98.7747 68.0166 98.7747 68.1641H94.9306C94.9306 68.8112 95.1375 69.5337 95.6796 70.089L98.2955 66.9814ZM98.7747 68.1641C98.7747 68.1785 98.7747 68.2082 98.7715 68.2499C98.7689 68.2898 98.7625 68.3569 98.7471 68.4421L94.978 67.6105C94.937 67.837 94.9306 68.0371 94.9306 68.1641H98.7747ZM98.7561 68.3913L99.4481 64.0235L95.661 63.2935L94.969 67.6613L98.7561 68.3913ZM99.4352 64.0953C99.4903 63.8063 99.5147 63.5179 99.5147 63.2344H95.6706C95.6706 63.2479 95.6699 63.2421 95.6738 63.2217L99.4352 64.0953ZM99.5147 63.2344C99.5147 62.514 99.3347 61.6538 98.7273 60.958L95.9582 63.8994C95.8333 63.7558 95.7545 63.5973 95.7116 63.4596C95.6719 63.3305 95.6706 63.2452 95.6706 63.2344H99.5147ZM98.7536 60.9882C98.127 60.2421 97.3126 60.0222 96.6412 60.0222V64.2628C96.6188 64.2628 96.5208 64.2597 96.3805 64.2027C96.2312 64.1416 96.0697 64.0326 95.9326 63.8693L98.7536 60.9882ZM96.6412 60.0222C95.8999 60.0222 95.0216 60.2419 94.3309 61.0037L97.0493 64.0022C96.9334 64.1299 96.8091 64.2026 96.7155 64.2379C96.6316 64.2699 96.5964 64.2628 96.6412 64.2628V60.0222ZM94.3514 60.9815C93.7088 61.6696 93.4564 62.5755 93.3436 63.301L97.1326 64.016C97.1442 63.9441 97.155 63.8914 97.1647 63.8553C97.1736 63.8189 97.1794 63.8042 97.1787 63.8063C97.1781 63.8073 97.141 63.9045 97.0288 64.0244L94.3514 60.9815ZM93.3449 63.2935L92.653 67.6613L96.44 68.3913L97.132 64.0235L93.3449 63.2935ZM92.6568 67.6402C92.6805 67.4962 92.7318 67.3351 92.8195 67.1771C92.9073 67.0195 93.0124 66.8999 93.1117 66.815L95.4624 70.1706C95.9723 69.7358 96.317 69.1232 96.4362 68.4124L92.6568 67.6402ZM93.1219 66.8062C93.2347 66.7119 93.3596 66.6413 93.4884 66.597C93.614 66.5534 93.7216 66.5421 93.7966 66.5421V70.7827C94.3501 70.7827 94.9376 70.6115 95.4521 70.1793L93.1219 66.8062ZM104.829 68.4928L104.37 70.5515L104.383 70.555L104.395 70.5583L104.829 68.4928ZM103.686 68.0051L102.707 69.8298L102.714 69.8346L102.721 69.8392L103.686 68.0051ZM103.032 67.3266L101.334 68.3187L101.338 68.3285L101.343 68.3382L103.032 67.3266ZM103.176 66.5209L104.329 68.2171L104.365 68.1882L104.399 68.1576L103.176 66.5209ZM104.003 66.5951L102.676 68.1289L102.699 68.1533L102.723 68.1767L104.003 66.5951ZM107.251 67.263L108.209 69.1015L108.222 69.0932L108.235 69.0846L107.251 67.263ZM107.558 66.0438L106.075 67.3917L106.096 67.4196L106.118 67.4467L107.558 66.0438ZM106.203 65.3971L106.692 63.3462L106.683 63.3438L106.203 65.3971ZM104.166 62.1425L105.655 63.4833L105.661 63.4752L105.667 63.467L104.166 62.1425ZM105.233 61.3262L105.916 63.308L105.927 63.3034L105.938 63.2986L105.233 61.3262ZM108.404 61.3792L107.613 63.3113L107.627 63.3184L107.642 63.3253L108.404 61.3792ZM109.317 62.2697L107.535 63.0637L107.553 63.1115L107.573 63.1583L109.317 62.2697ZM109.067 63.0966L110.056 64.9148L110.071 64.9048L110.086 64.8946L109.067 63.0966ZM108.51 63.1284L107.599 64.9953L107.651 65.0262L107.705 65.0536L108.51 63.1284ZM108.308 62.9376L109.863 61.6905L109.859 61.6851L109.856 61.6798L108.308 62.9376ZM107.635 62.3439L106.843 64.2757L106.861 64.2845L106.879 64.2928L107.635 62.3439ZM105.214 63.5207L103.722 64.8577L103.744 64.8878L103.768 64.9169L105.214 63.5207ZM105.656 63.8387L104.886 65.7813L104.918 65.797L104.952 65.8115L105.656 63.8387ZM106.569 64.1568L107.099 62.1188L107.088 62.1153L107.077 62.112L106.569 64.1568ZM108.058 64.7505L107.199 66.6469L107.218 66.6574L107.237 66.6674L108.058 64.7505ZM108.798 65.3971L107.171 66.5255L107.188 66.5557L107.207 66.5852L108.798 65.3971ZM108.664 67.5493L110.209 68.8105L110.214 68.8024L110.22 68.7944L108.664 67.5493ZM107.664 68.3762L108.392 70.3386L108.399 70.3356L108.405 70.3325L107.664 68.3762ZM106.184 66.5421C105.867 66.5421 105.561 66.5034 105.264 66.4273L104.395 70.5583C104.982 70.7085 105.579 70.7827 106.184 70.7827V66.5421ZM105.289 66.434C104.985 66.3514 104.782 66.2551 104.65 66.171L102.721 69.8392C103.231 70.1651 103.789 70.3938 104.37 70.5515L105.289 66.434ZM104.664 66.1805C104.604 66.1408 104.591 66.1236 104.604 66.1378C104.619 66.1533 104.67 66.2098 104.722 66.315L101.343 68.3382C101.687 69.0371 102.215 69.509 102.707 69.8298L104.664 66.1805ZM104.731 66.3345C104.78 66.4361 104.868 66.6636 104.868 66.9874H101.023C101.023 67.5232 101.17 67.9768 101.334 68.3187L104.731 66.3345ZM104.868 66.9874C104.868 67.2364 104.812 67.5026 104.691 67.7483C104.574 67.9843 104.43 68.134 104.329 68.2171L102.023 64.8247C101.47 65.2822 101.023 66.0274 101.023 66.9874H104.868ZM104.399 68.1576C104.309 68.2389 104.185 68.3266 104.027 68.3927C103.867 68.4597 103.698 68.4928 103.532 68.4928V64.2522C102.912 64.2522 102.37 64.5063 101.954 64.8842L104.399 68.1576ZM103.532 68.4928C103.362 68.4928 103.186 68.4545 103.022 68.377C102.862 68.3014 102.748 68.2051 102.676 68.1289L105.33 65.0614C104.88 64.588 104.263 64.2522 103.532 64.2522V68.4928ZM102.723 68.1767C103.172 68.6187 103.678 69.0245 104.24 69.2883L105.745 65.3862C105.705 65.3673 105.552 65.2783 105.283 65.0135L102.723 68.1767ZM104.24 69.2883C104.825 69.5625 105.438 69.6696 106.04 69.6696V65.429C105.848 65.429 105.763 65.3947 105.745 65.3862L104.24 69.2883ZM106.04 69.6696C106.738 69.6696 107.513 69.5425 108.209 69.1015L106.294 65.4245C106.345 65.3921 106.362 65.3944 106.32 65.4044C106.276 65.4148 106.187 65.429 106.04 65.429V69.6696ZM108.235 69.0846C108.988 68.5895 109.625 67.7035 109.625 66.4785H105.781C105.781 66.2593 105.837 66.008 105.968 65.7817C106.089 65.5712 106.222 65.4712 106.267 65.4415L108.235 69.0846ZM109.625 66.4785C109.625 65.8252 109.425 65.1726 109 64.641L106.118 67.4467C106.014 67.3167 105.923 67.156 105.862 66.9711C105.801 66.7881 105.781 66.6175 105.781 66.4785H109.625ZM109.042 64.696C108.669 64.1966 108.195 63.9212 107.858 63.7633L106.357 67.6671C106.382 67.6792 106.364 67.6736 106.32 67.6416C106.278 67.6105 106.18 67.5331 106.075 67.3917L109.042 64.696ZM107.858 63.7633C107.52 63.6054 107.116 63.4689 106.692 63.3462L105.716 67.448C106.073 67.5515 106.271 67.6271 106.357 67.6671L107.858 63.7633ZM106.683 63.3438C106.307 63.237 106.023 63.1331 105.817 63.0394C105.715 62.9932 105.641 62.9532 105.589 62.9218C105.536 62.89 105.516 62.8726 105.517 62.8738L103.161 66.2243C103.853 66.8162 104.789 67.1849 105.725 67.4505L106.683 63.3438ZM105.517 62.8738C105.529 62.8836 105.588 62.9404 105.64 63.0548C105.693 63.1714 105.704 63.2727 105.704 63.3193H101.86C101.86 64.5017 102.339 65.5205 103.161 66.2243L105.517 62.8738ZM105.704 63.3193C105.704 63.3326 105.701 63.3692 105.686 63.4152C105.672 63.4607 105.655 63.484 105.655 63.4833L102.677 60.8017C102.147 61.5182 101.86 62.3818 101.86 63.3193H105.704ZM105.667 63.467C105.672 63.4603 105.722 63.3894 105.916 63.308L104.55 59.3443C103.834 59.6446 103.173 60.118 102.666 60.8179L105.667 63.467ZM105.938 63.2986C106.134 63.2132 106.403 63.1496 106.77 63.1496V58.909C105.998 58.909 105.241 59.0433 104.528 59.3537L105.938 63.2986ZM106.77 63.1496C107.175 63.1496 107.441 63.2254 107.613 63.3113L109.196 59.4471C108.433 59.0665 107.609 58.909 106.77 58.909V63.1496ZM107.642 63.3253C107.74 63.3725 107.749 63.3935 107.715 63.3598C107.673 63.3192 107.593 63.2224 107.535 63.0637L111.1 61.4757C110.706 60.4017 109.901 59.7834 109.167 59.433L107.642 63.3253ZM107.573 63.1583C107.497 62.978 107.453 62.7709 107.453 62.5559H111.297C111.297 62.1431 111.215 61.7451 111.062 61.3812L107.573 63.1583ZM107.453 62.5559C107.453 62.2793 107.523 61.9865 107.67 61.7285C107.808 61.487 107.966 61.3559 108.049 61.2986L110.086 64.8946C110.712 64.4633 111.297 63.6729 111.297 62.5559H107.453ZM108.079 61.2785C108.252 61.1634 108.492 61.0717 108.769 61.0717V65.3123C109.252 65.3123 109.691 65.1571 110.056 64.9148L108.079 61.2785ZM108.769 61.0717C108.965 61.0717 109.152 61.1201 109.316 61.2033L107.705 65.0536C108.034 65.2215 108.395 65.3123 108.769 65.3123V61.0717ZM109.422 61.2616C109.57 61.3498 109.73 61.4896 109.863 61.6905L106.754 64.1847C106.989 64.5411 107.284 64.8081 107.599 64.9953L109.422 61.2616ZM109.856 61.6798C109.481 61.1179 108.987 60.676 108.393 60.3951L106.879 64.2928C106.857 64.2826 106.831 64.2661 106.805 64.2434C106.779 64.221 106.765 64.2019 106.761 64.1954L109.856 61.6798ZM108.428 60.4121C107.854 60.1259 107.251 60.0222 106.674 60.0222V64.2628C106.842 64.2628 106.879 64.2934 106.843 64.2757L108.428 60.4121ZM106.674 60.0222C106.007 60.0222 105.263 60.1404 104.588 60.554L106.455 64.261C106.401 64.294 106.38 64.2931 106.418 64.2845C106.456 64.2757 106.538 64.2628 106.674 64.2628V60.0222ZM104.588 60.554C103.852 61.005 103.167 61.8655 103.167 63.1178H107.011C107.011 63.3723 106.942 63.6538 106.793 63.8998C106.655 64.1259 106.505 64.2301 106.455 64.261L104.588 60.554ZM103.167 63.1178C103.167 63.7252 103.341 64.3402 103.722 64.8577L106.706 62.1836C106.803 62.3158 106.884 62.4732 106.939 62.6488C106.993 62.8228 107.011 62.9843 107.011 63.1178H103.167ZM103.768 64.9169C104.126 65.3687 104.568 65.6279 104.886 65.7813L106.426 61.8962C106.396 61.8817 106.407 61.8836 106.442 61.909C106.475 61.9329 106.562 61.9997 106.66 62.1245L103.768 64.9169ZM104.952 65.8115C105.259 65.945 105.641 66.0747 106.061 66.2016L107.077 62.112C106.703 61.9986 106.476 61.9162 106.36 61.866L104.952 65.8115ZM106.039 66.1947C106.642 66.3859 107.008 66.5417 107.199 66.6469L108.918 62.854C108.417 62.5776 107.79 62.3376 107.099 62.1188L106.039 66.1947ZM107.237 66.6674C107.311 66.7059 107.329 66.7249 107.314 66.7119C107.298 66.6977 107.236 66.6399 107.171 66.5255L110.426 64.2688C110.018 63.5538 109.416 63.1134 108.88 62.8336L107.237 66.6674ZM107.207 66.5852C107.088 66.3916 107.097 66.252 107.097 66.3089H110.941C110.941 65.6307 110.804 64.8833 110.39 64.2091L107.207 66.5852ZM107.097 66.3089C107.097 66.3263 107.097 66.3352 107.096 66.3372C107.096 66.3389 107.096 66.3359 107.098 66.3295C107.099 66.3265 107.1 66.3232 107.101 66.3198C107.102 66.3163 107.104 66.3132 107.105 66.3104C107.108 66.3046 107.109 66.3024 107.108 66.3041L110.22 68.7944C110.707 68.054 110.941 67.2 110.941 66.3089H107.097ZM107.119 66.288C107.116 66.2922 107.107 66.3047 107.083 66.3248C107.057 66.346 107.008 66.3807 106.924 66.4198L108.405 70.3325C109.101 70.0121 109.734 69.5196 110.209 68.8105L107.119 66.288ZM106.937 66.4138C106.792 66.479 106.555 66.5421 106.184 66.5421V70.7827C106.941 70.7827 107.691 70.655 108.392 70.3386L106.937 66.4138Z" fill="black"/>
</g>
</g>
<defs>
<filter id="filter0_d_173_453" x="15.7481" y="0" width="68.4707" height="90.8556" filterUnits="userSpaceOnUse" color-interpolation-filters="sRGB">
<feFlood flood-opacity="0" result="BackgroundImageFix"/>
<feColorMatrix in="SourceAlpha" type="matrix" values="0 0 0 0 0 0 0 0 0 0 0 0 0 0 0 0 0 0 127 0" result="hardAlpha"/>
<feOffset dx="3" dy="4"/>
<feComposite in2="hardAlpha" operator="out"/>
<feColorMatrix type="matrix" values="0 0 0 0 0 0 0 0 0 0 0 0 0 0 0 0 0 0 0.25 0"/>
<feBlend mode="normal" in2="BackgroundImageFix" result="effect1_dropShadow_173_453"/>
<feBlend mode="normal" in="SourceGraphic" in2="effect1_dropShadow_173_453" result="shape"/>
</filter>
<filter id="filter1_d_173_453" x="77.0984" y="32.2286" width="91.3735" height="41.5541" filterUnits="userSpaceOnUse" color-interpolation-filters="sRGB">
<feFlood flood-opacity="0" result="BackgroundImageFix"/>
<feColorMatrix in="SourceAlpha" type="matrix" values="0 0 0 0 0 0 0 0 0 0 0 0 0 0 0 0 0 0 127 0" result="hardAlpha"/>
<feOffset dx="2" dy="3"/>
<feComposite in2="hardAlpha" operator="out"/>
<feColorMatrix type="matrix" values="0 0 0 0 0 0 0 0 0 0 0 0 0 0 0 0 0 0 0.25 0"/>
<feBlend mode="normal" in2="BackgroundImageFix" result="effect1_dropShadow_173_453"/>
<feBlend mode="normal" in="SourceGraphic" in2="effect1_dropShadow_173_453" result="shape"/>
</filter>
</defs>
</svg>
